<svg width="28" height="23" viewBox="0 0 28 23" fill="none" xmlns="http://www.w3.org/2000/svg">
<path d="M4.38579 5.72574L4.49925 6.42027C4.89511 5.82156 5.48472 5.47486 6.26808 5.38017C7.14839 5.27376 7.78833 5.53873 8.18789 6.17506C8.36074 5.84726 8.60267 5.57013 8.91368 5.34368C9.22856 5.11675 9.61481 4.97563 10.0724 4.92031C11.453 4.75343 12.2433 5.39959 12.4433 6.85879L12.9531 11.0761L11.8769 11.2062L11.3749 7.05286C11.3205 6.60301 11.1772 6.27998 10.9449 6.08378C10.7122 5.8837 10.3534 5.81296 9.86869 5.87156C9.46925 5.91984 9.15222 6.08014 8.91757 6.35245C8.68246 6.62089 8.56796 6.95934 8.57405 7.36781L9.07891 11.5444L7.99694 11.6752L7.49841 7.55095C7.38778 6.63574 6.88455 6.23227 5.98873 6.34056C5.28293 6.42587 4.83645 6.78478 4.64928 7.41728L5.20477 12.0127L4.12862 12.1428L3.36781 5.84879L4.38579 5.72574Z" fill="#E5E5E5"/>
<path d="M16.7344 12C16.6719 11.875 16.6211 11.6523 16.582 11.332C16.0781 11.8555 15.4766 12.1172 14.7773 12.1172C14.1523 12.1172 13.6387 11.9414 13.2363 11.5898C12.8379 11.2344 12.6387 10.7852 12.6387 10.2422C12.6387 9.58203 12.8887 9.07031 13.3887 8.70703C13.8926 8.33984 14.5996 8.15625 15.5098 8.15625H16.5645V7.6582C16.5645 7.2793 16.4512 6.97852 16.2246 6.75586C15.998 6.5293 15.6641 6.41602 15.2227 6.41602C14.8359 6.41602 14.5117 6.51367 14.25 6.70898C13.9883 6.9043 13.8574 7.14062 13.8574 7.41797H12.7676C12.7676 7.10156 12.8789 6.79688 13.1016 6.50391C13.3281 6.20703 13.6328 5.97266 14.0156 5.80078C14.4023 5.62891 14.8262 5.54297 15.2871 5.54297C16.0176 5.54297 16.5898 5.72656 17.0039 6.09375C17.418 6.45703 17.6328 6.95898 17.6484 7.59961V10.5176C17.6484 11.0996 17.7227 11.5625 17.8711 11.9062V12H16.7344ZM14.9355 11.1738C15.2754 11.1738 15.5977 11.0859 15.9023 10.9102C16.207 10.7344 16.4277 10.5059 16.5645 10.2246V8.92383H15.7148C14.3867 8.92383 13.7227 9.3125 13.7227 10.0898C13.7227 10.4297 13.8359 10.6953 14.0625 10.8867C14.2891 11.0781 14.5801 11.1738 14.9355 11.1738Z" fill="#E5E5E5"/>
<path d="M19.7122 6.62872L20.3929 13.6682C20.5102 14.8812 20.0187 15.541 18.9183 15.6474C18.6812 15.6703 18.4581 15.6566 18.2491 15.6061L18.1657 14.743C18.2931 14.762 18.4579 14.7618 18.6601 14.7423C18.9012 14.7189 19.0775 14.6352 19.1891 14.491C19.305 14.3502 19.3474 14.1185 19.3162 13.7958L18.6333 6.73305L19.7122 6.62872ZM18.3606 5.06993C18.3441 4.89885 18.3824 4.74798 18.4758 4.61729C18.5726 4.48235 18.7241 4.40491 18.9301 4.38498C19.1401 4.36468 19.3053 4.40953 19.4258 4.51954C19.5464 4.62954 19.6151 4.77203 19.632 4.94699C19.6489 5.12196 19.6086 5.27303 19.511 5.4002C19.4134 5.52737 19.2596 5.6011 19.0497 5.6214C18.8397 5.64171 18.6766 5.59861 18.5604 5.49212C18.4441 5.38563 18.3775 5.2449 18.3606 5.06993Z" fill="#E5E5E5"/>
<path d="M24.0126 11.4212C23.9631 11.2905 23.935 11.0639 23.9284 10.7413C23.3743 11.2112 22.7494 11.411 22.0538 11.3405C21.432 11.2775 20.9386 11.0509 20.5738 10.6605C20.2132 10.2667 20.0602 9.7997 20.115 9.25949C20.1815 8.6027 20.4818 8.11879 21.0159 7.80775C21.5542 7.49322 22.2762 7.38183 23.1817 7.47357L24.231 7.57987L24.2812 7.08436C24.3194 6.70738 24.237 6.39672 24.034 6.15236C23.8315 5.90411 23.5106 5.75775 23.0715 5.71326C22.6867 5.67428 22.3543 5.73876 22.0742 5.9067C21.7941 6.07463 21.6401 6.29657 21.6122 6.5725L20.5279 6.46265C20.5598 6.14786 20.7012 5.85594 20.9523 5.58691C21.2076 5.31438 21.5344 5.11191 21.9326 4.97949C22.3347 4.84747 22.765 4.80469 23.2236 4.85115C23.9503 4.92478 24.5012 5.16512 24.8761 5.57217C25.2514 5.97533 25.4146 6.49639 25.3656 7.13532L25.0715 10.0384C25.0128 10.6175 25.04 11.0855 25.153 11.4425L25.1436 11.5357L24.0126 11.4212ZM22.3062 10.4179C22.6444 10.4522 22.9738 10.3972 23.2947 10.253C23.6156 10.1088 23.8582 9.90373 24.0225 9.6377L24.1536 8.34354L23.3084 8.25791C21.987 8.12404 21.2871 8.4438 21.2088 9.21718C21.1745 9.5553 21.2605 9.83099 21.4666 10.0443C21.6727 10.2575 21.9526 10.3821 22.3062 10.4179Z" fill="#E5E5E5"/>
<path d="M2.15938 15.9409C1.95491 14.974 2.01604 14.1586 2.34277 13.4946C2.66869 12.8268 3.20045 12.4149 3.93804 12.2589C4.69475 12.0989 5.34177 12.2415 5.87913 12.6869L5.78525 11.9881L6.75406 11.7832L8.03419 17.8368C8.2039 18.6394 8.09879 19.3224 7.71887 19.8858C7.34276 20.4485 6.75342 20.8147 5.95086 20.9844C5.50371 21.0789 5.04592 21.0759 4.57748 20.9753C4.10904 20.8748 3.72692 20.6821 3.43113 20.3973L3.8469 19.6446C4.42048 20.1102 5.03595 20.2735 5.69328 20.1345C6.20922 20.0254 6.57979 19.7953 6.805 19.4443C7.03403 19.0924 7.09279 18.6528 6.98126 18.1254L6.86852 17.5922C6.54775 18.1711 6.02048 18.5381 5.28671 18.6933C4.56058 18.8469 3.91021 18.6789 3.33559 18.1896C2.7648 17.6994 2.37273 16.9499 2.15938 15.9409ZM3.2511 15.8358C3.39899 16.5352 3.65868 17.0552 4.03017 17.3959C4.40085 17.7327 4.84415 17.8466 5.36009 17.7375C6.02889 17.5961 6.45574 17.1884 6.64062 16.5145L6.04177 13.6826C5.59166 13.1589 5.04176 12.9658 4.39206 13.1032C3.87613 13.2123 3.51536 13.4982 3.30977 13.9609C3.10417 14.4236 3.08462 15.0486 3.2511 15.8358Z" fill="#E5E5E5"/>
<path d="M12.0055 18.4108C11.9555 18.2803 11.9268 18.0538 11.9193 17.7312C11.3665 18.2027 10.7422 18.4043 10.0464 18.3358C9.42437 18.2745 8.93038 18.0493 8.56441 17.66C8.2027 17.2672 8.04844 16.8007 8.10163 16.2603C8.16629 15.6033 8.46521 15.1186 8.99839 14.806C9.53584 14.4899 10.2575 14.3765 11.1632 14.4656L12.2128 14.5689L12.2616 14.0733C12.2987 13.6962 12.2155 13.3858 12.0118 13.142C11.8085 12.8943 11.4872 12.7489 11.048 12.7056C10.6631 12.6677 10.3309 12.7332 10.0513 12.9019C9.77169 13.0707 9.61831 13.293 9.59115 13.569L8.50654 13.4623C8.53754 13.1474 8.67817 12.8551 8.92845 12.5853C9.18301 12.3121 9.50919 12.1087 9.90699 11.9751C10.3087 11.842 10.7389 11.7979 11.1976 11.8431C11.9246 11.9146 12.4761 12.1534 12.8522 12.5594C13.2287 12.9615 13.3933 13.4821 13.3461 14.1211L13.0603 17.0251C13.0033 17.6043 13.0318 18.0722 13.1459 18.4289L13.1367 18.5222L12.0055 18.4108ZM10.2962 17.4124C10.6344 17.4457 10.9637 17.3898 11.2842 17.2447C11.6046 17.0996 11.8466 16.8938 12.0103 16.6273L12.1377 15.3328L11.2921 15.2496C9.9704 15.1195 9.27146 15.4413 9.19532 16.2149C9.16203 16.5531 9.24875 16.8285 9.45548 17.0412C9.6622 17.2539 9.94245 17.3776 10.2962 17.4124Z" fill="#E5E5E5"/>
<path d="M16.6932 17.6249C17.0765 17.5736 17.3958 17.4125 17.6512 17.1418C17.9065 16.8711 18.0263 16.5594 18.0106 16.2068L19.0269 16.0706C19.0558 16.4332 18.9779 16.7925 18.793 17.1483C18.6082 17.5042 18.3371 17.8046 17.9798 18.0495C17.6264 18.294 17.2367 18.4448 16.8108 18.5019C15.9552 18.6166 15.2356 18.4234 14.6521 17.9223C14.072 17.4167 13.7155 16.6684 13.5826 15.6773L13.5585 15.4973C13.4764 14.8855 13.5158 14.3265 13.6765 13.8202C13.8372 13.3139 14.109 12.9011 14.4918 12.5817C14.8785 12.2619 15.3584 12.0636 15.9314 11.9867C16.636 11.8923 17.2489 12.0249 17.7701 12.3846C18.2951 12.7438 18.6183 13.2581 18.7396 13.9276L17.7233 14.0639C17.6378 13.6615 17.4383 13.3493 17.1248 13.1273C16.8146 12.9009 16.4562 12.815 16.0497 12.8695C15.5038 12.9427 15.1063 13.1969 14.8573 13.6323C14.6116 14.0633 14.5386 14.6505 14.6383 15.3939L14.6655 15.5971C14.7626 16.3211 14.9864 16.8586 15.337 17.2097C15.6875 17.5608 16.1396 17.6992 16.6932 17.6249Z" fill="#E5E5E5"/>
<path d="M21.6546 14.5809C22.1913 14.0417 22.8425 13.8103 23.6082 13.8868C24.9414 14.0199 25.5387 14.8392 25.4002 16.3446L24.984 20.5133L23.9053 20.4056L24.3222 16.2311C24.3637 15.7759 24.2923 15.4292 24.108 15.191C23.9277 14.9531 23.6217 14.8126 23.1903 14.7696C22.8405 14.7346 22.5241 14.7973 22.2411 14.9574C21.9582 15.1176 21.7278 15.3419 21.5498 15.6304L21.1009 20.1256L20.0223 20.0179L20.9165 11.0624L21.9951 11.1701L21.6546 14.5809Z" fill="#E5E5E5"/>
</svg>
