<svg width="1229" height="1597" viewBox="0 0 1229 1597" fill="none" xmlns="http://www.w3.org/2000/svg">
<mask id="path-1-inside-1" fill="white">
<path d="M184.703 656.461C184.366 612.555 197.291 569.533 221.844 532.836C246.396 496.139 281.473 467.415 322.639 450.296C363.805 433.177 409.211 428.432 453.115 436.661C497.019 444.89 537.45 465.724 569.293 496.528C601.137 527.332 622.965 566.722 632.015 609.718C641.066 652.714 636.933 697.383 620.139 738.079C603.345 778.774 574.645 813.667 537.668 838.345C500.691 863.023 457.097 876.378 412.4 876.721L410.696 654.727L184.703 656.461Z"/>
</mask>
<path d="M184.703 656.461C184.366 612.555 197.291 569.533 221.844 532.836C246.396 496.139 281.473 467.415 322.639 450.296C363.805 433.177 409.211 428.432 453.115 436.661C497.019 444.89 537.45 465.724 569.293 496.528C601.137 527.332 622.965 566.722 632.015 609.718C641.066 652.714 636.933 697.383 620.139 738.079C603.345 778.774 574.645 813.667 537.668 838.345C500.691 863.023 457.097 876.378 412.4 876.721L410.696 654.727L184.703 656.461Z" stroke="#E5E5E5" stroke-width="6" mask="url(#path-1-inside-1)"/>
<mask id="path-2-inside-2" fill="white">
<path d="M1113 788.5C1113 733.616 1096.72 679.964 1066.23 634.329C1035.74 588.695 992.401 553.127 941.695 532.123C890.988 511.12 835.192 505.625 781.362 516.332C727.533 527.039 678.087 553.469 639.278 592.278C600.469 631.087 574.039 680.533 563.332 734.362C552.625 788.192 558.12 843.988 579.123 894.695C600.127 945.401 635.695 988.741 681.329 1019.23C726.964 1049.72 780.616 1066 835.5 1066L835.5 788.5H1113Z"/>
</mask>
<path d="M1113 788.5C1113 733.616 1096.72 679.964 1066.23 634.329C1035.74 588.695 992.401 553.127 941.695 532.123C890.988 511.12 835.192 505.625 781.362 516.332C727.533 527.039 678.087 553.469 639.278 592.278C600.469 631.087 574.039 680.533 563.332 734.362C552.625 788.192 558.12 843.988 579.123 894.695C600.127 945.401 635.695 988.741 681.329 1019.23C726.964 1049.72 780.616 1066 835.5 1066L835.5 788.5H1113Z" stroke="#E5E5E5" stroke-width="6" mask="url(#path-2-inside-2)"/>
<mask id="path-3-inside-3" fill="white">
<path d="M985.301 554.906C927.982 518.149 859.149 503.748 791.903 514.446C724.656 525.144 663.69 560.193 620.607 612.923C577.524 665.653 555.333 732.383 558.256 800.412C561.179 868.442 589.012 933.022 636.459 981.862C683.906 1030.7 747.653 1060.39 815.57 1065.28C883.486 1070.17 950.83 1049.92 1004.78 1008.38C1058.74 966.845 1095.54 906.919 1108.18 840.01C1120.82 773.101 1108.41 703.88 1073.33 645.522L835.5 788.5L985.301 554.906Z"/>
</mask>
<path d="M985.301 554.906C927.982 518.149 859.149 503.748 791.903 514.446C724.656 525.144 663.69 560.193 620.607 612.923C577.524 665.653 555.333 732.383 558.256 800.412C561.179 868.442 589.012 933.022 636.459 981.862C683.906 1030.7 747.653 1060.39 815.57 1065.28C883.486 1070.17 950.83 1049.92 1004.78 1008.38C1058.74 966.845 1095.54 906.919 1108.18 840.01C1120.82 773.101 1108.41 703.88 1073.33 645.522L835.5 788.5L985.301 554.906Z" stroke="#E5E5E5" stroke-width="6" mask="url(#path-3-inside-3)"/>
<line x1="115.5" y1="907" x2="115.5" y2="1507" stroke="#E5E5E5" stroke-width="3"/>
<line x1="600.973" y1="1293.87" x2="0.988873" y2="1289.5" stroke="#E5E5E5" stroke-width="3"/>
<path d="M47.1489 1426.13C50.7403 1402.99 54.943 1364.06 76.7334 1348.97C105.476 1329.07 127.053 1333.1 150.695 1361.37C160.757 1373.4 169.342 1392.49 183.877 1400.14C196.718 1406.9 203.512 1372.02 204.666 1364.96C212.574 1316.64 210.406 1255.44 241.447 1214.64C282.64 1160.5 320.9 1305.13 329.801 1325.78C336.696 1341.79 347.864 1369.79 367.381 1374.96C394.29 1382.08 401.081 1337.46 404.961 1320.99C419.268 1260.25 424.928 1198.23 438.543 1137.48C447.463 1097.69 459.295 1059.47 470.926 1020.34C472.321 1015.65 501.03 913.159 514.903 954.779" stroke="#EC2C2C" stroke-width="5" stroke-linecap="round" stroke-linejoin="round"/>
<rect x="638.5" y="1447.5" width="90" height="149" stroke="#E5E5E5"/>
<rect x="763.5" y="1365.5" width="90" height="231" stroke="#E5E5E5"/>
<rect x="888.5" y="1311.5" width="90" height="285" stroke="#E5E5E5"/>
<rect x="1013.5" y="1207.5" width="90" height="389" stroke="#E5E5E5"/>
<rect x="1138.5" y="1447.5" width="90" height="149" stroke="#E5E5E5"/>
<circle cx="808.5" cy="278.5" r="276" stroke="#E5E5E5" stroke-width="3"/>
<circle cx="809" cy="278" r="178.5" stroke="#E5E5E5" stroke-width="3"/>
<line x1="817.5" y1="97.9897" x2="819.5" y2="0.989694" stroke="#E5E5E5"/>
<line x1="943.729" y1="159.58" x2="1025.73" y2="106.58" stroke="#E5E5E5"/>
<line x1="659.705" y1="176.404" x2="581.705" y2="119.404" stroke="#E5E5E5"/>
<line x1="531.03" y1="244.501" x2="632.03" y2="250.501" stroke="#E5E5E5"/>
</svg>
