<svg width="865" height="1170" viewBox="0 0 865 1170" fill="none" xmlns="http://www.w3.org/2000/svg">
<rect x="1.5" y="1.5" width="862" height="1167" stroke="#C6C6C6" stroke-width="3"/>
<path d="M64.828 55.2706C59.7833 61.9296 48.3007 70.6906 46.1436 78.2404C43.6262 87.0512 48.2405 83.3462 55.5715 89.211C64.5832 96.4204 89.1379 100.079 61.7425 98.4675C54.759 98.0567 36.4137 83.4993 52.486 83.0401C68.9091 82.5708 85.4176 83.0401 101.854 83.0401" stroke="#C6C6C6" stroke-linecap="round" stroke-linejoin="round"/>
<rect x="75.5" y="272.5" width="404" height="459" stroke="#C6C6C6" stroke-width="3"/>
<rect x="569.5" y="272.5" width="228" height="166" stroke="#C6C6C6" stroke-width="3"/>
<rect x="634.5" y="83.5" width="163" height="128" stroke="#C6C6C6" stroke-width="3"/>
<path d="M660.836 159C660.68 158.688 660.553 158.131 660.455 157.33C659.195 158.639 657.691 159.293 655.943 159.293C654.381 159.293 653.097 158.854 652.091 157.975C651.095 157.086 650.597 155.963 650.597 154.605C650.597 152.955 651.222 151.676 652.472 150.768C653.731 149.85 655.499 149.391 657.774 149.391H660.411V148.146C660.411 147.198 660.128 146.446 659.562 145.89C658.995 145.323 658.16 145.04 657.057 145.04C656.09 145.04 655.279 145.284 654.625 145.772C653.971 146.261 653.644 146.852 653.644 147.545H650.919C650.919 146.754 651.197 145.992 651.754 145.26C652.32 144.518 653.082 143.932 654.039 143.502C655.006 143.072 656.065 142.857 657.218 142.857C659.044 142.857 660.475 143.316 661.51 144.234C662.545 145.143 663.082 146.397 663.121 147.999V155.294C663.121 156.749 663.307 157.906 663.678 158.766V159H660.836ZM656.339 156.935C657.188 156.935 657.994 156.715 658.756 156.275C659.518 155.836 660.069 155.265 660.411 154.562V151.31H658.287C654.967 151.31 653.307 152.281 653.307 154.225C653.307 155.074 653.59 155.738 654.156 156.217C654.723 156.695 655.45 156.935 656.339 156.935ZM666.71 150.943C666.71 148.512 667.286 146.559 668.438 145.084C669.591 143.6 671.1 142.857 672.965 142.857C674.82 142.857 676.29 143.492 677.374 144.762V136.5H680.084V159H677.594L677.462 157.301C676.378 158.629 674.869 159.293 672.936 159.293C671.1 159.293 669.601 158.541 668.438 157.037C667.286 155.533 666.71 153.57 666.71 151.148V150.943ZM669.42 151.251C669.42 153.048 669.791 154.454 670.533 155.47C671.275 156.485 672.301 156.993 673.609 156.993C675.328 156.993 676.583 156.222 677.374 154.679V147.398C676.563 145.904 675.318 145.157 673.639 145.157C672.311 145.157 671.275 145.67 670.533 146.695C669.791 147.721 669.42 149.239 669.42 151.251ZM683.644 150.943C683.644 148.512 684.22 146.559 685.372 145.084C686.524 143.6 688.033 142.857 689.898 142.857C691.754 142.857 693.224 143.492 694.308 144.762V136.5H697.018V159H694.527L694.396 157.301C693.312 158.629 691.803 159.293 689.869 159.293C688.033 159.293 686.534 158.541 685.372 157.037C684.22 155.533 683.644 153.57 683.644 151.148V150.943ZM686.354 151.251C686.354 153.048 686.725 154.454 687.467 155.47C688.209 156.485 689.234 156.993 690.543 156.993C692.262 156.993 693.517 156.222 694.308 154.679V147.398C693.497 145.904 692.252 145.157 690.572 145.157C689.244 145.157 688.209 145.67 687.467 146.695C686.725 147.721 686.354 149.239 686.354 151.251ZM712.354 139.312V143.15H715.313V145.245H712.354V155.074C712.354 155.709 712.486 156.188 712.75 156.51C713.014 156.822 713.463 156.979 714.098 156.979C714.41 156.979 714.84 156.92 715.387 156.803V159C714.674 159.195 713.98 159.293 713.307 159.293C712.096 159.293 711.183 158.927 710.567 158.194C709.952 157.462 709.645 156.422 709.645 155.074V145.245H706.759V143.15H709.645V139.312H712.354ZM717.481 150.929C717.481 149.376 717.784 147.979 718.39 146.739C719.005 145.499 719.854 144.542 720.938 143.868C722.032 143.194 723.277 142.857 724.674 142.857C726.832 142.857 728.575 143.604 729.903 145.099C731.241 146.593 731.91 148.58 731.91 151.061V151.251C731.91 152.794 731.612 154.181 731.017 155.411C730.431 156.632 729.586 157.584 728.482 158.268C727.389 158.951 726.129 159.293 724.703 159.293C722.555 159.293 720.812 158.546 719.474 157.052C718.146 155.558 717.481 153.58 717.481 151.119V150.929ZM720.206 151.251C720.206 153.009 720.611 154.42 721.422 155.484C722.242 156.549 723.336 157.081 724.703 157.081C726.08 157.081 727.174 156.544 727.984 155.47C728.795 154.386 729.2 152.872 729.2 150.929C729.2 149.19 728.785 147.784 727.955 146.71C727.135 145.626 726.041 145.084 724.674 145.084C723.336 145.084 722.257 145.616 721.437 146.681C720.616 147.745 720.206 149.269 720.206 151.251ZM744.083 159V145.245H741.578V143.15H744.083V141.524C744.083 139.825 744.537 138.512 745.445 137.584C746.354 136.656 747.638 136.192 749.298 136.192C749.923 136.192 750.543 136.275 751.158 136.441L751.012 138.639C750.553 138.551 750.064 138.507 749.547 138.507C748.668 138.507 747.989 138.766 747.511 139.283C747.032 139.791 746.793 140.523 746.793 141.48V143.15H750.177V145.245H746.793V159H744.083ZM762.965 159C762.809 158.688 762.682 158.131 762.584 157.33C761.324 158.639 759.82 159.293 758.072 159.293C756.51 159.293 755.226 158.854 754.22 157.975C753.224 157.086 752.726 155.963 752.726 154.605C752.726 152.955 753.351 151.676 754.601 150.768C755.86 149.85 757.628 149.391 759.903 149.391H762.54V148.146C762.54 147.198 762.257 146.446 761.69 145.89C761.124 145.323 760.289 145.04 759.186 145.04C758.219 145.04 757.408 145.284 756.754 145.772C756.1 146.261 755.772 146.852 755.772 147.545H753.048C753.048 146.754 753.326 145.992 753.883 145.26C754.449 144.518 755.211 143.932 756.168 143.502C757.135 143.072 758.194 142.857 759.347 142.857C761.173 142.857 762.604 143.316 763.639 144.234C764.674 145.143 765.211 146.397 765.25 147.999V155.294C765.25 156.749 765.436 157.906 765.807 158.766V159H762.965ZM758.468 156.935C759.317 156.935 760.123 156.715 760.885 156.275C761.646 155.836 762.198 155.265 762.54 154.562V151.31H760.416C757.096 151.31 755.436 152.281 755.436 154.225C755.436 155.074 755.719 155.738 756.285 156.217C756.852 156.695 757.579 156.935 758.468 156.935ZM774.493 155.323L778.419 143.15H781.188L775.504 159H773.438L767.696 143.15H770.465L774.493 155.323Z" fill="#C6C6C6"/>
<rect x="482.5" y="993.5" width="315" height="53" stroke="#C6C6C6" stroke-width="3"/>
<rect x="103.5" y="986.5" width="284" height="60" stroke="#C6C6C6" stroke-width="3"/>
<rect x="75.5" y="125.5" width="498" height="60" stroke="#C6C6C6" stroke-width="3"/>
<rect x="75.5" y="1073.5" width="722" height="60" stroke="#C6C6C6" stroke-width="3"/>
<rect x="1.5" y="874.5" width="862" height="294" stroke="#C6C6C6" stroke-width="3"/>
<rect x="561.5" y="468.5" width="228" height="124" stroke="#C6C6C6" stroke-width="3"/>
<rect x="576.5" y="607.5" width="228" height="144" stroke="#C6C6C6" stroke-width="3"/>
<line x1="74.3752" y1="270.669" x2="481.375" y2="732.669" stroke="#C6C6C6"/>
<line x1="481.375" y1="271.331" x2="74.3752" y2="733.331" stroke="#C6C6C6"/>
<rect x="87.5" y="794.5" width="65" height="60" stroke="#C6C6C6" stroke-width="3"/>
<line y1="-0.5" x2="92.6984" y2="-0.5" transform="matrix(0.733561 0.679623 -0.811914 0.583777 86 793)" stroke="#C6C6C6"/>
<line y1="-0.5" x2="92.6984" y2="-0.5" transform="matrix(-0.733561 0.679623 -0.811914 -0.583777 154 793)" stroke="#C6C6C6"/>
<path d="M180.384 1037V1023.25H177.879V1021.15H180.384V1019.52C180.384 1017.83 180.838 1016.51 181.746 1015.58C182.654 1014.66 183.938 1014.19 185.599 1014.19C186.224 1014.19 186.844 1014.28 187.459 1014.44L187.312 1016.64C186.854 1016.55 186.365 1016.51 185.848 1016.51C184.969 1016.51 184.29 1016.77 183.812 1017.28C183.333 1017.79 183.094 1018.52 183.094 1019.48V1021.15H186.478V1023.25H183.094V1037H180.384ZM197.142 1023.58C196.731 1023.51 196.287 1023.48 195.809 1023.48C194.031 1023.48 192.825 1024.24 192.19 1025.75V1037H189.48V1021.15H192.117L192.161 1022.98C193.05 1021.57 194.31 1020.86 195.94 1020.86C196.468 1020.86 196.868 1020.93 197.142 1021.06V1023.58ZM198.636 1028.93C198.636 1027.38 198.938 1025.98 199.544 1024.74C200.159 1023.5 201.009 1022.54 202.093 1021.87C203.187 1021.19 204.432 1020.86 205.828 1020.86C207.986 1020.86 209.729 1021.6 211.058 1023.1C212.396 1024.59 213.064 1026.58 213.064 1029.06V1029.25C213.064 1030.79 212.767 1032.18 212.171 1033.41C211.585 1034.63 210.74 1035.58 209.637 1036.27C208.543 1036.95 207.283 1037.29 205.857 1037.29C203.709 1037.29 201.966 1036.55 200.628 1035.05C199.3 1033.56 198.636 1031.58 198.636 1029.12V1028.93ZM201.36 1029.25C201.36 1031.01 201.766 1032.42 202.576 1033.48C203.396 1034.55 204.49 1035.08 205.857 1035.08C207.234 1035.08 208.328 1034.54 209.139 1033.47C209.949 1032.39 210.354 1030.87 210.354 1028.93C210.354 1027.19 209.939 1025.78 209.109 1024.71C208.289 1023.63 207.195 1023.08 205.828 1023.08C204.49 1023.08 203.411 1023.62 202.591 1024.68C201.771 1025.75 201.36 1027.27 201.36 1029.25ZM219.012 1021.15L219.085 1022.91C220.247 1021.54 221.814 1020.86 223.787 1020.86C226.004 1020.86 227.513 1021.71 228.313 1023.41C228.841 1022.64 229.524 1022.03 230.364 1021.56C231.214 1021.09 232.215 1020.86 233.367 1020.86C236.844 1020.86 238.611 1022.7 238.67 1026.38V1037H235.96V1026.54C235.96 1025.41 235.701 1024.56 235.184 1024.01C234.666 1023.44 233.797 1023.16 232.576 1023.16C231.57 1023.16 230.735 1023.46 230.071 1024.07C229.407 1024.66 229.021 1025.47 228.914 1026.48V1037H226.189V1026.61C226.189 1024.31 225.062 1023.16 222.806 1023.16C221.028 1023.16 219.812 1023.91 219.158 1025.43V1037H216.448V1021.15H219.012ZM249.554 1028.94C249.554 1026.51 250.13 1024.56 251.282 1023.08C252.435 1021.6 253.943 1020.86 255.809 1020.86C257.664 1020.86 259.134 1021.49 260.218 1022.76V1014.5H262.928V1037H260.438L260.306 1035.3C259.222 1036.63 257.713 1037.29 255.779 1037.29C253.943 1037.29 252.444 1036.54 251.282 1035.04C250.13 1033.53 249.554 1031.57 249.554 1029.15V1028.94ZM252.264 1029.25C252.264 1031.05 252.635 1032.45 253.377 1033.47C254.119 1034.49 255.145 1034.99 256.453 1034.99C258.172 1034.99 259.427 1034.22 260.218 1032.68V1025.4C259.407 1023.9 258.162 1023.16 256.482 1023.16C255.154 1023.16 254.119 1023.67 253.377 1024.7C252.635 1025.72 252.264 1027.24 252.264 1029.25ZM276.932 1037C276.775 1036.69 276.648 1036.13 276.551 1035.33C275.291 1036.64 273.787 1037.29 272.039 1037.29C270.477 1037.29 269.192 1036.85 268.187 1035.97C267.19 1035.09 266.692 1033.96 266.692 1032.61C266.692 1030.96 267.317 1029.68 268.567 1028.77C269.827 1027.85 271.595 1027.39 273.87 1027.39H276.507V1026.15C276.507 1025.2 276.224 1024.45 275.657 1023.89C275.091 1023.32 274.256 1023.04 273.152 1023.04C272.186 1023.04 271.375 1023.28 270.721 1023.77C270.066 1024.26 269.739 1024.85 269.739 1025.54H267.015C267.015 1024.75 267.293 1023.99 267.85 1023.26C268.416 1022.52 269.178 1021.93 270.135 1021.5C271.102 1021.07 272.161 1020.86 273.313 1020.86C275.14 1020.86 276.57 1021.32 277.605 1022.23C278.641 1023.14 279.178 1024.4 279.217 1026V1033.29C279.217 1034.75 279.402 1035.91 279.773 1036.77V1037H276.932ZM272.435 1034.93C273.284 1034.93 274.09 1034.71 274.852 1034.28C275.613 1033.84 276.165 1033.26 276.507 1032.56V1029.31H274.383C271.062 1029.31 269.402 1030.28 269.402 1032.22C269.402 1033.07 269.686 1033.74 270.252 1034.22C270.818 1034.7 271.546 1034.93 272.435 1034.93ZM287.142 1017.31V1021.15H290.101V1023.25H287.142V1033.07C287.142 1033.71 287.273 1034.19 287.537 1034.51C287.801 1034.82 288.25 1034.98 288.885 1034.98C289.197 1034.98 289.627 1034.92 290.174 1034.8V1037C289.461 1037.2 288.768 1037.29 288.094 1037.29C286.883 1037.29 285.97 1036.93 285.354 1036.19C284.739 1035.46 284.432 1034.42 284.432 1033.07V1023.25H281.546V1021.15H284.432V1017.31H287.142ZM299.856 1037.29C297.708 1037.29 295.96 1036.59 294.612 1035.18C293.265 1033.77 292.591 1031.88 292.591 1029.51V1029.02C292.591 1027.44 292.889 1026.04 293.484 1024.81C294.09 1023.57 294.93 1022.61 296.004 1021.91C297.088 1021.21 298.26 1020.86 299.52 1020.86C301.58 1020.86 303.182 1021.54 304.324 1022.89C305.467 1024.25 306.038 1026.19 306.038 1028.72V1029.85H295.301C295.34 1031.41 295.794 1032.68 296.663 1033.65C297.542 1034.6 298.655 1035.08 300.003 1035.08C300.96 1035.08 301.771 1034.89 302.435 1034.5C303.099 1034.1 303.68 1033.59 304.178 1032.94L305.833 1034.23C304.505 1036.27 302.513 1037.29 299.856 1037.29ZM299.52 1023.08C298.426 1023.08 297.508 1023.48 296.766 1024.29C296.023 1025.08 295.564 1026.19 295.389 1027.62H303.328V1027.42C303.25 1026.04 302.879 1024.98 302.215 1024.23C301.551 1023.46 300.652 1023.08 299.52 1023.08Z" fill="#C6C6C6"/>
<path d="M536.728 1012.31V1016.15H539.687V1018.25H536.728V1028.07C536.728 1028.71 536.859 1029.19 537.123 1029.51C537.387 1029.82 537.836 1029.98 538.471 1029.98C538.783 1029.98 539.213 1029.92 539.76 1029.8V1032C539.047 1032.2 538.354 1032.29 537.68 1032.29C536.469 1032.29 535.556 1031.93 534.94 1031.19C534.325 1030.46 534.018 1029.42 534.018 1028.07V1018.25H531.132V1016.15H534.018V1012.31H536.728ZM541.854 1023.93C541.854 1022.38 542.157 1020.98 542.763 1019.74C543.378 1018.5 544.228 1017.54 545.312 1016.87C546.405 1016.19 547.65 1015.86 549.047 1015.86C551.205 1015.86 552.948 1016.6 554.276 1018.1C555.614 1019.59 556.283 1021.58 556.283 1024.06V1024.25C556.283 1025.79 555.985 1027.18 555.39 1028.41C554.804 1029.63 553.959 1030.58 552.855 1031.27C551.762 1031.95 550.502 1032.29 549.076 1032.29C546.928 1032.29 545.185 1031.55 543.847 1030.05C542.519 1028.56 541.854 1026.58 541.854 1024.12V1023.93ZM544.579 1024.25C544.579 1026.01 544.984 1027.42 545.795 1028.48C546.615 1029.55 547.709 1030.08 549.076 1030.08C550.453 1030.08 551.547 1029.54 552.357 1028.47C553.168 1027.39 553.573 1025.87 553.573 1023.93C553.573 1022.19 553.158 1020.78 552.328 1019.71C551.508 1018.63 550.414 1018.08 549.047 1018.08C547.709 1018.08 546.63 1018.62 545.81 1019.68C544.989 1020.75 544.579 1022.27 544.579 1024.25ZM566.464 1023.94C566.464 1021.51 567.04 1019.56 568.192 1018.08C569.345 1016.6 570.854 1015.86 572.719 1015.86C574.574 1015.86 576.044 1016.49 577.128 1017.76V1009.5H579.838V1032H577.348L577.216 1030.3C576.132 1031.63 574.623 1032.29 572.689 1032.29C570.854 1032.29 569.354 1031.54 568.192 1030.04C567.04 1028.53 566.464 1026.57 566.464 1024.15V1023.94ZM569.174 1024.25C569.174 1026.05 569.545 1027.45 570.287 1028.47C571.029 1029.49 572.055 1029.99 573.363 1029.99C575.082 1029.99 576.337 1029.22 577.128 1027.68V1020.4C576.317 1018.9 575.072 1018.16 573.393 1018.16C572.064 1018.16 571.029 1018.67 570.287 1019.7C569.545 1020.72 569.174 1022.24 569.174 1024.25ZM593.842 1032C593.686 1031.69 593.559 1031.13 593.461 1030.33C592.201 1031.64 590.697 1032.29 588.949 1032.29C587.387 1032.29 586.103 1031.85 585.097 1030.97C584.101 1030.09 583.603 1028.96 583.603 1027.61C583.603 1025.96 584.228 1024.68 585.478 1023.77C586.737 1022.85 588.505 1022.39 590.78 1022.39H593.417V1021.15C593.417 1020.2 593.134 1019.45 592.567 1018.89C592.001 1018.32 591.166 1018.04 590.062 1018.04C589.096 1018.04 588.285 1018.28 587.631 1018.77C586.977 1019.26 586.649 1019.85 586.649 1020.54H583.925C583.925 1019.75 584.203 1018.99 584.76 1018.26C585.326 1017.52 586.088 1016.93 587.045 1016.5C588.012 1016.07 589.071 1015.86 590.224 1015.86C592.05 1015.86 593.48 1016.32 594.516 1017.23C595.551 1018.14 596.088 1019.4 596.127 1021V1028.29C596.127 1029.75 596.312 1030.91 596.684 1031.77V1032H593.842ZM589.345 1029.93C590.194 1029.93 591 1029.71 591.762 1029.28C592.523 1028.84 593.075 1028.26 593.417 1027.56V1024.31H591.293C587.973 1024.31 586.312 1025.28 586.312 1027.22C586.312 1028.07 586.596 1028.74 587.162 1029.22C587.729 1029.7 588.456 1029.93 589.345 1029.93ZM604.052 1012.31V1016.15H607.011V1018.25H604.052V1028.07C604.052 1028.71 604.184 1029.19 604.447 1029.51C604.711 1029.82 605.16 1029.98 605.795 1029.98C606.107 1029.98 606.537 1029.92 607.084 1029.8V1032C606.371 1032.2 605.678 1032.29 605.004 1032.29C603.793 1032.29 602.88 1031.93 602.265 1031.19C601.649 1030.46 601.342 1029.42 601.342 1028.07V1018.25H598.456V1016.15H601.342V1012.31H604.052ZM616.767 1032.29C614.618 1032.29 612.87 1031.59 611.522 1030.18C610.175 1028.77 609.501 1026.88 609.501 1024.51V1024.02C609.501 1022.44 609.799 1021.04 610.395 1019.81C611 1018.57 611.84 1017.61 612.914 1016.91C613.998 1016.21 615.17 1015.86 616.43 1015.86C618.49 1015.86 620.092 1016.54 621.234 1017.89C622.377 1019.25 622.948 1021.19 622.948 1023.72V1024.85H612.211C612.25 1026.41 612.704 1027.68 613.573 1028.65C614.452 1029.6 615.565 1030.08 616.913 1030.08C617.87 1030.08 618.681 1029.89 619.345 1029.5C620.009 1029.1 620.59 1028.59 621.088 1027.94L622.743 1029.23C621.415 1031.27 619.423 1032.29 616.767 1032.29ZM616.43 1018.08C615.336 1018.08 614.418 1018.48 613.676 1019.29C612.934 1020.08 612.475 1021.19 612.299 1022.62H620.238V1022.42C620.16 1021.04 619.789 1019.98 619.125 1019.23C618.461 1018.46 617.562 1018.08 616.43 1018.08Z" fill="#C6C6C6"/>
<path d="M536.728 1012.31V1016.15H539.687V1018.25H536.728V1028.07C536.728 1028.71 536.859 1029.19 537.123 1029.51C537.387 1029.82 537.836 1029.98 538.471 1029.98C538.783 1029.98 539.213 1029.92 539.76 1029.8V1032C539.047 1032.2 538.354 1032.29 537.68 1032.29C536.469 1032.29 535.556 1031.93 534.94 1031.19C534.325 1030.46 534.018 1029.42 534.018 1028.07V1018.25H531.132V1016.15H534.018V1012.31H536.728ZM541.854 1023.93C541.854 1022.38 542.157 1020.98 542.763 1019.74C543.378 1018.5 544.228 1017.54 545.312 1016.87C546.405 1016.19 547.65 1015.86 549.047 1015.86C551.205 1015.86 552.948 1016.6 554.276 1018.1C555.614 1019.59 556.283 1021.58 556.283 1024.06V1024.25C556.283 1025.79 555.985 1027.18 555.39 1028.41C554.804 1029.63 553.959 1030.58 552.855 1031.27C551.762 1031.95 550.502 1032.29 549.076 1032.29C546.928 1032.29 545.185 1031.55 543.847 1030.05C542.519 1028.56 541.854 1026.58 541.854 1024.12V1023.93ZM544.579 1024.25C544.579 1026.01 544.984 1027.42 545.795 1028.48C546.615 1029.55 547.709 1030.08 549.076 1030.08C550.453 1030.08 551.547 1029.54 552.357 1028.47C553.168 1027.39 553.573 1025.87 553.573 1023.93C553.573 1022.19 553.158 1020.78 552.328 1019.71C551.508 1018.63 550.414 1018.08 549.047 1018.08C547.709 1018.08 546.63 1018.62 545.81 1019.68C544.989 1020.75 544.579 1022.27 544.579 1024.25ZM566.464 1023.94C566.464 1021.51 567.04 1019.56 568.192 1018.08C569.345 1016.6 570.854 1015.86 572.719 1015.86C574.574 1015.86 576.044 1016.49 577.128 1017.76V1009.5H579.838V1032H577.348L577.216 1030.3C576.132 1031.63 574.623 1032.29 572.689 1032.29C570.854 1032.29 569.354 1031.54 568.192 1030.04C567.04 1028.53 566.464 1026.57 566.464 1024.15V1023.94ZM569.174 1024.25C569.174 1026.05 569.545 1027.45 570.287 1028.47C571.029 1029.49 572.055 1029.99 573.363 1029.99C575.082 1029.99 576.337 1029.22 577.128 1027.68V1020.4C576.317 1018.9 575.072 1018.16 573.393 1018.16C572.064 1018.16 571.029 1018.67 570.287 1019.7C569.545 1020.72 569.174 1022.24 569.174 1024.25ZM593.842 1032C593.686 1031.69 593.559 1031.13 593.461 1030.33C592.201 1031.64 590.697 1032.29 588.949 1032.29C587.387 1032.29 586.103 1031.85 585.097 1030.97C584.101 1030.09 583.603 1028.96 583.603 1027.61C583.603 1025.96 584.228 1024.68 585.478 1023.77C586.737 1022.85 588.505 1022.39 590.78 1022.39H593.417V1021.15C593.417 1020.2 593.134 1019.45 592.567 1018.89C592.001 1018.32 591.166 1018.04 590.062 1018.04C589.096 1018.04 588.285 1018.28 587.631 1018.77C586.977 1019.26 586.649 1019.85 586.649 1020.54H583.925C583.925 1019.75 584.203 1018.99 584.76 1018.26C585.326 1017.52 586.088 1016.93 587.045 1016.5C588.012 1016.07 589.071 1015.86 590.224 1015.86C592.05 1015.86 593.48 1016.32 594.516 1017.23C595.551 1018.14 596.088 1019.4 596.127 1021V1028.29C596.127 1029.75 596.312 1030.91 596.684 1031.77V1032H593.842ZM589.345 1029.93C590.194 1029.93 591 1029.71 591.762 1029.28C592.523 1028.84 593.075 1028.26 593.417 1027.56V1024.31H591.293C587.973 1024.31 586.312 1025.28 586.312 1027.22C586.312 1028.07 586.596 1028.74 587.162 1029.22C587.729 1029.7 588.456 1029.93 589.345 1029.93ZM604.052 1012.31V1016.15H607.011V1018.25H604.052V1028.07C604.052 1028.71 604.184 1029.19 604.447 1029.51C604.711 1029.82 605.16 1029.98 605.795 1029.98C606.107 1029.98 606.537 1029.92 607.084 1029.8V1032C606.371 1032.2 605.678 1032.29 605.004 1032.29C603.793 1032.29 602.88 1031.93 602.265 1031.19C601.649 1030.46 601.342 1029.42 601.342 1028.07V1018.25H598.456V1016.15H601.342V1012.31H604.052ZM616.767 1032.29C614.618 1032.29 612.87 1031.59 611.522 1030.18C610.175 1028.77 609.501 1026.88 609.501 1024.51V1024.02C609.501 1022.44 609.799 1021.04 610.395 1019.81C611 1018.57 611.84 1017.61 612.914 1016.91C613.998 1016.21 615.17 1015.86 616.43 1015.86C618.49 1015.86 620.092 1016.54 621.234 1017.89C622.377 1019.25 622.948 1021.19 622.948 1023.72V1024.85H612.211C612.25 1026.41 612.704 1027.68 613.573 1028.65C614.452 1029.6 615.565 1030.08 616.913 1030.08C617.87 1030.08 618.681 1029.89 619.345 1029.5C620.009 1029.1 620.59 1028.59 621.088 1027.94L622.743 1029.23C621.415 1031.27 619.423 1032.29 616.767 1032.29ZM616.43 1018.08C615.336 1018.08 614.418 1018.48 613.676 1019.29C612.934 1020.08 612.475 1021.19 612.299 1022.62H620.238V1022.42C620.16 1021.04 619.789 1019.98 619.125 1019.23C618.461 1018.46 617.562 1018.08 616.43 1018.08Z" fill="#C6C6C6"/>
<path d="M536.728 1012.31V1016.15H539.687V1018.25H536.728V1028.07C536.728 1028.71 536.859 1029.19 537.123 1029.51C537.387 1029.82 537.836 1029.98 538.471 1029.98C538.783 1029.98 539.213 1029.92 539.76 1029.8V1032C539.047 1032.2 538.354 1032.29 537.68 1032.29C536.469 1032.29 535.556 1031.93 534.94 1031.19C534.325 1030.46 534.018 1029.42 534.018 1028.07V1018.25H531.132V1016.15H534.018V1012.31H536.728ZM541.854 1023.93C541.854 1022.38 542.157 1020.98 542.763 1019.74C543.378 1018.5 544.228 1017.54 545.312 1016.87C546.405 1016.19 547.65 1015.86 549.047 1015.86C551.205 1015.86 552.948 1016.6 554.276 1018.1C555.614 1019.59 556.283 1021.58 556.283 1024.06V1024.25C556.283 1025.79 555.985 1027.18 555.39 1028.41C554.804 1029.63 553.959 1030.58 552.855 1031.27C551.762 1031.95 550.502 1032.29 549.076 1032.29C546.928 1032.29 545.185 1031.55 543.847 1030.05C542.519 1028.56 541.854 1026.58 541.854 1024.12V1023.93ZM544.579 1024.25C544.579 1026.01 544.984 1027.42 545.795 1028.48C546.615 1029.55 547.709 1030.08 549.076 1030.08C550.453 1030.08 551.547 1029.54 552.357 1028.47C553.168 1027.39 553.573 1025.87 553.573 1023.93C553.573 1022.19 553.158 1020.78 552.328 1019.71C551.508 1018.63 550.414 1018.08 549.047 1018.08C547.709 1018.08 546.63 1018.62 545.81 1019.68C544.989 1020.75 544.579 1022.27 544.579 1024.25ZM566.464 1023.94C566.464 1021.51 567.04 1019.56 568.192 1018.08C569.345 1016.6 570.854 1015.86 572.719 1015.86C574.574 1015.86 576.044 1016.49 577.128 1017.76V1009.5H579.838V1032H577.348L577.216 1030.3C576.132 1031.63 574.623 1032.29 572.689 1032.29C570.854 1032.29 569.354 1031.54 568.192 1030.04C567.04 1028.53 566.464 1026.57 566.464 1024.15V1023.94ZM569.174 1024.25C569.174 1026.05 569.545 1027.45 570.287 1028.47C571.029 1029.49 572.055 1029.99 573.363 1029.99C575.082 1029.99 576.337 1029.22 577.128 1027.68V1020.4C576.317 1018.9 575.072 1018.16 573.393 1018.16C572.064 1018.16 571.029 1018.67 570.287 1019.7C569.545 1020.72 569.174 1022.24 569.174 1024.25ZM593.842 1032C593.686 1031.69 593.559 1031.13 593.461 1030.33C592.201 1031.64 590.697 1032.29 588.949 1032.29C587.387 1032.29 586.103 1031.85 585.097 1030.97C584.101 1030.09 583.603 1028.96 583.603 1027.61C583.603 1025.96 584.228 1024.68 585.478 1023.77C586.737 1022.85 588.505 1022.39 590.78 1022.39H593.417V1021.15C593.417 1020.2 593.134 1019.45 592.567 1018.89C592.001 1018.32 591.166 1018.04 590.062 1018.04C589.096 1018.04 588.285 1018.28 587.631 1018.77C586.977 1019.26 586.649 1019.85 586.649 1020.54H583.925C583.925 1019.75 584.203 1018.99 584.76 1018.26C585.326 1017.52 586.088 1016.93 587.045 1016.5C588.012 1016.07 589.071 1015.86 590.224 1015.86C592.05 1015.86 593.48 1016.32 594.516 1017.23C595.551 1018.14 596.088 1019.4 596.127 1021V1028.29C596.127 1029.75 596.312 1030.91 596.684 1031.77V1032H593.842ZM589.345 1029.93C590.194 1029.93 591 1029.71 591.762 1029.28C592.523 1028.84 593.075 1028.26 593.417 1027.56V1024.31H591.293C587.973 1024.31 586.312 1025.28 586.312 1027.22C586.312 1028.07 586.596 1028.74 587.162 1029.22C587.729 1029.7 588.456 1029.93 589.345 1029.93ZM604.052 1012.31V1016.15H607.011V1018.25H604.052V1028.07C604.052 1028.71 604.184 1029.19 604.447 1029.51C604.711 1029.82 605.16 1029.98 605.795 1029.98C606.107 1029.98 606.537 1029.92 607.084 1029.8V1032C606.371 1032.2 605.678 1032.29 605.004 1032.29C603.793 1032.29 602.88 1031.93 602.265 1031.19C601.649 1030.46 601.342 1029.42 601.342 1028.07V1018.25H598.456V1016.15H601.342V1012.31H604.052ZM616.767 1032.29C614.618 1032.29 612.87 1031.59 611.522 1030.18C610.175 1028.77 609.501 1026.88 609.501 1024.51V1024.02C609.501 1022.44 609.799 1021.04 610.395 1019.81C611 1018.57 611.84 1017.61 612.914 1016.91C613.998 1016.21 615.17 1015.86 616.43 1015.86C618.49 1015.86 620.092 1016.54 621.234 1017.89C622.377 1019.25 622.948 1021.19 622.948 1023.72V1024.85H612.211C612.25 1026.41 612.704 1027.68 613.573 1028.65C614.452 1029.6 615.565 1030.08 616.913 1030.08C617.87 1030.08 618.681 1029.89 619.345 1029.5C620.009 1029.1 620.59 1028.59 621.088 1027.94L622.743 1029.23C621.415 1031.27 619.423 1032.29 616.767 1032.29ZM616.43 1018.08C615.336 1018.08 614.418 1018.48 613.676 1019.29C612.934 1020.08 612.475 1021.19 612.299 1022.62H620.238V1022.42C620.16 1021.04 619.789 1019.98 619.125 1019.23C618.461 1018.46 617.562 1018.08 616.43 1018.08Z" fill="#C6C6C6"/>
<path d="M187.279 767.796C187.279 767.063 187.001 766.497 186.444 766.097C185.897 765.687 184.936 765.335 183.559 765.042C182.191 764.749 181.103 764.397 180.292 763.987C179.491 763.577 178.896 763.089 178.505 762.522C178.124 761.956 177.934 761.282 177.934 760.501C177.934 759.202 178.48 758.104 179.574 757.205C180.678 756.307 182.084 755.857 183.793 755.857C185.59 755.857 187.045 756.321 188.158 757.249C189.281 758.177 189.843 759.363 189.843 760.809H187.118C187.118 760.066 186.801 759.427 186.166 758.89C185.541 758.353 184.75 758.084 183.793 758.084C182.807 758.084 182.035 758.299 181.479 758.729C180.922 759.158 180.644 759.72 180.644 760.413C180.644 761.067 180.902 761.561 181.42 761.893C181.938 762.225 182.87 762.542 184.218 762.845C185.575 763.147 186.674 763.509 187.514 763.929C188.354 764.349 188.974 764.856 189.374 765.452C189.784 766.038 189.989 766.756 189.989 767.605C189.989 769.021 189.423 770.159 188.29 771.019C187.157 771.868 185.688 772.293 183.881 772.293C182.611 772.293 181.488 772.068 180.512 771.619C179.535 771.17 178.769 770.545 178.212 769.744C177.665 768.934 177.392 768.06 177.392 767.122H180.102C180.15 768.03 180.512 768.753 181.186 769.29C181.869 769.817 182.768 770.081 183.881 770.081C184.906 770.081 185.727 769.876 186.342 769.466C186.967 769.046 187.279 768.489 187.279 767.796ZM196.464 772H193.754V749.5H196.464V772ZM203.759 772H201.049V756.15H203.759V772ZM200.829 751.946C200.829 751.507 200.961 751.136 201.225 750.833C201.498 750.53 201.898 750.379 202.426 750.379C202.953 750.379 203.354 750.53 203.627 750.833C203.9 751.136 204.037 751.507 204.037 751.946C204.037 752.386 203.9 752.752 203.627 753.045C203.354 753.338 202.953 753.484 202.426 753.484C201.898 753.484 201.498 753.338 201.225 753.045C200.961 752.752 200.829 752.386 200.829 751.946ZM207.45 763.943C207.45 761.512 208.026 759.559 209.179 758.084C210.331 756.6 211.84 755.857 213.705 755.857C215.561 755.857 217.03 756.492 218.114 757.762V749.5H220.824V772H218.334L218.202 770.301C217.118 771.629 215.609 772.293 213.676 772.293C211.84 772.293 210.341 771.541 209.179 770.037C208.026 768.533 207.45 766.57 207.45 764.148V763.943ZM210.16 764.251C210.16 766.048 210.531 767.454 211.273 768.47C212.016 769.485 213.041 769.993 214.35 769.993C216.068 769.993 217.323 769.222 218.114 767.679V760.398C217.304 758.904 216.059 758.157 214.379 758.157C213.051 758.157 212.016 758.67 211.273 759.695C210.531 760.721 210.16 762.239 210.16 764.251ZM231.62 772.293C229.472 772.293 227.724 771.59 226.376 770.184C225.028 768.768 224.354 766.878 224.354 764.515V764.017C224.354 762.444 224.652 761.043 225.248 759.812C225.854 758.572 226.693 757.605 227.768 756.912C228.852 756.209 230.023 755.857 231.283 755.857C233.344 755.857 234.945 756.536 236.088 757.894C237.23 759.251 237.802 761.194 237.802 763.724V764.852H227.064C227.104 766.414 227.558 767.679 228.427 768.646C229.306 769.603 230.419 770.081 231.767 770.081C232.724 770.081 233.534 769.886 234.198 769.495C234.862 769.104 235.443 768.587 235.941 767.942L237.597 769.231C236.269 771.272 234.276 772.293 231.62 772.293ZM231.283 758.084C230.189 758.084 229.271 758.484 228.529 759.285C227.787 760.076 227.328 761.189 227.152 762.625H235.092V762.42C235.014 761.043 234.643 759.979 233.979 759.227C233.314 758.465 232.416 758.084 231.283 758.084ZM250.941 756.15L251.015 757.908C252.177 756.541 253.744 755.857 255.717 755.857C257.934 755.857 259.442 756.707 260.243 758.406C260.771 757.645 261.454 757.029 262.294 756.561C263.144 756.092 264.145 755.857 265.297 755.857C268.773 755.857 270.541 757.698 270.6 761.38V772H267.89V761.541C267.89 760.408 267.631 759.563 267.113 759.007C266.596 758.44 265.727 758.157 264.506 758.157C263.5 758.157 262.665 758.46 262.001 759.065C261.337 759.661 260.951 760.467 260.844 761.482V772H258.119V761.614C258.119 759.31 256.991 758.157 254.735 758.157C252.958 758.157 251.742 758.914 251.088 760.428V772H248.378V756.15H250.941ZM273.983 763.929C273.983 762.376 274.286 760.979 274.892 759.739C275.507 758.499 276.356 757.542 277.44 756.868C278.534 756.194 279.779 755.857 281.176 755.857C283.334 755.857 285.077 756.604 286.405 758.099C287.743 759.593 288.412 761.58 288.412 764.061V764.251C288.412 765.794 288.114 767.181 287.519 768.411C286.933 769.632 286.088 770.584 284.984 771.268C283.891 771.951 282.631 772.293 281.205 772.293C279.057 772.293 277.313 771.546 275.976 770.052C274.647 768.558 273.983 766.58 273.983 764.119V763.929ZM276.708 764.251C276.708 766.009 277.113 767.42 277.924 768.484C278.744 769.549 279.838 770.081 281.205 770.081C282.582 770.081 283.676 769.544 284.486 768.47C285.297 767.386 285.702 765.872 285.702 763.929C285.702 762.19 285.287 760.784 284.457 759.71C283.637 758.626 282.543 758.084 281.176 758.084C279.838 758.084 278.759 758.616 277.938 759.681C277.118 760.745 276.708 762.269 276.708 764.251ZM299.472 758.582C299.062 758.514 298.617 758.479 298.139 758.479C296.361 758.479 295.155 759.236 294.521 760.75V772H291.811V756.15H294.447L294.491 757.981C295.38 756.565 296.64 755.857 298.271 755.857C298.798 755.857 299.198 755.926 299.472 756.062V758.582ZM308.261 772.293C306.112 772.293 304.364 771.59 303.017 770.184C301.669 768.768 300.995 766.878 300.995 764.515V764.017C300.995 762.444 301.293 761.043 301.889 759.812C302.494 758.572 303.334 757.605 304.408 756.912C305.492 756.209 306.664 755.857 307.924 755.857C309.984 755.857 311.586 756.536 312.729 757.894C313.871 759.251 314.442 761.194 314.442 763.724V764.852H303.705C303.744 766.414 304.198 767.679 305.067 768.646C305.946 769.603 307.06 770.081 308.407 770.081C309.364 770.081 310.175 769.886 310.839 769.495C311.503 769.104 312.084 768.587 312.582 767.942L314.237 769.231C312.909 771.272 310.917 772.293 308.261 772.293ZM307.924 758.084C306.83 758.084 305.912 758.484 305.17 759.285C304.428 760.076 303.969 761.189 303.793 762.625H311.732V762.42C311.654 761.043 311.283 759.979 310.619 759.227C309.955 758.465 309.057 758.084 307.924 758.084ZM338.422 764.251C338.422 766.663 337.87 768.606 336.767 770.081C335.663 771.556 334.169 772.293 332.284 772.293C330.36 772.293 328.847 771.683 327.743 770.462V778.094H325.033V756.15H327.509L327.641 757.908C328.744 756.541 330.277 755.857 332.24 755.857C334.145 755.857 335.648 756.575 336.752 758.011C337.865 759.446 338.422 761.443 338.422 764.002V764.251ZM335.712 763.943C335.712 762.156 335.331 760.745 334.569 759.71C333.808 758.675 332.763 758.157 331.435 758.157C329.794 758.157 328.563 758.885 327.743 760.34V767.913C328.554 769.358 329.794 770.081 331.464 770.081C332.763 770.081 333.793 769.568 334.555 768.543C335.326 767.508 335.712 765.975 335.712 763.943ZM344.823 772H342.113V756.15H344.823V772ZM341.894 751.946C341.894 751.507 342.025 751.136 342.289 750.833C342.562 750.53 342.963 750.379 343.49 750.379C344.018 750.379 344.418 750.53 344.691 750.833C344.965 751.136 345.102 751.507 345.102 751.946C345.102 752.386 344.965 752.752 344.691 753.045C344.418 753.338 344.018 753.484 343.49 753.484C342.963 753.484 342.562 753.338 342.289 753.045C342.025 752.752 341.894 752.386 341.894 751.946ZM355.531 770.081C356.498 770.081 357.343 769.788 358.065 769.202C358.788 768.616 359.188 767.884 359.267 767.005H361.83C361.781 767.913 361.469 768.777 360.893 769.598C360.316 770.418 359.545 771.072 358.578 771.561C357.621 772.049 356.605 772.293 355.531 772.293C353.373 772.293 351.654 771.575 350.375 770.14C349.105 768.694 348.471 766.722 348.471 764.222V763.768C348.471 762.225 348.754 760.853 349.32 759.651C349.887 758.45 350.697 757.518 351.752 756.854C352.816 756.189 354.071 755.857 355.517 755.857C357.294 755.857 358.769 756.39 359.94 757.454C361.122 758.519 361.752 759.9 361.83 761.6H359.267C359.188 760.574 358.798 759.734 358.095 759.08C357.401 758.416 356.542 758.084 355.517 758.084C354.14 758.084 353.07 758.582 352.309 759.578C351.557 760.564 351.181 761.995 351.181 763.87V764.383C351.181 766.209 351.557 767.615 352.309 768.602C353.061 769.588 354.135 770.081 355.531 770.081ZM374.105 767.796C374.105 767.063 373.827 766.497 373.271 766.097C372.724 765.687 371.762 765.335 370.385 765.042C369.018 764.749 367.929 764.397 367.118 763.987C366.317 763.577 365.722 763.089 365.331 762.522C364.95 761.956 364.76 761.282 364.76 760.501C364.76 759.202 365.307 758.104 366.4 757.205C367.504 756.307 368.91 755.857 370.619 755.857C372.416 755.857 373.871 756.321 374.984 757.249C376.107 758.177 376.669 759.363 376.669 760.809H373.944C373.944 760.066 373.627 759.427 372.992 758.89C372.367 758.353 371.576 758.084 370.619 758.084C369.633 758.084 368.861 758.299 368.305 758.729C367.748 759.158 367.47 759.72 367.47 760.413C367.47 761.067 367.729 761.561 368.246 761.893C368.764 762.225 369.696 762.542 371.044 762.845C372.401 763.147 373.5 763.509 374.34 763.929C375.18 764.349 375.8 764.856 376.2 765.452C376.61 766.038 376.815 766.756 376.815 767.605C376.815 769.021 376.249 770.159 375.116 771.019C373.983 771.868 372.514 772.293 370.707 772.293C369.438 772.293 368.314 772.068 367.338 771.619C366.361 771.17 365.595 770.545 365.038 769.744C364.491 768.934 364.218 768.06 364.218 767.122H366.928C366.977 768.03 367.338 768.753 368.012 769.29C368.695 769.817 369.594 770.081 370.707 770.081C371.732 770.081 372.553 769.876 373.168 769.466C373.793 769.046 374.105 768.489 374.105 767.796Z" fill="#C6C6C6"/>
<path d="M602.995 373H600.285V357.15H602.995V373ZM600.065 352.946C600.065 352.507 600.197 352.136 600.461 351.833C600.734 351.53 601.135 351.379 601.662 351.379C602.189 351.379 602.59 351.53 602.863 351.833C603.137 352.136 603.273 352.507 603.273 352.946C603.273 353.386 603.137 353.752 602.863 354.045C602.59 354.338 602.189 354.484 601.662 354.484C601.135 354.484 600.734 354.338 600.461 354.045C600.197 353.752 600.065 353.386 600.065 352.946ZM613.703 371.081C614.67 371.081 615.515 370.788 616.237 370.202C616.96 369.616 617.36 368.884 617.438 368.005H620.002C619.953 368.913 619.641 369.777 619.064 370.598C618.488 371.418 617.717 372.072 616.75 372.561C615.793 373.049 614.777 373.293 613.703 373.293C611.545 373.293 609.826 372.575 608.547 371.14C607.277 369.694 606.643 367.722 606.643 365.222V364.768C606.643 363.225 606.926 361.853 607.492 360.651C608.059 359.45 608.869 358.518 609.924 357.854C610.988 357.189 612.243 356.857 613.688 356.857C615.466 356.857 616.94 357.39 618.112 358.454C619.294 359.519 619.924 360.9 620.002 362.6H617.438C617.36 361.574 616.97 360.734 616.267 360.08C615.573 359.416 614.714 359.084 613.688 359.084C612.312 359.084 611.242 359.582 610.48 360.578C609.729 361.564 609.353 362.995 609.353 364.87V365.383C609.353 367.209 609.729 368.615 610.48 369.602C611.232 370.588 612.307 371.081 613.703 371.081ZM622.331 364.929C622.331 363.376 622.634 361.979 623.239 360.739C623.854 359.499 624.704 358.542 625.788 357.868C626.882 357.194 628.127 356.857 629.523 356.857C631.682 356.857 633.425 357.604 634.753 359.099C636.091 360.593 636.76 362.58 636.76 365.061V365.251C636.76 366.794 636.462 368.181 635.866 369.411C635.28 370.632 634.436 371.584 633.332 372.268C632.238 372.951 630.979 373.293 629.553 373.293C627.404 373.293 625.661 372.546 624.323 371.052C622.995 369.558 622.331 367.58 622.331 365.119V364.929ZM625.056 365.251C625.056 367.009 625.461 368.42 626.271 369.484C627.092 370.549 628.186 371.081 629.553 371.081C630.93 371.081 632.023 370.544 632.834 369.47C633.645 368.386 634.05 366.872 634.05 364.929C634.05 363.19 633.635 361.784 632.805 360.71C631.984 359.626 630.891 359.084 629.523 359.084C628.186 359.084 627.106 359.616 626.286 360.681C625.466 361.745 625.056 363.269 625.056 365.251ZM642.722 357.15L642.81 359.143C644.021 357.619 645.603 356.857 647.556 356.857C650.905 356.857 652.595 358.747 652.624 362.526V373H649.914V362.512C649.904 361.369 649.641 360.524 649.123 359.978C648.615 359.431 647.819 359.157 646.735 359.157C645.856 359.157 645.085 359.392 644.421 359.86C643.757 360.329 643.239 360.944 642.868 361.706V373H640.158V357.15H642.722ZM665.939 368.796C665.939 368.063 665.661 367.497 665.104 367.097C664.558 366.687 663.596 366.335 662.219 366.042C660.852 365.749 659.763 365.397 658.952 364.987C658.151 364.577 657.556 364.089 657.165 363.522C656.784 362.956 656.594 362.282 656.594 361.501C656.594 360.202 657.141 359.104 658.234 358.205C659.338 357.307 660.744 356.857 662.453 356.857C664.25 356.857 665.705 357.321 666.818 358.249C667.941 359.177 668.503 360.363 668.503 361.809H665.778C665.778 361.066 665.461 360.427 664.826 359.89C664.201 359.353 663.41 359.084 662.453 359.084C661.467 359.084 660.695 359.299 660.139 359.729C659.582 360.158 659.304 360.72 659.304 361.413C659.304 362.067 659.562 362.561 660.08 362.893C660.598 363.225 661.53 363.542 662.878 363.845C664.235 364.147 665.334 364.509 666.174 364.929C667.014 365.349 667.634 365.856 668.034 366.452C668.444 367.038 668.649 367.756 668.649 368.605C668.649 370.021 668.083 371.159 666.95 372.019C665.817 372.868 664.348 373.293 662.541 373.293C661.271 373.293 660.148 373.068 659.172 372.619C658.195 372.17 657.429 371.545 656.872 370.744C656.325 369.934 656.052 369.06 656.052 368.122H658.762C658.811 369.03 659.172 369.753 659.846 370.29C660.529 370.817 661.428 371.081 662.541 371.081C663.566 371.081 664.387 370.876 665.002 370.466C665.627 370.046 665.939 369.489 665.939 368.796Z" fill="#C6C6C6"/>
<path d="M184.836 159C184.68 158.688 184.553 158.131 184.455 157.33C183.195 158.639 181.691 159.293 179.943 159.293C178.381 159.293 177.097 158.854 176.091 157.975C175.095 157.086 174.597 155.963 174.597 154.605C174.597 152.955 175.222 151.676 176.472 150.768C177.731 149.85 179.499 149.391 181.774 149.391H184.411V148.146C184.411 147.198 184.128 146.446 183.562 145.89C182.995 145.323 182.16 145.04 181.057 145.04C180.09 145.04 179.279 145.284 178.625 145.772C177.971 146.261 177.644 146.852 177.644 147.545H174.919C174.919 146.754 175.197 145.992 175.754 145.26C176.32 144.518 177.082 143.932 178.039 143.502C179.006 143.072 180.065 142.857 181.218 142.857C183.044 142.857 184.475 143.316 185.51 144.234C186.545 145.143 187.082 146.397 187.121 147.999V155.294C187.121 156.749 187.307 157.906 187.678 158.766V159H184.836ZM180.339 156.935C181.188 156.935 181.994 156.715 182.756 156.275C183.518 155.836 184.069 155.265 184.411 154.562V151.31H182.287C178.967 151.31 177.307 152.281 177.307 154.225C177.307 155.074 177.59 155.738 178.156 156.217C178.723 156.695 179.45 156.935 180.339 156.935ZM190.71 150.943C190.71 148.512 191.286 146.559 192.438 145.084C193.591 143.6 195.1 142.857 196.965 142.857C198.82 142.857 200.29 143.492 201.374 144.762V136.5H204.084V159H201.594L201.462 157.301C200.378 158.629 198.869 159.293 196.936 159.293C195.1 159.293 193.601 158.541 192.438 157.037C191.286 155.533 190.71 153.57 190.71 151.148V150.943ZM193.42 151.251C193.42 153.048 193.791 154.454 194.533 155.47C195.275 156.485 196.301 156.993 197.609 156.993C199.328 156.993 200.583 156.222 201.374 154.679V147.398C200.563 145.904 199.318 145.157 197.639 145.157C196.311 145.157 195.275 145.67 194.533 146.695C193.791 147.721 193.42 149.239 193.42 151.251ZM207.644 150.943C207.644 148.512 208.22 146.559 209.372 145.084C210.524 143.6 212.033 142.857 213.898 142.857C215.754 142.857 217.224 143.492 218.308 144.762V136.5H221.018V159H218.527L218.396 157.301C217.312 158.629 215.803 159.293 213.869 159.293C212.033 159.293 210.534 158.541 209.372 157.037C208.22 155.533 207.644 153.57 207.644 151.148V150.943ZM210.354 151.251C210.354 153.048 210.725 154.454 211.467 155.47C212.209 156.485 213.234 156.993 214.543 156.993C216.262 156.993 217.517 156.222 218.308 154.679V147.398C217.497 145.904 216.252 145.157 214.572 145.157C213.244 145.157 212.209 145.67 211.467 146.695C210.725 147.721 210.354 149.239 210.354 151.251ZM232.897 145.582C232.487 145.514 232.043 145.479 231.564 145.479C229.787 145.479 228.581 146.236 227.946 147.75V159H225.236V143.15H227.873L227.917 144.981C228.806 143.565 230.065 142.857 231.696 142.857C232.224 142.857 232.624 142.926 232.897 143.062V145.582ZM241.687 159.293C239.538 159.293 237.79 158.59 236.442 157.184C235.095 155.768 234.421 153.878 234.421 151.515V151.017C234.421 149.444 234.719 148.043 235.314 146.812C235.92 145.572 236.76 144.605 237.834 143.912C238.918 143.209 240.09 142.857 241.35 142.857C243.41 142.857 245.012 143.536 246.154 144.894C247.297 146.251 247.868 148.194 247.868 150.724V151.852H237.131C237.17 153.414 237.624 154.679 238.493 155.646C239.372 156.603 240.485 157.081 241.833 157.081C242.79 157.081 243.601 156.886 244.265 156.495C244.929 156.104 245.51 155.587 246.008 154.942L247.663 156.231C246.335 158.272 244.343 159.293 241.687 159.293ZM241.35 145.084C240.256 145.084 239.338 145.484 238.596 146.285C237.854 147.076 237.395 148.189 237.219 149.625H245.158V149.42C245.08 148.043 244.709 146.979 244.045 146.227C243.381 145.465 242.482 145.084 241.35 145.084ZM260.246 154.796C260.246 154.063 259.968 153.497 259.411 153.097C258.864 152.687 257.902 152.335 256.525 152.042C255.158 151.749 254.069 151.397 253.259 150.987C252.458 150.577 251.862 150.089 251.472 149.522C251.091 148.956 250.9 148.282 250.9 147.501C250.9 146.202 251.447 145.104 252.541 144.205C253.645 143.307 255.051 142.857 256.76 142.857C258.557 142.857 260.012 143.321 261.125 144.249C262.248 145.177 262.81 146.363 262.81 147.809H260.085C260.085 147.066 259.768 146.427 259.133 145.89C258.508 145.353 257.717 145.084 256.76 145.084C255.773 145.084 255.002 145.299 254.445 145.729C253.889 146.158 253.61 146.72 253.61 147.413C253.61 148.067 253.869 148.561 254.387 148.893C254.904 149.225 255.837 149.542 257.185 149.845C258.542 150.147 259.641 150.509 260.48 150.929C261.32 151.349 261.94 151.856 262.341 152.452C262.751 153.038 262.956 153.756 262.956 154.605C262.956 156.021 262.39 157.159 261.257 158.019C260.124 158.868 258.654 159.293 256.848 159.293C255.578 159.293 254.455 159.068 253.479 158.619C252.502 158.17 251.735 157.545 251.179 156.744C250.632 155.934 250.358 155.06 250.358 154.122H253.068C253.117 155.03 253.479 155.753 254.152 156.29C254.836 156.817 255.734 157.081 256.848 157.081C257.873 157.081 258.693 156.876 259.309 156.466C259.934 156.046 260.246 155.489 260.246 154.796ZM275.715 154.796C275.715 154.063 275.437 153.497 274.88 153.097C274.333 152.687 273.371 152.335 271.994 152.042C270.627 151.749 269.538 151.397 268.728 150.987C267.927 150.577 267.331 150.089 266.94 149.522C266.56 148.956 266.369 148.282 266.369 147.501C266.369 146.202 266.916 145.104 268.01 144.205C269.113 143.307 270.52 142.857 272.229 142.857C274.025 142.857 275.48 143.321 276.594 144.249C277.717 145.177 278.278 146.363 278.278 147.809H275.554C275.554 147.066 275.236 146.427 274.602 145.89C273.977 145.353 273.186 145.084 272.229 145.084C271.242 145.084 270.471 145.299 269.914 145.729C269.357 146.158 269.079 146.72 269.079 147.413C269.079 148.067 269.338 148.561 269.855 148.893C270.373 149.225 271.306 149.542 272.653 149.845C274.011 150.147 275.109 150.509 275.949 150.929C276.789 151.349 277.409 151.856 277.81 152.452C278.22 153.038 278.425 153.756 278.425 154.605C278.425 156.021 277.858 157.159 276.726 158.019C275.593 158.868 274.123 159.293 272.316 159.293C271.047 159.293 269.924 159.068 268.947 158.619C267.971 158.17 267.204 157.545 266.647 156.744C266.101 155.934 265.827 155.06 265.827 154.122H268.537C268.586 155.03 268.947 155.753 269.621 156.29C270.305 156.817 271.203 157.081 272.316 157.081C273.342 157.081 274.162 156.876 274.777 156.466C275.402 156.046 275.715 155.489 275.715 154.796ZM292.575 152.994C292.595 151.832 292.727 150.914 292.971 150.24C293.215 149.566 293.713 148.819 294.465 147.999L296.384 146.021C297.204 145.094 297.614 144.098 297.614 143.033C297.614 142.008 297.346 141.207 296.809 140.631C296.271 140.045 295.49 139.752 294.465 139.752C293.469 139.752 292.668 140.016 292.062 140.543C291.457 141.07 291.154 141.778 291.154 142.667H288.444C288.464 141.085 289.025 139.811 290.129 138.844C291.242 137.867 292.688 137.379 294.465 137.379C296.311 137.379 297.746 137.877 298.771 138.873C299.807 139.859 300.324 141.217 300.324 142.945C300.324 144.654 299.533 146.339 297.951 147.999L296.354 149.581C295.642 150.372 295.285 151.51 295.285 152.994H292.575ZM292.458 157.638C292.458 157.198 292.59 156.832 292.854 156.539C293.127 156.236 293.527 156.085 294.055 156.085C294.582 156.085 294.982 156.236 295.256 156.539C295.529 156.832 295.666 157.198 295.666 157.638C295.666 158.077 295.529 158.443 295.256 158.736C294.982 159.02 294.582 159.161 294.055 159.161C293.527 159.161 293.127 159.02 292.854 158.736C292.59 158.443 292.458 158.077 292.458 157.638Z" fill="#C6C6C6"/>
<path d="M602.995 674H600.285V658.15H602.995V674ZM600.065 653.946C600.065 653.507 600.197 653.136 600.461 652.833C600.734 652.53 601.135 652.379 601.662 652.379C602.189 652.379 602.59 652.53 602.863 652.833C603.137 653.136 603.273 653.507 603.273 653.946C603.273 654.386 603.137 654.752 602.863 655.045C602.59 655.338 602.189 655.484 601.662 655.484C601.135 655.484 600.734 655.338 600.461 655.045C600.197 654.752 600.065 654.386 600.065 653.946ZM613.703 672.081C614.67 672.081 615.515 671.788 616.237 671.202C616.96 670.616 617.36 669.884 617.438 669.005H620.002C619.953 669.913 619.641 670.777 619.064 671.598C618.488 672.418 617.717 673.072 616.75 673.561C615.793 674.049 614.777 674.293 613.703 674.293C611.545 674.293 609.826 673.575 608.547 672.14C607.277 670.694 606.643 668.722 606.643 666.222V665.768C606.643 664.225 606.926 662.853 607.492 661.651C608.059 660.45 608.869 659.518 609.924 658.854C610.988 658.189 612.243 657.857 613.688 657.857C615.466 657.857 616.94 658.39 618.112 659.454C619.294 660.519 619.924 661.9 620.002 663.6H617.438C617.36 662.574 616.97 661.734 616.267 661.08C615.573 660.416 614.714 660.084 613.688 660.084C612.312 660.084 611.242 660.582 610.48 661.578C609.729 662.564 609.353 663.995 609.353 665.87V666.383C609.353 668.209 609.729 669.615 610.48 670.602C611.232 671.588 612.307 672.081 613.703 672.081ZM622.331 665.929C622.331 664.376 622.634 662.979 623.239 661.739C623.854 660.499 624.704 659.542 625.788 658.868C626.882 658.194 628.127 657.857 629.523 657.857C631.682 657.857 633.425 658.604 634.753 660.099C636.091 661.593 636.76 663.58 636.76 666.061V666.251C636.76 667.794 636.462 669.181 635.866 670.411C635.28 671.632 634.436 672.584 633.332 673.268C632.238 673.951 630.979 674.293 629.553 674.293C627.404 674.293 625.661 673.546 624.323 672.052C622.995 670.558 622.331 668.58 622.331 666.119V665.929ZM625.056 666.251C625.056 668.009 625.461 669.42 626.271 670.484C627.092 671.549 628.186 672.081 629.553 672.081C630.93 672.081 632.023 671.544 632.834 670.47C633.645 669.386 634.05 667.872 634.05 665.929C634.05 664.19 633.635 662.784 632.805 661.71C631.984 660.626 630.891 660.084 629.523 660.084C628.186 660.084 627.106 660.616 626.286 661.681C625.466 662.745 625.056 664.269 625.056 666.251ZM642.722 658.15L642.81 660.143C644.021 658.619 645.603 657.857 647.556 657.857C650.905 657.857 652.595 659.747 652.624 663.526V674H649.914V663.512C649.904 662.369 649.641 661.524 649.123 660.978C648.615 660.431 647.819 660.157 646.735 660.157C645.856 660.157 645.085 660.392 644.421 660.86C643.757 661.329 643.239 661.944 642.868 662.706V674H640.158V658.15H642.722ZM665.939 669.796C665.939 669.063 665.661 668.497 665.104 668.097C664.558 667.687 663.596 667.335 662.219 667.042C660.852 666.749 659.763 666.397 658.952 665.987C658.151 665.577 657.556 665.089 657.165 664.522C656.784 663.956 656.594 663.282 656.594 662.501C656.594 661.202 657.141 660.104 658.234 659.205C659.338 658.307 660.744 657.857 662.453 657.857C664.25 657.857 665.705 658.321 666.818 659.249C667.941 660.177 668.503 661.363 668.503 662.809H665.778C665.778 662.066 665.461 661.427 664.826 660.89C664.201 660.353 663.41 660.084 662.453 660.084C661.467 660.084 660.695 660.299 660.139 660.729C659.582 661.158 659.304 661.72 659.304 662.413C659.304 663.067 659.562 663.561 660.08 663.893C660.598 664.225 661.53 664.542 662.878 664.845C664.235 665.147 665.334 665.509 666.174 665.929C667.014 666.349 667.634 666.856 668.034 667.452C668.444 668.038 668.649 668.756 668.649 669.605C668.649 671.021 668.083 672.159 666.95 673.019C665.817 673.868 664.348 674.293 662.541 674.293C661.271 674.293 660.148 674.068 659.172 673.619C658.195 673.17 657.429 672.545 656.872 671.744C656.325 670.934 656.052 670.06 656.052 669.122H658.762C658.811 670.03 659.172 670.753 659.846 671.29C660.529 671.817 661.428 672.081 662.541 672.081C663.566 672.081 664.387 671.876 665.002 671.466C665.627 671.046 665.939 670.489 665.939 669.796Z" fill="#C6C6C6"/>
<path d="M602.995 533H600.285V517.15H602.995V533ZM600.065 512.946C600.065 512.507 600.197 512.136 600.461 511.833C600.734 511.53 601.135 511.379 601.662 511.379C602.189 511.379 602.59 511.53 602.863 511.833C603.137 512.136 603.273 512.507 603.273 512.946C603.273 513.386 603.137 513.752 602.863 514.045C602.59 514.338 602.189 514.484 601.662 514.484C601.135 514.484 600.734 514.338 600.461 514.045C600.197 513.752 600.065 513.386 600.065 512.946ZM613.703 531.081C614.67 531.081 615.515 530.788 616.237 530.202C616.96 529.616 617.36 528.884 617.438 528.005H620.002C619.953 528.913 619.641 529.777 619.064 530.598C618.488 531.418 617.717 532.072 616.75 532.561C615.793 533.049 614.777 533.293 613.703 533.293C611.545 533.293 609.826 532.575 608.547 531.14C607.277 529.694 606.643 527.722 606.643 525.222V524.768C606.643 523.225 606.926 521.853 607.492 520.651C608.059 519.45 608.869 518.518 609.924 517.854C610.988 517.189 612.243 516.857 613.688 516.857C615.466 516.857 616.94 517.39 618.112 518.454C619.294 519.519 619.924 520.9 620.002 522.6H617.438C617.36 521.574 616.97 520.734 616.267 520.08C615.573 519.416 614.714 519.084 613.688 519.084C612.312 519.084 611.242 519.582 610.48 520.578C609.729 521.564 609.353 522.995 609.353 524.87V525.383C609.353 527.209 609.729 528.615 610.48 529.602C611.232 530.588 612.307 531.081 613.703 531.081ZM622.331 524.929C622.331 523.376 622.634 521.979 623.239 520.739C623.854 519.499 624.704 518.542 625.788 517.868C626.882 517.194 628.127 516.857 629.523 516.857C631.682 516.857 633.425 517.604 634.753 519.099C636.091 520.593 636.76 522.58 636.76 525.061V525.251C636.76 526.794 636.462 528.181 635.866 529.411C635.28 530.632 634.436 531.584 633.332 532.268C632.238 532.951 630.979 533.293 629.553 533.293C627.404 533.293 625.661 532.546 624.323 531.052C622.995 529.558 622.331 527.58 622.331 525.119V524.929ZM625.056 525.251C625.056 527.009 625.461 528.42 626.271 529.484C627.092 530.549 628.186 531.081 629.553 531.081C630.93 531.081 632.023 530.544 632.834 529.47C633.645 528.386 634.05 526.872 634.05 524.929C634.05 523.19 633.635 521.784 632.805 520.71C631.984 519.626 630.891 519.084 629.523 519.084C628.186 519.084 627.106 519.616 626.286 520.681C625.466 521.745 625.056 523.269 625.056 525.251ZM642.722 517.15L642.81 519.143C644.021 517.619 645.603 516.857 647.556 516.857C650.905 516.857 652.595 518.747 652.624 522.526V533H649.914V522.512C649.904 521.369 649.641 520.524 649.123 519.978C648.615 519.431 647.819 519.157 646.735 519.157C645.856 519.157 645.085 519.392 644.421 519.86C643.757 520.329 643.239 520.944 642.868 521.706V533H640.158V517.15H642.722ZM665.939 528.796C665.939 528.063 665.661 527.497 665.104 527.097C664.558 526.687 663.596 526.335 662.219 526.042C660.852 525.749 659.763 525.397 658.952 524.987C658.151 524.577 657.556 524.089 657.165 523.522C656.784 522.956 656.594 522.282 656.594 521.501C656.594 520.202 657.141 519.104 658.234 518.205C659.338 517.307 660.744 516.857 662.453 516.857C664.25 516.857 665.705 517.321 666.818 518.249C667.941 519.177 668.503 520.363 668.503 521.809H665.778C665.778 521.066 665.461 520.427 664.826 519.89C664.201 519.353 663.41 519.084 662.453 519.084C661.467 519.084 660.695 519.299 660.139 519.729C659.582 520.158 659.304 520.72 659.304 521.413C659.304 522.067 659.562 522.561 660.08 522.893C660.598 523.225 661.53 523.542 662.878 523.845C664.235 524.147 665.334 524.509 666.174 524.929C667.014 525.349 667.634 525.856 668.034 526.452C668.444 527.038 668.649 527.756 668.649 528.605C668.649 530.021 668.083 531.159 666.95 532.019C665.817 532.868 664.348 533.293 662.541 533.293C661.271 533.293 660.148 533.068 659.172 532.619C658.195 532.17 657.429 531.545 656.872 530.744C656.325 529.934 656.052 529.06 656.052 528.122H658.762C658.811 529.03 659.172 529.753 659.846 530.29C660.529 530.817 661.428 531.081 662.541 531.081C663.566 531.081 664.387 530.876 665.002 530.466C665.627 530.046 665.939 529.489 665.939 528.796Z" fill="#C6C6C6"/>
<path d="M387.5 1017C387.5 1023.85 383.646 1030.19 377.14 1034.87C370.636 1039.56 361.576 1042.5 351.5 1042.5C341.424 1042.5 332.364 1039.56 325.86 1034.87C319.354 1030.19 315.5 1023.85 315.5 1017C315.5 1010.15 319.354 1003.81 325.86 999.125C332.364 994.443 341.424 991.5 351.5 991.5C361.576 991.5 370.636 994.443 377.14 999.125C383.646 1003.81 387.5 1010.15 387.5 1017Z" stroke="#C6C6C6" stroke-width="3"/>
<path d="M788.5 1021C788.5 1027.85 784.646 1034.19 778.14 1038.87C771.636 1043.56 762.576 1046.5 752.5 1046.5C742.424 1046.5 733.364 1043.56 726.86 1038.87C720.354 1034.19 716.5 1027.85 716.5 1021C716.5 1014.15 720.354 1007.81 726.86 1003.13C733.364 998.443 742.424 995.5 752.5 995.5C762.576 995.5 771.636 998.443 778.14 1003.13C784.646 1007.81 788.5 1014.15 788.5 1021Z" stroke="#C6C6C6" stroke-width="3"/>
<path d="M327.995 1025H325.285V1009.15H327.995V1025ZM325.065 1004.95C325.065 1004.51 325.197 1004.14 325.461 1003.83C325.734 1003.53 326.135 1003.38 326.662 1003.38C327.189 1003.38 327.59 1003.53 327.863 1003.83C328.137 1004.14 328.273 1004.51 328.273 1004.95C328.273 1005.39 328.137 1005.75 327.863 1006.04C327.59 1006.34 327.189 1006.48 326.662 1006.48C326.135 1006.48 325.734 1006.34 325.461 1006.04C325.197 1005.75 325.065 1005.39 325.065 1004.95ZM338.703 1023.08C339.67 1023.08 340.515 1022.79 341.237 1022.2C341.96 1021.62 342.36 1020.88 342.438 1020H345.002C344.953 1020.91 344.641 1021.78 344.064 1022.6C343.488 1023.42 342.717 1024.07 341.75 1024.56C340.793 1025.05 339.777 1025.29 338.703 1025.29C336.545 1025.29 334.826 1024.58 333.547 1023.14C332.277 1021.69 331.643 1019.72 331.643 1017.22V1016.77C331.643 1015.22 331.926 1013.85 332.492 1012.65C333.059 1011.45 333.869 1010.52 334.924 1009.85C335.988 1009.19 337.243 1008.86 338.688 1008.86C340.466 1008.86 341.94 1009.39 343.112 1010.45C344.294 1011.52 344.924 1012.9 345.002 1014.6H342.438C342.36 1013.57 341.97 1012.73 341.267 1012.08C340.573 1011.42 339.714 1011.08 338.688 1011.08C337.312 1011.08 336.242 1011.58 335.48 1012.58C334.729 1013.56 334.353 1015 334.353 1016.87V1017.38C334.353 1019.21 334.729 1020.62 335.48 1021.6C336.232 1022.59 337.307 1023.08 338.703 1023.08ZM347.331 1016.93C347.331 1015.38 347.634 1013.98 348.239 1012.74C348.854 1011.5 349.704 1010.54 350.788 1009.87C351.882 1009.19 353.127 1008.86 354.523 1008.86C356.682 1008.86 358.425 1009.6 359.753 1011.1C361.091 1012.59 361.76 1014.58 361.76 1017.06V1017.25C361.76 1018.79 361.462 1020.18 360.866 1021.41C360.28 1022.63 359.436 1023.58 358.332 1024.27C357.238 1024.95 355.979 1025.29 354.553 1025.29C352.404 1025.29 350.661 1024.55 349.323 1023.05C347.995 1021.56 347.331 1019.58 347.331 1017.12V1016.93ZM350.056 1017.25C350.056 1019.01 350.461 1020.42 351.271 1021.48C352.092 1022.55 353.186 1023.08 354.553 1023.08C355.93 1023.08 357.023 1022.54 357.834 1021.47C358.645 1020.39 359.05 1018.87 359.05 1016.93C359.05 1015.19 358.635 1013.78 357.805 1012.71C356.984 1011.63 355.891 1011.08 354.523 1011.08C353.186 1011.08 352.106 1011.62 351.286 1012.68C350.466 1013.75 350.056 1015.27 350.056 1017.25ZM367.722 1009.15L367.81 1011.14C369.021 1009.62 370.603 1008.86 372.556 1008.86C375.905 1008.86 377.595 1010.75 377.624 1014.53V1025H374.914V1014.51C374.904 1013.37 374.641 1012.52 374.123 1011.98C373.615 1011.43 372.819 1011.16 371.735 1011.16C370.856 1011.16 370.085 1011.39 369.421 1011.86C368.757 1012.33 368.239 1012.94 367.868 1013.71V1025H365.158V1009.15H367.722Z" fill="#C6C6C6"/>
<path d="M728.995 1031H726.285V1015.15H728.995V1031ZM726.065 1010.95C726.065 1010.51 726.197 1010.14 726.461 1009.83C726.734 1009.53 727.135 1009.38 727.662 1009.38C728.189 1009.38 728.59 1009.53 728.863 1009.83C729.137 1010.14 729.273 1010.51 729.273 1010.95C729.273 1011.39 729.137 1011.75 728.863 1012.04C728.59 1012.34 728.189 1012.48 727.662 1012.48C727.135 1012.48 726.734 1012.34 726.461 1012.04C726.197 1011.75 726.065 1011.39 726.065 1010.95ZM739.703 1029.08C740.67 1029.08 741.515 1028.79 742.237 1028.2C742.96 1027.62 743.36 1026.88 743.438 1026H746.002C745.953 1026.91 745.641 1027.78 745.064 1028.6C744.488 1029.42 743.717 1030.07 742.75 1030.56C741.793 1031.05 740.777 1031.29 739.703 1031.29C737.545 1031.29 735.826 1030.58 734.547 1029.14C733.277 1027.69 732.643 1025.72 732.643 1023.22V1022.77C732.643 1021.22 732.926 1019.85 733.492 1018.65C734.059 1017.45 734.869 1016.52 735.924 1015.85C736.988 1015.19 738.243 1014.86 739.688 1014.86C741.466 1014.86 742.94 1015.39 744.112 1016.45C745.294 1017.52 745.924 1018.9 746.002 1020.6H743.438C743.36 1019.57 742.97 1018.73 742.267 1018.08C741.573 1017.42 740.714 1017.08 739.688 1017.08C738.312 1017.08 737.242 1017.58 736.48 1018.58C735.729 1019.56 735.353 1021 735.353 1022.87V1023.38C735.353 1025.21 735.729 1026.62 736.48 1027.6C737.232 1028.59 738.307 1029.08 739.703 1029.08ZM748.331 1022.93C748.331 1021.38 748.634 1019.98 749.239 1018.74C749.854 1017.5 750.704 1016.54 751.788 1015.87C752.882 1015.19 754.127 1014.86 755.523 1014.86C757.682 1014.86 759.425 1015.6 760.753 1017.1C762.091 1018.59 762.76 1020.58 762.76 1023.06V1023.25C762.76 1024.79 762.462 1026.18 761.866 1027.41C761.28 1028.63 760.436 1029.58 759.332 1030.27C758.238 1030.95 756.979 1031.29 755.553 1031.29C753.404 1031.29 751.661 1030.55 750.323 1029.05C748.995 1027.56 748.331 1025.58 748.331 1023.12V1022.93ZM751.056 1023.25C751.056 1025.01 751.461 1026.42 752.271 1027.48C753.092 1028.55 754.186 1029.08 755.553 1029.08C756.93 1029.08 758.023 1028.54 758.834 1027.47C759.645 1026.39 760.05 1024.87 760.05 1022.93C760.05 1021.19 759.635 1019.78 758.805 1018.71C757.984 1017.63 756.891 1017.08 755.523 1017.08C754.186 1017.08 753.106 1017.62 752.286 1018.68C751.466 1019.75 751.056 1021.27 751.056 1023.25ZM768.722 1015.15L768.81 1017.14C770.021 1015.62 771.603 1014.86 773.556 1014.86C776.905 1014.86 778.595 1016.75 778.624 1020.53V1031H775.914V1020.51C775.904 1019.37 775.641 1018.52 775.123 1017.98C774.615 1017.43 773.819 1017.16 772.735 1017.16C771.856 1017.16 771.085 1017.39 770.421 1017.86C769.757 1018.33 769.239 1018.94 768.868 1019.71V1031H766.158V1015.15H768.722Z" fill="#C6C6C6"/>
<path d="M713.5 831C713.5 837.851 709.646 844.19 703.14 848.875C696.636 853.557 687.576 856.5 677.5 856.5C667.424 856.5 658.364 853.557 651.86 848.875C645.354 844.19 641.5 837.851 641.5 831C641.5 824.149 645.354 817.81 651.86 813.125C658.364 808.443 667.424 805.5 677.5 805.5C687.576 805.5 696.636 808.443 703.14 813.125C709.646 817.81 713.5 824.149 713.5 831Z" stroke="#C6C6C6" stroke-width="3"/>
<path d="M183.761 845.069C184.962 843.595 186.524 842.857 188.448 842.857C191.798 842.857 193.487 844.747 193.517 848.526V859H190.807V848.512C190.797 847.369 190.533 846.524 190.016 845.978C189.508 845.431 188.712 845.157 187.628 845.157C186.749 845.157 185.978 845.392 185.313 845.86C184.649 846.329 184.132 846.944 183.761 847.706V859H181.051V836.5H183.761V845.069ZM196.856 850.929C196.856 849.376 197.159 847.979 197.765 846.739C198.38 845.499 199.229 844.542 200.313 843.868C201.407 843.194 202.652 842.857 204.049 842.857C206.207 842.857 207.95 843.604 209.278 845.099C210.616 846.593 211.285 848.58 211.285 851.061V851.251C211.285 852.794 210.987 854.181 210.392 855.411C209.806 856.632 208.961 857.584 207.857 858.268C206.764 858.951 205.504 859.293 204.078 859.293C201.93 859.293 200.187 858.546 198.849 857.052C197.521 855.558 196.856 853.58 196.856 851.119V850.929ZM199.581 851.251C199.581 853.009 199.986 854.42 200.797 855.484C201.617 856.549 202.711 857.081 204.078 857.081C205.455 857.081 206.549 856.544 207.359 855.47C208.17 854.386 208.575 852.872 208.575 850.929C208.575 849.19 208.16 847.784 207.33 846.71C206.51 845.626 205.416 845.084 204.049 845.084C202.711 845.084 201.632 845.616 200.812 846.681C199.991 847.745 199.581 849.269 199.581 851.251ZM223.912 854.796C223.912 854.063 223.634 853.497 223.077 853.097C222.53 852.687 221.568 852.335 220.191 852.042C218.824 851.749 217.735 851.397 216.925 850.987C216.124 850.577 215.528 850.089 215.138 849.522C214.757 848.956 214.566 848.282 214.566 847.501C214.566 846.202 215.113 845.104 216.207 844.205C217.311 843.307 218.717 842.857 220.426 842.857C222.223 842.857 223.678 843.321 224.791 844.249C225.914 845.177 226.476 846.363 226.476 847.809H223.751C223.751 847.066 223.434 846.427 222.799 845.89C222.174 845.353 221.383 845.084 220.426 845.084C219.439 845.084 218.668 845.299 218.111 845.729C217.555 846.158 217.276 846.72 217.276 847.413C217.276 848.067 217.535 848.561 218.053 848.893C218.57 849.225 219.503 849.542 220.851 849.845C222.208 850.147 223.307 850.509 224.146 850.929C224.986 851.349 225.606 851.856 226.007 852.452C226.417 853.038 226.622 853.756 226.622 854.605C226.622 856.021 226.056 857.159 224.923 858.019C223.79 858.868 222.32 859.293 220.514 859.293C219.244 859.293 218.121 859.068 217.145 858.619C216.168 858.17 215.401 857.545 214.845 856.744C214.298 855.934 214.024 855.06 214.024 854.122H216.734C216.783 855.03 217.145 855.753 217.818 856.29C218.502 856.817 219.4 857.081 220.514 857.081C221.539 857.081 222.359 856.876 222.975 856.466C223.6 856.046 223.912 855.489 223.912 854.796ZM233.829 839.312V843.15H236.788V845.245H233.829V855.074C233.829 855.709 233.961 856.188 234.225 856.51C234.488 856.822 234.938 856.979 235.572 856.979C235.885 856.979 236.314 856.92 236.861 856.803V859C236.148 859.195 235.455 859.293 234.781 859.293C233.57 859.293 232.657 858.927 232.042 858.194C231.427 857.462 231.119 856.422 231.119 855.074V845.245H228.233V843.15H231.119V839.312H233.829ZM260.797 851.251C260.797 853.663 260.245 855.606 259.142 857.081C258.038 858.556 256.544 859.293 254.659 859.293C252.735 859.293 251.222 858.683 250.118 857.462V865.094H247.408V843.15H249.884L250.016 844.908C251.119 843.541 252.652 842.857 254.615 842.857C256.52 842.857 258.023 843.575 259.127 845.011C260.24 846.446 260.797 848.443 260.797 851.002V851.251ZM258.087 850.943C258.087 849.156 257.706 847.745 256.944 846.71C256.183 845.675 255.138 845.157 253.81 845.157C252.169 845.157 250.938 845.885 250.118 847.34V854.913C250.929 856.358 252.169 857.081 253.839 857.081C255.138 857.081 256.168 856.568 256.93 855.543C257.701 854.508 258.087 852.975 258.087 850.943ZM267.198 859H264.488V843.15H267.198V859ZM264.269 838.946C264.269 838.507 264.4 838.136 264.664 837.833C264.938 837.53 265.338 837.379 265.865 837.379C266.393 837.379 266.793 837.53 267.066 837.833C267.34 838.136 267.477 838.507 267.477 838.946C267.477 839.386 267.34 839.752 267.066 840.045C266.793 840.338 266.393 840.484 265.865 840.484C265.338 840.484 264.938 840.338 264.664 840.045C264.4 839.752 264.269 839.386 264.269 838.946ZM277.906 857.081C278.873 857.081 279.718 856.788 280.44 856.202C281.163 855.616 281.563 854.884 281.642 854.005H284.205C284.156 854.913 283.844 855.777 283.268 856.598C282.691 857.418 281.92 858.072 280.953 858.561C279.996 859.049 278.98 859.293 277.906 859.293C275.748 859.293 274.029 858.575 272.75 857.14C271.48 855.694 270.846 853.722 270.846 851.222V850.768C270.846 849.225 271.129 847.853 271.695 846.651C272.262 845.45 273.072 844.518 274.127 843.854C275.191 843.189 276.446 842.857 277.892 842.857C279.669 842.857 281.144 843.39 282.315 844.454C283.497 845.519 284.127 846.9 284.205 848.6H281.642C281.563 847.574 281.173 846.734 280.47 846.08C279.776 845.416 278.917 845.084 277.892 845.084C276.515 845.084 275.445 845.582 274.684 846.578C273.932 847.564 273.556 848.995 273.556 850.87V851.383C273.556 853.209 273.932 854.615 274.684 855.602C275.436 856.588 276.51 857.081 277.906 857.081Z" fill="#C6C6C6"/>
<path d="M466.408 831.081C467.375 831.081 468.22 830.788 468.942 830.202C469.665 829.616 470.065 828.884 470.144 828.005H472.707C472.658 828.913 472.346 829.777 471.77 830.598C471.193 831.418 470.422 832.072 469.455 832.561C468.498 833.049 467.482 833.293 466.408 833.293C464.25 833.293 462.531 832.575 461.252 831.14C459.982 829.694 459.348 827.722 459.348 825.222V824.768C459.348 823.225 459.631 821.853 460.197 820.651C460.764 819.45 461.574 818.518 462.629 817.854C463.693 817.189 464.948 816.857 466.394 816.857C468.171 816.857 469.646 817.39 470.817 818.454C471.999 819.519 472.629 820.9 472.707 822.6H470.144C470.065 821.574 469.675 820.734 468.972 820.08C468.278 819.416 467.419 819.084 466.394 819.084C465.017 819.084 463.947 819.582 463.186 820.578C462.434 821.564 462.058 822.995 462.058 824.87V825.383C462.058 827.209 462.434 828.615 463.186 829.602C463.938 830.588 465.012 831.081 466.408 831.081ZM475.036 824.929C475.036 823.376 475.339 821.979 475.944 820.739C476.56 819.499 477.409 818.542 478.493 817.868C479.587 817.194 480.832 816.857 482.229 816.857C484.387 816.857 486.13 817.604 487.458 819.099C488.796 820.593 489.465 822.58 489.465 825.061V825.251C489.465 826.794 489.167 828.181 488.571 829.411C487.985 830.632 487.141 831.584 486.037 832.268C484.943 832.951 483.684 833.293 482.258 833.293C480.109 833.293 478.366 832.546 477.028 831.052C475.7 829.558 475.036 827.58 475.036 825.119V824.929ZM477.761 825.251C477.761 827.009 478.166 828.42 478.977 829.484C479.797 830.549 480.891 831.081 482.258 831.081C483.635 831.081 484.729 830.544 485.539 829.47C486.35 828.386 486.755 826.872 486.755 824.929C486.755 823.19 486.34 821.784 485.51 820.71C484.689 819.626 483.596 819.084 482.229 819.084C480.891 819.084 479.812 819.616 478.991 820.681C478.171 821.745 477.761 823.269 477.761 825.251ZM495.427 817.15L495.515 819.143C496.726 817.619 498.308 816.857 500.261 816.857C503.61 816.857 505.3 818.747 505.329 822.526V833H502.619V822.512C502.609 821.369 502.346 820.524 501.828 819.978C501.32 819.431 500.524 819.157 499.44 819.157C498.562 819.157 497.79 819.392 497.126 819.86C496.462 820.329 495.944 820.944 495.573 821.706V833H492.863V817.15H495.427ZM513.093 813.312V817.15H516.052V819.245H513.093V829.074C513.093 829.709 513.225 830.188 513.488 830.51C513.752 830.822 514.201 830.979 514.836 830.979C515.148 830.979 515.578 830.92 516.125 830.803V833C515.412 833.195 514.719 833.293 514.045 833.293C512.834 833.293 511.921 832.927 511.306 832.194C510.69 831.462 510.383 830.422 510.383 829.074V819.245H507.497V817.15H510.383V813.312H513.093ZM529.016 833C528.859 832.688 528.732 832.131 528.635 831.33C527.375 832.639 525.871 833.293 524.123 833.293C522.561 833.293 521.276 832.854 520.271 831.975C519.274 831.086 518.776 829.963 518.776 828.605C518.776 826.955 519.401 825.676 520.651 824.768C521.911 823.85 523.679 823.391 525.954 823.391H528.591V822.146C528.591 821.198 528.308 820.446 527.741 819.89C527.175 819.323 526.34 819.04 525.236 819.04C524.27 819.04 523.459 819.284 522.805 819.772C522.15 820.261 521.823 820.852 521.823 821.545H519.099C519.099 820.754 519.377 819.992 519.934 819.26C520.5 818.518 521.262 817.932 522.219 817.502C523.186 817.072 524.245 816.857 525.397 816.857C527.224 816.857 528.654 817.316 529.689 818.234C530.725 819.143 531.262 820.397 531.301 821.999V829.294C531.301 830.749 531.486 831.906 531.857 832.766V833H529.016ZM524.519 830.935C525.368 830.935 526.174 830.715 526.936 830.275C527.697 829.836 528.249 829.265 528.591 828.562V825.31H526.467C523.146 825.31 521.486 826.281 521.486 828.225C521.486 829.074 521.77 829.738 522.336 830.217C522.902 830.695 523.63 830.935 524.519 830.935ZM541.906 831.081C542.873 831.081 543.718 830.788 544.44 830.202C545.163 829.616 545.563 828.884 545.642 828.005H548.205C548.156 828.913 547.844 829.777 547.268 830.598C546.691 831.418 545.92 832.072 544.953 832.561C543.996 833.049 542.98 833.293 541.906 833.293C539.748 833.293 538.029 832.575 536.75 831.14C535.48 829.694 534.846 827.722 534.846 825.222V824.768C534.846 823.225 535.129 821.853 535.695 820.651C536.262 819.45 537.072 818.518 538.127 817.854C539.191 817.189 540.446 816.857 541.892 816.857C543.669 816.857 545.144 817.39 546.315 818.454C547.497 819.519 548.127 820.9 548.205 822.6H545.642C545.563 821.574 545.173 820.734 544.47 820.08C543.776 819.416 542.917 819.084 541.892 819.084C540.515 819.084 539.445 819.582 538.684 820.578C537.932 821.564 537.556 822.995 537.556 824.87V825.383C537.556 827.209 537.932 828.615 538.684 829.602C539.436 830.588 540.51 831.081 541.906 831.081ZM554.929 813.312V817.15H557.888V819.245H554.929V829.074C554.929 829.709 555.061 830.188 555.324 830.51C555.588 830.822 556.037 830.979 556.672 830.979C556.984 830.979 557.414 830.92 557.961 830.803V833C557.248 833.195 556.555 833.293 555.881 833.293C554.67 833.293 553.757 832.927 553.142 832.194C552.526 831.462 552.219 830.422 552.219 829.074V819.245H549.333V817.15H552.219V813.312H554.929ZM571.218 819.069C572.419 817.595 573.981 816.857 575.905 816.857C579.255 816.857 580.944 818.747 580.974 822.526V833H578.264V822.512C578.254 821.369 577.99 820.524 577.473 819.978C576.965 819.431 576.169 819.157 575.085 819.157C574.206 819.157 573.435 819.392 572.771 819.86C572.106 820.329 571.589 820.944 571.218 821.706V833H568.508V810.5H571.218V819.069ZM584.313 824.929C584.313 823.376 584.616 821.979 585.222 820.739C585.837 819.499 586.687 818.542 587.771 817.868C588.864 817.194 590.109 816.857 591.506 816.857C593.664 816.857 595.407 817.604 596.735 819.099C598.073 820.593 598.742 822.58 598.742 825.061V825.251C598.742 826.794 598.444 828.181 597.849 829.411C597.263 830.632 596.418 831.584 595.314 832.268C594.221 832.951 592.961 833.293 591.535 833.293C589.387 833.293 587.644 832.546 586.306 831.052C584.978 829.558 584.313 827.58 584.313 825.119V824.929ZM587.038 825.251C587.038 827.009 587.443 828.42 588.254 829.484C589.074 830.549 590.168 831.081 591.535 831.081C592.912 831.081 594.006 830.544 594.816 829.47C595.627 828.386 596.032 826.872 596.032 824.929C596.032 823.19 595.617 821.784 594.787 820.71C593.967 819.626 592.873 819.084 591.506 819.084C590.168 819.084 589.089 819.616 588.269 820.681C587.448 821.745 587.038 823.269 587.038 825.251ZM611.369 828.796C611.369 828.063 611.091 827.497 610.534 827.097C609.987 826.687 609.025 826.335 607.648 826.042C606.281 825.749 605.192 825.397 604.382 824.987C603.581 824.577 602.985 824.089 602.595 823.522C602.214 822.956 602.023 822.282 602.023 821.501C602.023 820.202 602.57 819.104 603.664 818.205C604.768 817.307 606.174 816.857 607.883 816.857C609.68 816.857 611.135 817.321 612.248 818.249C613.371 819.177 613.933 820.363 613.933 821.809H611.208C611.208 821.066 610.891 820.427 610.256 819.89C609.631 819.353 608.84 819.084 607.883 819.084C606.896 819.084 606.125 819.299 605.568 819.729C605.012 820.158 604.733 820.72 604.733 821.413C604.733 822.067 604.992 822.561 605.51 822.893C606.027 823.225 606.96 823.542 608.308 823.845C609.665 824.147 610.764 824.509 611.604 824.929C612.443 825.349 613.063 825.856 613.464 826.452C613.874 827.038 614.079 827.756 614.079 828.605C614.079 830.021 613.513 831.159 612.38 832.019C611.247 832.868 609.777 833.293 607.971 833.293C606.701 833.293 605.578 833.068 604.602 832.619C603.625 832.17 602.858 831.545 602.302 830.744C601.755 829.934 601.481 829.06 601.481 828.122H604.191C604.24 829.03 604.602 829.753 605.275 830.29C605.959 830.817 606.857 831.081 607.971 831.081C608.996 831.081 609.816 830.876 610.432 830.466C611.057 830.046 611.369 829.489 611.369 828.796ZM621.286 813.312V817.15H624.245V819.245H621.286V829.074C621.286 829.709 621.418 830.188 621.682 830.51C621.945 830.822 622.395 830.979 623.029 830.979C623.342 830.979 623.771 830.92 624.318 830.803V833C623.605 833.195 622.912 833.293 622.238 833.293C621.027 833.293 620.114 832.927 619.499 832.194C618.884 831.462 618.576 830.422 618.576 829.074V819.245H615.69V817.15H618.576V813.312H621.286ZM473.469 860.251C473.469 862.673 472.912 864.621 471.799 866.096C470.686 867.561 469.191 868.293 467.316 868.293C465.314 868.293 463.767 867.585 462.673 866.169L462.541 868H460.051V845.5H462.761V853.894C463.854 852.536 465.363 851.857 467.287 851.857C469.211 851.857 470.72 852.585 471.813 854.04C472.917 855.495 473.469 857.487 473.469 860.017V860.251ZM470.759 859.943C470.759 858.098 470.402 856.672 469.689 855.666C468.977 854.66 467.951 854.157 466.613 854.157C464.826 854.157 463.542 854.987 462.761 856.647V863.503C463.591 865.163 464.885 865.993 466.643 865.993C467.941 865.993 468.952 865.49 469.675 864.484C470.397 863.479 470.759 861.965 470.759 859.943ZM486.682 866.433C485.627 867.673 484.079 868.293 482.038 868.293C480.349 868.293 479.06 867.805 478.171 866.828C477.292 865.842 476.848 864.387 476.838 862.463V852.15H479.548V862.39C479.548 864.792 480.524 865.993 482.478 865.993C484.548 865.993 485.925 865.222 486.608 863.679V852.15H489.318V868H486.74L486.682 866.433ZM497.126 848.312V852.15H500.085V854.245H497.126V864.074C497.126 864.709 497.258 865.188 497.521 865.51C497.785 865.822 498.234 865.979 498.869 865.979C499.182 865.979 499.611 865.92 500.158 865.803V868C499.445 868.195 498.752 868.293 498.078 868.293C496.867 868.293 495.954 867.927 495.339 867.194C494.724 866.462 494.416 865.422 494.416 864.074V854.245H491.53V852.15H494.416V848.312H497.126ZM506.94 848.312V852.15H509.899V854.245H506.94V864.074C506.94 864.709 507.072 865.188 507.336 865.51C507.6 865.822 508.049 865.979 508.684 865.979C508.996 865.979 509.426 865.92 509.973 865.803V868C509.26 868.195 508.566 868.293 507.893 868.293C506.682 868.293 505.769 867.927 505.153 867.194C504.538 866.462 504.23 865.422 504.23 864.074V854.245H501.345V852.15H504.23V848.312H506.94ZM512.067 859.929C512.067 858.376 512.37 856.979 512.976 855.739C513.591 854.499 514.44 853.542 515.524 852.868C516.618 852.194 517.863 851.857 519.26 851.857C521.418 851.857 523.161 852.604 524.489 854.099C525.827 855.593 526.496 857.58 526.496 860.061V860.251C526.496 861.794 526.198 863.181 525.603 864.411C525.017 865.632 524.172 866.584 523.068 867.268C521.975 867.951 520.715 868.293 519.289 868.293C517.141 868.293 515.397 867.546 514.06 866.052C512.731 864.558 512.067 862.58 512.067 860.119V859.929ZM514.792 860.251C514.792 862.009 515.197 863.42 516.008 864.484C516.828 865.549 517.922 866.081 519.289 866.081C520.666 866.081 521.76 865.544 522.57 864.47C523.381 863.386 523.786 861.872 523.786 859.929C523.786 858.19 523.371 856.784 522.541 855.71C521.721 854.626 520.627 854.084 519.26 854.084C517.922 854.084 516.843 854.616 516.022 855.681C515.202 856.745 514.792 858.269 514.792 860.251ZM532.458 852.15L532.546 854.143C533.757 852.619 535.339 851.857 537.292 851.857C540.642 851.857 542.331 853.747 542.36 857.526V868H539.65V857.512C539.641 856.369 539.377 855.524 538.859 854.978C538.352 854.431 537.556 854.157 536.472 854.157C535.593 854.157 534.821 854.392 534.157 854.86C533.493 855.329 532.976 855.944 532.604 856.706V868H529.895V852.15H532.458Z" fill="#C6C6C6"/>
<path d="M282.469 1118.25C282.469 1120.67 281.912 1122.62 280.799 1124.1C279.686 1125.56 278.191 1126.29 276.316 1126.29C274.314 1126.29 272.767 1125.58 271.673 1124.17L271.541 1126H269.051V1103.5H271.761V1111.89C272.854 1110.54 274.363 1109.86 276.287 1109.86C278.211 1109.86 279.72 1110.58 280.813 1112.04C281.917 1113.5 282.469 1115.49 282.469 1118.02V1118.25ZM279.759 1117.94C279.759 1116.1 279.402 1114.67 278.689 1113.67C277.977 1112.66 276.951 1112.16 275.613 1112.16C273.826 1112.16 272.542 1112.99 271.761 1114.65V1121.5C272.591 1123.16 273.885 1123.99 275.643 1123.99C276.941 1123.99 277.952 1123.49 278.675 1122.48C279.397 1121.48 279.759 1119.96 279.759 1117.94ZM285.179 1117.93C285.179 1116.38 285.481 1114.98 286.087 1113.74C286.702 1112.5 287.552 1111.54 288.636 1110.87C289.729 1110.19 290.975 1109.86 292.371 1109.86C294.529 1109.86 296.272 1110.6 297.601 1112.1C298.938 1113.59 299.607 1115.58 299.607 1118.06V1118.25C299.607 1119.79 299.31 1121.18 298.714 1122.41C298.128 1123.63 297.283 1124.58 296.18 1125.27C295.086 1125.95 293.826 1126.29 292.4 1126.29C290.252 1126.29 288.509 1125.55 287.171 1124.05C285.843 1122.56 285.179 1120.58 285.179 1118.12V1117.93ZM287.903 1118.25C287.903 1120.01 288.309 1121.42 289.119 1122.48C289.939 1123.55 291.033 1124.08 292.4 1124.08C293.777 1124.08 294.871 1123.54 295.682 1122.47C296.492 1121.39 296.897 1119.87 296.897 1117.93C296.897 1116.19 296.482 1114.78 295.652 1113.71C294.832 1112.63 293.738 1112.08 292.371 1112.08C291.033 1112.08 289.954 1112.62 289.134 1113.68C288.313 1114.75 287.903 1116.27 287.903 1118.25ZM302.288 1117.93C302.288 1116.38 302.591 1114.98 303.196 1113.74C303.812 1112.5 304.661 1111.54 305.745 1110.87C306.839 1110.19 308.084 1109.86 309.48 1109.86C311.639 1109.86 313.382 1110.6 314.71 1112.1C316.048 1113.59 316.717 1115.58 316.717 1118.06V1118.25C316.717 1119.79 316.419 1121.18 315.823 1122.41C315.237 1123.63 314.393 1124.58 313.289 1125.27C312.195 1125.95 310.936 1126.29 309.51 1126.29C307.361 1126.29 305.618 1125.55 304.28 1124.05C302.952 1122.56 302.288 1120.58 302.288 1118.12V1117.93ZM305.013 1118.25C305.013 1120.01 305.418 1121.42 306.229 1122.48C307.049 1123.55 308.143 1124.08 309.51 1124.08C310.887 1124.08 311.98 1123.54 312.791 1122.47C313.602 1121.39 314.007 1119.87 314.007 1117.93C314.007 1116.19 313.592 1114.78 312.762 1113.71C311.941 1112.63 310.848 1112.08 309.48 1112.08C308.143 1112.08 307.063 1112.62 306.243 1113.68C305.423 1114.75 305.013 1116.27 305.013 1118.25ZM324.539 1118.66L322.84 1120.43V1126H320.13V1103.5H322.84V1117.11L324.29 1115.37L329.227 1110.15H332.522L326.355 1116.77L333.24 1126H330.062L324.539 1118.66ZM352.547 1126C352.391 1125.69 352.264 1125.13 352.166 1124.33C350.906 1125.64 349.402 1126.29 347.654 1126.29C346.092 1126.29 344.808 1125.85 343.802 1124.97C342.806 1124.09 342.308 1122.96 342.308 1121.61C342.308 1119.96 342.933 1118.68 344.183 1117.77C345.442 1116.85 347.21 1116.39 349.485 1116.39H352.122V1115.15C352.122 1114.2 351.839 1113.45 351.272 1112.89C350.706 1112.32 349.871 1112.04 348.768 1112.04C347.801 1112.04 346.99 1112.28 346.336 1112.77C345.682 1113.26 345.354 1113.85 345.354 1114.54H342.63C342.63 1113.75 342.908 1112.99 343.465 1112.26C344.031 1111.52 344.793 1110.93 345.75 1110.5C346.717 1110.07 347.776 1109.86 348.929 1109.86C350.755 1109.86 352.186 1110.32 353.221 1111.23C354.256 1112.14 354.793 1113.4 354.832 1115V1122.29C354.832 1123.75 355.018 1124.91 355.389 1125.77V1126H352.547ZM348.05 1123.93C348.899 1123.93 349.705 1123.71 350.467 1123.28C351.229 1122.84 351.78 1122.26 352.122 1121.56V1118.31H349.998C346.678 1118.31 345.018 1119.28 345.018 1121.22C345.018 1122.07 345.301 1122.74 345.867 1123.22C346.434 1123.7 347.161 1123.93 348.05 1123.93ZM371.751 1122.32L375.677 1110.15H378.445L372.762 1126H370.696L364.954 1110.15H367.723L371.751 1122.32ZM383.997 1126H381.287V1110.15H383.997V1126ZM381.067 1105.95C381.067 1105.51 381.199 1105.14 381.463 1104.83C381.736 1104.53 382.137 1104.38 382.664 1104.38C383.191 1104.38 383.592 1104.53 383.865 1104.83C384.139 1105.14 384.275 1105.51 384.275 1105.95C384.275 1106.39 384.139 1106.75 383.865 1107.04C383.592 1107.34 383.191 1107.48 382.664 1107.48C382.137 1107.48 381.736 1107.34 381.463 1107.04C381.199 1106.75 381.067 1106.39 381.067 1105.95ZM397.576 1121.8C397.576 1121.06 397.298 1120.5 396.741 1120.1C396.194 1119.69 395.232 1119.33 393.855 1119.04C392.488 1118.75 391.399 1118.4 390.589 1117.99C389.788 1117.58 389.192 1117.09 388.802 1116.52C388.421 1115.96 388.23 1115.28 388.23 1114.5C388.23 1113.2 388.777 1112.1 389.871 1111.21C390.975 1110.31 392.381 1109.86 394.09 1109.86C395.887 1109.86 397.342 1110.32 398.455 1111.25C399.578 1112.18 400.14 1113.36 400.14 1114.81H397.415C397.415 1114.07 397.098 1113.43 396.463 1112.89C395.838 1112.35 395.047 1112.08 394.09 1112.08C393.104 1112.08 392.332 1112.3 391.775 1112.73C391.219 1113.16 390.94 1113.72 390.94 1114.41C390.94 1115.07 391.199 1115.56 391.717 1115.89C392.234 1116.22 393.167 1116.54 394.515 1116.84C395.872 1117.15 396.971 1117.51 397.811 1117.93C398.65 1118.35 399.271 1118.86 399.671 1119.45C400.081 1120.04 400.286 1120.76 400.286 1121.61C400.286 1123.02 399.72 1124.16 398.587 1125.02C397.454 1125.87 395.984 1126.29 394.178 1126.29C392.908 1126.29 391.785 1126.07 390.809 1125.62C389.832 1125.17 389.065 1124.54 388.509 1123.74C387.962 1122.93 387.688 1122.06 387.688 1121.12H390.398C390.447 1122.03 390.809 1122.75 391.482 1123.29C392.166 1123.82 393.064 1124.08 394.178 1124.08C395.203 1124.08 396.023 1123.88 396.639 1123.47C397.264 1123.05 397.576 1122.49 397.576 1121.8ZM406.761 1126H404.051V1110.15H406.761V1126ZM403.831 1105.95C403.831 1105.51 403.963 1105.14 404.227 1104.83C404.5 1104.53 404.9 1104.38 405.428 1104.38C405.955 1104.38 406.355 1104.53 406.629 1104.83C406.902 1105.14 407.039 1105.51 407.039 1105.95C407.039 1106.39 406.902 1106.75 406.629 1107.04C406.355 1107.34 405.955 1107.48 405.428 1107.48C404.9 1107.48 404.5 1107.34 404.227 1107.04C403.963 1106.75 403.831 1106.39 403.831 1105.95ZM414.788 1106.31V1110.15H417.747V1112.25H414.788V1122.07C414.788 1122.71 414.92 1123.19 415.184 1123.51C415.447 1123.82 415.896 1123.98 416.531 1123.98C416.844 1123.98 417.273 1123.92 417.82 1123.8V1126C417.107 1126.2 416.414 1126.29 415.74 1126.29C414.529 1126.29 413.616 1125.93 413.001 1125.19C412.386 1124.46 412.078 1123.42 412.078 1122.07V1112.25H409.192V1110.15H412.078V1106.31H414.788ZM441.785 1118.25C441.785 1120.67 441.229 1122.62 440.115 1124.1C439.002 1125.56 437.508 1126.29 435.633 1126.29C433.631 1126.29 432.083 1125.58 430.989 1124.17L430.857 1126H428.367V1103.5H431.077V1111.89C432.171 1110.54 433.68 1109.86 435.604 1109.86C437.527 1109.86 439.036 1110.58 440.13 1112.04C441.233 1113.5 441.785 1115.49 441.785 1118.02V1118.25ZM439.075 1117.94C439.075 1116.1 438.719 1114.67 438.006 1113.67C437.293 1112.66 436.268 1112.16 434.93 1112.16C433.143 1112.16 431.858 1112.99 431.077 1114.65V1121.5C431.907 1123.16 433.201 1123.99 434.959 1123.99C436.258 1123.99 437.269 1123.49 437.991 1122.48C438.714 1121.48 439.075 1119.96 439.075 1117.94ZM454.998 1124.43C453.943 1125.67 452.396 1126.29 450.354 1126.29C448.665 1126.29 447.376 1125.8 446.487 1124.83C445.608 1123.84 445.164 1122.39 445.154 1120.46V1110.15H447.864V1120.39C447.864 1122.79 448.841 1123.99 450.794 1123.99C452.864 1123.99 454.241 1123.22 454.925 1121.68V1110.15H457.635V1126H455.057L454.998 1124.43ZM465.442 1106.31V1110.15H468.401V1112.25H465.442V1122.07C465.442 1122.71 465.574 1123.19 465.838 1123.51C466.102 1123.82 466.551 1123.98 467.186 1123.98C467.498 1123.98 467.928 1123.92 468.475 1123.8V1126C467.762 1126.2 467.068 1126.29 466.395 1126.29C465.184 1126.29 464.271 1125.93 463.655 1125.19C463.04 1124.46 462.732 1123.42 462.732 1122.07V1112.25H459.847V1110.15H462.732V1106.31H465.442ZM475.257 1106.31V1110.15H478.216V1112.25H475.257V1122.07C475.257 1122.71 475.389 1123.19 475.652 1123.51C475.916 1123.82 476.365 1123.98 477 1123.98C477.312 1123.98 477.742 1123.92 478.289 1123.8V1126C477.576 1126.2 476.883 1126.29 476.209 1126.29C474.998 1126.29 474.085 1125.93 473.47 1125.19C472.854 1124.46 472.547 1123.42 472.547 1122.07V1112.25H469.661V1110.15H472.547V1106.31H475.257ZM480.384 1117.93C480.384 1116.38 480.687 1114.98 481.292 1113.74C481.907 1112.5 482.757 1111.54 483.841 1110.87C484.935 1110.19 486.18 1109.86 487.576 1109.86C489.734 1109.86 491.478 1110.6 492.806 1112.1C494.144 1113.59 494.812 1115.58 494.812 1118.06V1118.25C494.812 1119.79 494.515 1121.18 493.919 1122.41C493.333 1123.63 492.488 1124.58 491.385 1125.27C490.291 1125.95 489.031 1126.29 487.605 1126.29C485.457 1126.29 483.714 1125.55 482.376 1124.05C481.048 1122.56 480.384 1120.58 480.384 1118.12V1117.93ZM483.108 1118.25C483.108 1120.01 483.514 1121.42 484.324 1122.48C485.145 1123.55 486.238 1124.08 487.605 1124.08C488.982 1124.08 490.076 1123.54 490.887 1122.47C491.697 1121.39 492.103 1119.87 492.103 1117.93C492.103 1116.19 491.688 1114.78 490.857 1113.71C490.037 1112.63 488.943 1112.08 487.576 1112.08C486.238 1112.08 485.159 1112.62 484.339 1113.68C483.519 1114.75 483.108 1116.27 483.108 1118.25ZM500.774 1110.15L500.862 1112.14C502.073 1110.62 503.655 1109.86 505.608 1109.86C508.958 1109.86 510.647 1111.75 510.677 1115.53V1126H507.967V1115.51C507.957 1114.37 507.693 1113.52 507.176 1112.98C506.668 1112.43 505.872 1112.16 504.788 1112.16C503.909 1112.16 503.138 1112.39 502.474 1112.86C501.81 1113.33 501.292 1113.94 500.921 1114.71V1126H498.211V1110.15H500.774Z" fill="#C6C6C6"/>
<path d="M40.9951 927H38.2852V911.15H40.9951V927ZM38.0654 906.946C38.0654 906.507 38.1973 906.136 38.4609 905.833C38.7344 905.53 39.1348 905.379 39.6621 905.379C40.1895 905.379 40.5898 905.53 40.8633 905.833C41.1367 906.136 41.2734 906.507 41.2734 906.946C41.2734 907.386 41.1367 907.752 40.8633 908.045C40.5898 908.338 40.1895 908.484 39.6621 908.484C39.1348 908.484 38.7344 908.338 38.4609 908.045C38.1973 907.752 38.0654 907.386 38.0654 906.946ZM47.9092 911.15L47.9971 913.143C49.208 911.619 50.79 910.857 52.7432 910.857C56.0928 910.857 57.7822 912.747 57.8115 916.526V927H55.1016V916.512C55.0918 915.369 54.8281 914.524 54.3105 913.978C53.8027 913.431 53.0068 913.157 51.9229 913.157C51.0439 913.157 50.2725 913.392 49.6084 913.86C48.9443 914.329 48.4268 914.944 48.0557 915.706V927H45.3457V911.15H47.9092ZM63.2314 927V913.245H60.7266V911.15H63.2314V909.524C63.2314 907.825 63.6855 906.512 64.5938 905.584C65.502 904.656 66.7861 904.192 68.4463 904.192C69.0713 904.192 69.6914 904.275 70.3066 904.441L70.1602 906.639C69.7012 906.551 69.2129 906.507 68.6953 906.507C67.8164 906.507 67.1377 906.766 66.6592 907.283C66.1807 907.791 65.9414 908.523 65.9414 909.48V911.15H69.3252V913.245H65.9414V927H63.2314ZM71.6104 918.929C71.6104 917.376 71.9131 915.979 72.5186 914.739C73.1338 913.499 73.9834 912.542 75.0674 911.868C76.1611 911.194 77.4062 910.857 78.8027 910.857C80.9609 910.857 82.7041 911.604 84.0322 913.099C85.3701 914.593 86.0391 916.58 86.0391 919.061V919.251C86.0391 920.794 85.7412 922.181 85.1455 923.411C84.5596 924.632 83.7148 925.584 82.6113 926.268C81.5176 926.951 80.2578 927.293 78.832 927.293C76.6836 927.293 74.9404 926.546 73.6025 925.052C72.2744 923.558 71.6104 921.58 71.6104 919.119V918.929ZM74.335 919.251C74.335 921.009 74.7402 922.42 75.5508 923.484C76.3711 924.549 77.4648 925.081 78.832 925.081C80.209 925.081 81.3027 924.544 82.1133 923.47C82.9238 922.386 83.3291 920.872 83.3291 918.929C83.3291 917.19 82.9141 915.784 82.084 914.71C81.2637 913.626 80.1699 913.084 78.8027 913.084C77.4648 913.084 76.3857 913.616 75.5654 914.681C74.7451 915.745 74.335 917.269 74.335 919.251ZM106.664 927C106.508 926.688 106.381 926.131 106.283 925.33C105.023 926.639 103.52 927.293 101.771 927.293C100.209 927.293 98.9248 926.854 97.9189 925.975C96.9229 925.086 96.4248 923.963 96.4248 922.605C96.4248 920.955 97.0498 919.676 98.2998 918.768C99.5596 917.85 101.327 917.391 103.603 917.391H106.239V916.146C106.239 915.198 105.956 914.446 105.39 913.89C104.823 913.323 103.988 913.04 102.885 913.04C101.918 913.04 101.107 913.284 100.453 913.772C99.7988 914.261 99.4717 914.852 99.4717 915.545H96.7471C96.7471 914.754 97.0254 913.992 97.582 913.26C98.1484 912.518 98.9102 911.932 99.8672 911.502C100.834 911.072 101.894 910.857 103.046 910.857C104.872 910.857 106.303 911.316 107.338 912.234C108.373 913.143 108.91 914.397 108.949 915.999V923.294C108.949 924.749 109.135 925.906 109.506 926.766V927H106.664ZM102.167 924.935C103.017 924.935 103.822 924.715 104.584 924.275C105.346 923.836 105.897 923.265 106.239 922.562V919.31H104.115C100.795 919.31 99.1348 920.281 99.1348 922.225C99.1348 923.074 99.418 923.738 99.9844 924.217C100.551 924.695 101.278 924.935 102.167 924.935ZM126.615 919.251C126.615 921.673 126.059 923.621 124.945 925.096C123.832 926.561 122.338 927.293 120.463 927.293C118.461 927.293 116.913 926.585 115.819 925.169L115.688 927H113.197V904.5H115.907V912.894C117.001 911.536 118.51 910.857 120.434 910.857C122.357 910.857 123.866 911.585 124.96 913.04C126.063 914.495 126.615 916.487 126.615 919.017V919.251ZM123.905 918.943C123.905 917.098 123.549 915.672 122.836 914.666C122.123 913.66 121.098 913.157 119.76 913.157C117.973 913.157 116.688 913.987 115.907 915.647V922.503C116.737 924.163 118.031 924.993 119.789 924.993C121.088 924.993 122.099 924.49 122.821 923.484C123.544 922.479 123.905 920.965 123.905 918.943ZM129.325 918.929C129.325 917.376 129.628 915.979 130.233 914.739C130.849 913.499 131.698 912.542 132.782 911.868C133.876 911.194 135.121 910.857 136.518 910.857C138.676 910.857 140.419 911.604 141.747 913.099C143.085 914.593 143.754 916.58 143.754 919.061V919.251C143.754 920.794 143.456 922.181 142.86 923.411C142.274 924.632 141.43 925.584 140.326 926.268C139.232 926.951 137.973 927.293 136.547 927.293C134.398 927.293 132.655 926.546 131.317 925.052C129.989 923.558 129.325 921.58 129.325 919.119V918.929ZM132.05 919.251C132.05 921.009 132.455 922.42 133.266 923.484C134.086 924.549 135.18 925.081 136.547 925.081C137.924 925.081 139.018 924.544 139.828 923.47C140.639 922.386 141.044 920.872 141.044 918.929C141.044 917.19 140.629 915.784 139.799 914.71C138.979 913.626 137.885 913.084 136.518 913.084C135.18 913.084 134.101 913.616 133.28 914.681C132.46 915.745 132.05 917.269 132.05 919.251ZM156.938 925.433C155.883 926.673 154.335 927.293 152.294 927.293C150.604 927.293 149.315 926.805 148.427 925.828C147.548 924.842 147.104 923.387 147.094 921.463V911.15H149.804V921.39C149.804 923.792 150.78 924.993 152.733 924.993C154.804 924.993 156.181 924.222 156.864 922.679V911.15H159.574V927H156.996L156.938 925.433ZM167.382 907.312V911.15H170.341V913.245H167.382V923.074C167.382 923.709 167.514 924.188 167.777 924.51C168.041 924.822 168.49 924.979 169.125 924.979C169.438 924.979 169.867 924.92 170.414 924.803V927C169.701 927.195 169.008 927.293 168.334 927.293C167.123 927.293 166.21 926.927 165.595 926.194C164.979 925.462 164.672 924.422 164.672 923.074V913.245H161.786V911.15H164.672V907.312H167.382ZM194.35 919.251C194.35 921.663 193.798 923.606 192.694 925.081C191.591 926.556 190.097 927.293 188.212 927.293C186.288 927.293 184.774 926.683 183.671 925.462V933.094H180.961V911.15H183.437L183.568 912.908C184.672 911.541 186.205 910.857 188.168 910.857C190.072 910.857 191.576 911.575 192.68 913.011C193.793 914.446 194.35 916.443 194.35 919.002V919.251ZM191.64 918.943C191.64 917.156 191.259 915.745 190.497 914.71C189.735 913.675 188.69 913.157 187.362 913.157C185.722 913.157 184.491 913.885 183.671 915.34V922.913C184.481 924.358 185.722 925.081 187.392 925.081C188.69 925.081 189.721 924.568 190.482 923.543C191.254 922.508 191.64 920.975 191.64 918.943ZM205.468 913.582C205.058 913.514 204.613 913.479 204.135 913.479C202.357 913.479 201.151 914.236 200.517 915.75V927H197.807V911.15H200.443L200.487 912.981C201.376 911.565 202.636 910.857 204.267 910.857C204.794 910.857 205.194 910.926 205.468 911.062V913.582ZM210.917 927H208.207V911.15H210.917V927ZM207.987 906.946C207.987 906.507 208.119 906.136 208.383 905.833C208.656 905.53 209.057 905.379 209.584 905.379C210.111 905.379 210.512 905.53 210.785 905.833C211.059 906.136 211.195 906.507 211.195 906.946C211.195 907.386 211.059 907.752 210.785 908.045C210.512 908.338 210.111 908.484 209.584 908.484C209.057 908.484 208.656 908.338 208.383 908.045C208.119 907.752 207.987 907.386 207.987 906.946ZM221.625 925.081C222.592 925.081 223.437 924.788 224.159 924.202C224.882 923.616 225.282 922.884 225.36 922.005H227.924C227.875 922.913 227.562 923.777 226.986 924.598C226.41 925.418 225.639 926.072 224.672 926.561C223.715 927.049 222.699 927.293 221.625 927.293C219.467 927.293 217.748 926.575 216.469 925.14C215.199 923.694 214.564 921.722 214.564 919.222V918.768C214.564 917.225 214.848 915.853 215.414 914.651C215.98 913.45 216.791 912.518 217.846 911.854C218.91 911.189 220.165 910.857 221.61 910.857C223.388 910.857 224.862 911.39 226.034 912.454C227.216 913.519 227.846 914.9 227.924 916.6H225.36C225.282 915.574 224.892 914.734 224.188 914.08C223.495 913.416 222.636 913.084 221.61 913.084C220.233 913.084 219.164 913.582 218.402 914.578C217.65 915.564 217.274 916.995 217.274 918.87V919.383C217.274 921.209 217.65 922.615 218.402 923.602C219.154 924.588 220.229 925.081 221.625 925.081ZM237.548 927.293C235.399 927.293 233.651 926.59 232.304 925.184C230.956 923.768 230.282 921.878 230.282 919.515V919.017C230.282 917.444 230.58 916.043 231.176 914.812C231.781 913.572 232.621 912.605 233.695 911.912C234.779 911.209 235.951 910.857 237.211 910.857C239.271 910.857 240.873 911.536 242.016 912.894C243.158 914.251 243.729 916.194 243.729 918.724V919.852H232.992C233.031 921.414 233.485 922.679 234.354 923.646C235.233 924.603 236.347 925.081 237.694 925.081C238.651 925.081 239.462 924.886 240.126 924.495C240.79 924.104 241.371 923.587 241.869 922.942L243.524 924.231C242.196 926.272 240.204 927.293 237.548 927.293ZM237.211 913.084C236.117 913.084 235.199 913.484 234.457 914.285C233.715 915.076 233.256 916.189 233.08 917.625H241.02V917.42C240.941 916.043 240.57 914.979 239.906 914.227C239.242 913.465 238.344 913.084 237.211 913.084ZM264.706 919.075H259.081C259.12 920.979 259.579 922.444 260.458 923.47C261.337 924.495 262.582 925.008 264.193 925.008C265.326 925.008 266.391 924.842 267.387 924.51L267.68 926.854C266.508 927.146 265.336 927.293 264.164 927.293C261.742 927.293 259.833 926.58 258.437 925.154C257.05 923.719 256.327 921.692 256.269 919.075H253.661V917.259H256.269V915.252H253.661V913.421H256.269C256.366 910.862 257.108 908.885 258.495 907.488C259.892 906.082 261.776 905.379 264.149 905.379C265.185 905.379 266.361 905.53 267.68 905.833L267.387 908.206C266.322 907.864 265.253 907.693 264.179 907.693C262.577 907.693 261.342 908.191 260.473 909.188C259.613 910.174 259.154 911.585 259.096 913.421H264.706V915.252H259.081V917.259H264.706V919.075ZM281.552 919.075H275.927C275.966 920.979 276.425 922.444 277.304 923.47C278.183 924.495 279.428 925.008 281.039 925.008C282.172 925.008 283.236 924.842 284.232 924.51L284.525 926.854C283.354 927.146 282.182 927.293 281.01 927.293C278.588 927.293 276.679 926.58 275.282 925.154C273.896 923.719 273.173 921.692 273.114 919.075H270.507V917.259H273.114V915.252H270.507V913.421H273.114C273.212 910.862 273.954 908.885 275.341 907.488C276.737 906.082 278.622 905.379 280.995 905.379C282.03 905.379 283.207 905.53 284.525 905.833L284.232 908.206C283.168 907.864 282.099 907.693 281.024 907.693C279.423 907.693 278.188 908.191 277.318 909.188C276.459 910.174 276 911.585 275.941 913.421H281.552V915.252H275.927V917.259H281.552V919.075ZM298.397 919.075H292.772C292.812 920.979 293.271 922.444 294.149 923.47C295.028 924.495 296.273 925.008 297.885 925.008C299.018 925.008 300.082 924.842 301.078 924.51L301.371 926.854C300.199 927.146 299.027 927.293 297.855 927.293C295.434 927.293 293.524 926.58 292.128 925.154C290.741 923.719 290.019 921.692 289.96 919.075H287.353V917.259H289.96V915.252H287.353V913.421H289.96C290.058 910.862 290.8 908.885 292.187 907.488C293.583 906.082 295.468 905.379 297.841 905.379C298.876 905.379 300.053 905.53 301.371 905.833L301.078 908.206C300.014 907.864 298.944 907.693 297.87 907.693C296.269 907.693 295.033 908.191 294.164 909.188C293.305 910.174 292.846 911.585 292.787 913.421H298.397V915.252H292.772V917.259H298.397V919.075Z" fill="#C6C6C6"/>
</svg>
