<svg width="972" height="1171" viewBox="0 0 972 1171" fill="none" xmlns="http://www.w3.org/2000/svg">
<rect x="75.5" y="2.5" width="894" height="1167" stroke="#C6C6C6" stroke-width="3"/>
<rect x="75.5" y="2.5" width="164" height="1167" stroke="#C6C6C6" stroke-width="3"/>
<rect x="116.5" y="126.5" width="74" height="200" rx="18.5" stroke="#C6C6C6" stroke-width="3"/>
<rect x="111.5" y="897.5" width="74" height="200" rx="18.5" stroke="#C6C6C6" stroke-width="3"/>
<rect x="888.892" y="1019.47" width="74" height="291.989" rx="18.5" transform="rotate(91.4005 888.892 1019.47)" stroke="#C6C6C6" stroke-width="3"/>
<rect x="548.505" y="1022.51" width="74" height="200" rx="18.5" transform="rotate(89.6799 548.505 1022.51)" stroke="#C6C6C6" stroke-width="3"/>
<rect x="116.5" y="386.5" width="74" height="200" rx="18.5" stroke="#C6C6C6" stroke-width="3"/>
<rect x="116.5" y="637.5" width="74" height="200" rx="18.5" stroke="#C6C6C6" stroke-width="3"/>
<line x1="240.576" y1="1170.74" x2="970.576" y2="0.735368" stroke="#C6C6C6"/>
<line x1="241.423" y1="0.73369" x2="971.423" y2="1160.73" stroke="#C6C6C6"/>
<rect x="292.5" y="643.5" width="611" height="158" stroke="#C6C6C6" stroke-width="3"/>
<rect x="362.5" y="45.5" width="471" height="103" stroke="#C6C6C6" stroke-width="3"/>
<rect x="288.5" y="834.5" width="618" height="275" stroke="#C6C6C6" stroke-width="3"/>
<line x1="287" y1="971.5" x2="905" y2="971.5" stroke="#C6C6C6"/>
<path d="M491.279 110.796C491.279 110.063 491.001 109.497 490.444 109.097C489.897 108.687 488.936 108.335 487.559 108.042C486.191 107.749 485.103 107.397 484.292 106.987C483.491 106.577 482.896 106.089 482.505 105.522C482.124 104.956 481.934 104.282 481.934 103.501C481.934 102.202 482.48 101.104 483.574 100.205C484.678 99.3066 486.084 98.8574 487.793 98.8574C489.59 98.8574 491.045 99.3213 492.158 100.249C493.281 101.177 493.843 102.363 493.843 103.809H491.118C491.118 103.066 490.801 102.427 490.166 101.89C489.541 101.353 488.75 101.084 487.793 101.084C486.807 101.084 486.035 101.299 485.479 101.729C484.922 102.158 484.644 102.72 484.644 103.413C484.644 104.067 484.902 104.561 485.42 104.893C485.938 105.225 486.87 105.542 488.218 105.845C489.575 106.147 490.674 106.509 491.514 106.929C492.354 107.349 492.974 107.856 493.374 108.452C493.784 109.038 493.989 109.756 493.989 110.605C493.989 112.021 493.423 113.159 492.29 114.019C491.157 114.868 489.688 115.293 487.881 115.293C486.611 115.293 485.488 115.068 484.512 114.619C483.535 114.17 482.769 113.545 482.212 112.744C481.665 111.934 481.392 111.06 481.392 110.122H484.102C484.15 111.03 484.512 111.753 485.186 112.29C485.869 112.817 486.768 113.081 487.881 113.081C488.906 113.081 489.727 112.876 490.342 112.466C490.967 112.046 491.279 111.489 491.279 110.796ZM504.097 115.293C501.948 115.293 500.2 114.59 498.853 113.184C497.505 111.768 496.831 109.878 496.831 107.515V107.017C496.831 105.444 497.129 104.043 497.725 102.812C498.33 101.572 499.17 100.605 500.244 99.9121C501.328 99.209 502.5 98.8574 503.76 98.8574C505.82 98.8574 507.422 99.5361 508.564 100.894C509.707 102.251 510.278 104.194 510.278 106.724V107.852H499.541C499.58 109.414 500.034 110.679 500.903 111.646C501.782 112.603 502.896 113.081 504.243 113.081C505.2 113.081 506.011 112.886 506.675 112.495C507.339 112.104 507.92 111.587 508.418 110.942L510.073 112.231C508.745 114.272 506.753 115.293 504.097 115.293ZM503.76 101.084C502.666 101.084 501.748 101.484 501.006 102.285C500.264 103.076 499.805 104.189 499.629 105.625H507.568V105.42C507.49 104.043 507.119 102.979 506.455 102.227C505.791 101.465 504.893 101.084 503.76 101.084ZM523.213 115C523.057 114.688 522.93 114.131 522.832 113.33C521.572 114.639 520.068 115.293 518.32 115.293C516.758 115.293 515.474 114.854 514.468 113.975C513.472 113.086 512.974 111.963 512.974 110.605C512.974 108.955 513.599 107.676 514.849 106.768C516.108 105.85 517.876 105.391 520.151 105.391H522.788V104.146C522.788 103.198 522.505 102.446 521.938 101.89C521.372 101.323 520.537 101.04 519.434 101.04C518.467 101.04 517.656 101.284 517.002 101.772C516.348 102.261 516.021 102.852 516.021 103.545H513.296C513.296 102.754 513.574 101.992 514.131 101.26C514.697 100.518 515.459 99.9316 516.416 99.502C517.383 99.0723 518.442 98.8574 519.595 98.8574C521.421 98.8574 522.852 99.3164 523.887 100.234C524.922 101.143 525.459 102.397 525.498 103.999V111.294C525.498 112.749 525.684 113.906 526.055 114.766V115H523.213ZM518.716 112.935C519.565 112.935 520.371 112.715 521.133 112.275C521.895 111.836 522.446 111.265 522.788 110.562V107.31H520.664C517.344 107.31 515.684 108.281 515.684 110.225C515.684 111.074 515.967 111.738 516.533 112.217C517.1 112.695 517.827 112.935 518.716 112.935ZM537.407 101.582C536.997 101.514 536.553 101.479 536.074 101.479C534.297 101.479 533.091 102.236 532.456 103.75V115H529.746V99.1504H532.383L532.427 100.981C533.315 99.5654 534.575 98.8574 536.206 98.8574C536.733 98.8574 537.134 98.9258 537.407 99.0625V101.582ZM545.977 113.081C546.943 113.081 547.788 112.788 548.511 112.202C549.233 111.616 549.634 110.884 549.712 110.005H552.275C552.227 110.913 551.914 111.777 551.338 112.598C550.762 113.418 549.99 114.072 549.023 114.561C548.066 115.049 547.051 115.293 545.977 115.293C543.818 115.293 542.1 114.575 540.82 113.14C539.551 111.694 538.916 109.722 538.916 107.222V106.768C538.916 105.225 539.199 103.853 539.766 102.651C540.332 101.45 541.143 100.518 542.197 99.8535C543.262 99.1895 544.517 98.8574 545.962 98.8574C547.739 98.8574 549.214 99.3896 550.386 100.454C551.567 101.519 552.197 102.9 552.275 104.6H549.712C549.634 103.574 549.243 102.734 548.54 102.08C547.847 101.416 546.987 101.084 545.962 101.084C544.585 101.084 543.516 101.582 542.754 102.578C542.002 103.564 541.626 104.995 541.626 106.87V107.383C541.626 109.209 542.002 110.615 542.754 111.602C543.506 112.588 544.58 113.081 545.977 113.081ZM558.032 101.069C559.233 99.5947 560.796 98.8574 562.72 98.8574C566.069 98.8574 567.759 100.747 567.788 104.526V115H565.078V104.512C565.068 103.369 564.805 102.524 564.287 101.978C563.779 101.431 562.983 101.157 561.899 101.157C561.021 101.157 560.249 101.392 559.585 101.86C558.921 102.329 558.403 102.944 558.032 103.706V115H555.322V92.5H558.032V101.069Z" fill="#DDD9D9"/>
<path d="M27.0432 528.571C27.0683 527.605 26.7974 526.753 26.2305 526.015C25.6636 525.277 24.9418 524.858 24.0652 524.757L24.1319 522.195C25.0385 522.267 25.8943 522.602 26.6994 523.199C27.5044 523.796 28.1385 524.585 28.6014 525.564C29.0647 526.533 29.2823 527.555 29.2544 528.629C29.1982 530.786 28.436 532.486 26.9677 533.727C25.4899 534.959 23.5014 535.542 21.0022 535.477L20.5483 535.465C19.0058 535.425 17.6416 535.106 16.4555 534.509C15.2695 533.911 14.3583 533.077 13.7219 532.005C13.0857 530.924 12.7864 529.661 12.824 528.216C12.8702 526.439 13.4406 524.979 14.5352 523.835C15.63 522.682 17.0278 522.088 18.7284 522.054L18.6618 524.617C17.6347 524.668 16.785 525.037 16.1126 525.723C15.4307 526.398 15.0765 527.249 15.0498 528.274C15.014 529.65 15.4841 530.732 16.46 531.52C17.4265 532.297 18.8469 532.71 20.7212 532.759L21.2338 532.772C23.0593 532.82 24.4749 532.48 25.4804 531.754C26.486 531.028 27.0069 529.967 27.0432 528.571ZM21.1173 519.786C19.5651 519.746 18.177 519.407 16.9529 518.769C15.7291 518.122 14.7945 517.248 14.149 516.147C13.5039 515.036 13.1995 513.782 13.2358 512.386C13.2919 510.229 14.0841 508.506 15.6122 507.217C17.1407 505.918 19.1447 505.301 21.6243 505.366L21.8147 505.371C23.3571 505.411 24.7356 505.745 25.9502 506.372C27.1552 506.99 28.0851 507.859 28.7398 508.98C29.3947 510.091 29.7036 511.359 29.6665 512.784C29.6107 514.932 28.8185 516.655 27.2901 517.954C25.7619 519.243 23.7678 519.855 21.3077 519.791L21.1173 519.786ZM21.5103 517.071C23.2675 517.117 24.6887 516.748 25.7739 515.966C26.8593 515.173 27.4198 514.094 27.4554 512.727C27.4912 511.35 26.9827 510.243 25.9299 509.405C24.8674 508.566 23.3648 508.122 21.4221 508.071C19.6844 508.026 18.2678 508.405 17.1723 509.206C16.0674 509.998 15.4971 511.078 15.4616 512.444C15.4268 513.782 15.9308 514.874 16.9735 515.722C18.0163 516.57 19.5286 517.019 21.5103 517.071ZM28.3371 492.352C29.5495 493.439 30.1291 495.002 30.076 497.043C30.0321 498.732 29.5105 500.008 28.5111 500.871C27.5023 501.723 26.0361 502.13 24.1127 502.09L13.8037 501.821L13.8742 499.112L24.11 499.379C26.5115 499.441 27.7376 498.496 27.7884 496.544C27.8423 494.474 27.1069 493.077 25.5822 492.354L14.0578 492.054L14.1282 489.345L29.9725 489.757L29.9054 492.335L28.3371 492.352ZM14.3023 482.653L16.2961 482.617C14.8047 481.367 14.0844 479.766 14.1352 477.813C14.2223 474.465 16.1552 472.825 19.934 472.894L30.4041 473.166L30.3336 475.875L19.8489 475.603C18.7064 475.583 17.8551 475.824 17.295 476.327C16.7351 476.821 16.441 477.609 16.4128 478.693C16.39 479.572 16.6042 480.349 17.0555 481.025C17.5069 481.701 18.1084 482.234 18.8603 482.625L30.1504 482.919L30.0799 485.628L14.2357 485.216L14.3023 482.653ZM10.9251 464.893L14.7617 464.993L14.8387 462.035L16.9327 462.09L16.8557 465.048L26.6815 465.303C27.3161 465.32 27.7978 465.2 28.1269 464.945C28.4461 464.69 28.614 464.245 28.6305 463.61C28.6386 463.298 28.5912 462.867 28.4883 462.317L30.6848 462.374C30.8615 463.092 30.9411 463.787 30.9236 464.461C30.8921 465.672 30.5023 466.575 29.7541 467.171C29.0059 467.767 27.9582 468.047 26.611 468.012L16.7853 467.757L16.7102 470.641L14.6162 470.587L14.6912 467.702L10.8547 467.602L10.9251 464.893ZM17.5514 451.262C17.4724 451.67 17.4266 452.114 17.4142 452.592C17.368 454.369 18.0932 455.594 19.5898 456.268L30.836 456.561L30.7656 459.27L14.9213 458.857L14.9899 456.222L16.8215 456.225C15.429 455.3 14.754 454.022 14.7964 452.392C14.8102 451.865 14.8889 451.466 15.0327 451.197L17.5514 451.262ZM27.2033 443.556L15.4234 439.557L15.4988 436.658L33.6228 443.504C36.233 444.558 37.5101 446.159 37.4543 448.307L37.397 448.818L37.1804 449.824L34.9838 449.767L35.0615 449.036C35.0853 448.118 34.9184 447.401 34.5606 446.884C34.2031 446.357 33.5357 445.914 32.5583 445.557L30.9632 444.914L15.1476 450.159L15.2245 447.201L27.2033 443.556ZM24.2023 413.585C26.6234 413.648 28.5565 414.255 30.0017 415.407C31.4371 416.558 32.1304 418.07 32.0816 419.945C32.0296 421.946 31.2815 423.475 29.8376 424.532L31.6646 424.711L31.5998 427.2L9.10741 426.615L9.17789 423.906L17.5686 424.124C16.2401 422.996 15.6008 421.47 15.6509 419.547C15.7009 417.624 16.4674 416.134 17.9504 415.079C19.4337 414.013 21.4396 413.514 23.968 413.579L24.2023 413.585ZM23.8243 416.286C21.9793 416.238 20.5447 416.558 19.5206 417.244C18.4966 417.931 17.9672 418.943 17.9324 420.28C17.8859 422.067 18.6823 423.372 20.3216 424.196L27.1747 424.374C28.8559 423.588 29.7194 422.316 29.7651 420.559C29.7988 419.26 29.3224 418.237 28.3356 417.488C27.3489 416.74 25.8451 416.339 23.8243 416.286ZM30.7255 400.538C31.9379 401.624 32.5175 403.188 32.4644 405.228C32.4205 406.917 31.8989 408.193 30.8995 409.056C29.8907 409.909 28.4245 410.315 26.5011 410.275L16.1921 410.007L16.2626 407.298L26.4984 407.564C28.8999 407.626 30.1261 406.681 30.1768 404.729C30.2307 402.659 29.4953 401.263 27.9706 400.539L16.4462 400.24L16.5166 397.531L32.3609 397.943L32.2939 400.52L30.7255 400.538ZM12.8831 389.626L16.7197 389.726L16.7966 386.768L18.8906 386.822L18.8137 389.78L28.6395 390.036C29.274 390.052 29.7558 389.933 30.0848 389.678C30.4041 389.422 30.572 388.977 30.5885 388.343C30.5966 388.03 30.5492 387.599 30.4463 387.049L32.6428 387.106C32.8195 387.824 32.8991 388.52 32.8816 389.193C32.8501 390.404 32.4602 391.307 31.7121 391.903C30.9639 392.499 29.9162 392.78 28.569 392.745L18.7432 392.489L18.6682 395.374L16.5742 395.319L16.6492 392.435L12.8126 392.335L12.8831 389.626ZM13.1383 379.815L16.9749 379.914L17.0519 376.956L19.1459 377.011L19.0689 379.969L28.8947 380.224C29.5292 380.241 30.011 380.122 30.34 379.866C30.6593 379.611 30.8272 379.166 30.8437 378.531C30.8518 378.219 30.8044 377.788 30.7015 377.238L32.898 377.295C33.0747 378.013 33.1543 378.709 33.1368 379.382C33.1053 380.593 32.7155 381.496 31.9673 382.092C31.2191 382.688 30.1714 382.969 28.8242 382.934L18.9984 382.678L18.9234 385.563L16.8294 385.508L16.9044 382.623L13.0678 382.524L13.1383 379.815ZM24.8839 374.991C23.3317 374.951 21.9436 374.612 20.7195 373.975C19.4957 373.327 18.5611 372.453 17.9157 371.352C17.2705 370.241 16.9661 368.988 17.0024 367.592C17.0585 365.434 17.8507 363.711 19.3788 362.422C20.9073 361.124 22.9113 360.507 25.3909 360.571L25.5813 360.576C27.1237 360.616 28.5022 360.95 29.7168 361.577C30.9219 362.195 31.8517 363.064 32.5064 364.185C33.1613 365.296 33.4702 366.564 33.4331 367.99C33.3773 370.137 32.5851 371.861 31.0567 373.159C29.5285 374.448 27.5344 375.06 25.0743 374.996L24.8839 374.991ZM25.2769 372.276C27.0341 372.322 28.4553 371.953 29.5405 371.171C30.6259 370.378 31.1864 369.299 31.222 367.932C31.2578 366.556 30.7493 365.448 29.6965 364.61C28.634 363.772 27.1314 363.327 25.1887 363.277C23.451 363.231 22.0344 363.61 20.939 364.412C19.834 365.203 19.2638 366.283 19.2282 367.65C19.1934 368.987 19.6974 370.08 20.7402 370.927C21.7829 371.775 23.2952 372.225 25.2769 372.276ZM17.6385 354.405L19.6323 354.369C18.1408 353.119 17.4205 351.518 17.4713 349.565C17.5584 346.217 19.4914 344.577 23.2701 344.646L33.7402 344.919L33.6698 347.628L23.185 347.355C22.0426 347.335 21.1913 347.577 20.6311 348.08C20.0712 348.573 19.7772 349.362 19.749 350.445C19.7262 351.324 19.9404 352.101 20.3917 352.777C20.843 353.453 21.4446 353.987 22.1964 354.377L33.4865 354.671L33.4161 357.38L17.5718 356.968L17.6385 354.405ZM29.8838 331.498C29.1516 331.479 28.5782 331.743 28.1635 332.289C27.7392 332.825 27.3628 333.777 27.0341 335.146C26.7057 336.505 26.3259 337.585 25.8948 338.384C25.464 339.174 24.9604 339.757 24.384 340.133C23.8079 340.499 23.1293 340.672 22.3483 340.651C21.0499 340.617 19.9659 340.042 19.0962 338.925C18.2268 337.799 17.8143 336.381 17.8587 334.673C17.9054 332.877 18.407 331.434 19.3634 330.345C20.32 329.247 21.5207 328.716 22.9655 328.754L22.8947 331.478C22.1527 331.458 21.5051 331.759 20.9516 332.38C20.3984 332.99 20.1094 333.774 20.0845 334.731C20.0589 335.717 20.2536 336.494 20.6687 337.061C21.0837 337.629 21.6378 337.922 22.3309 337.94C22.985 337.957 23.4847 337.711 23.8301 337.202C24.1755 336.693 24.517 335.769 24.8547 334.43C25.1926 333.081 25.5824 331.992 26.024 331.163C26.4657 330.335 26.9894 329.728 27.5953 329.343C28.1917 328.949 28.9146 328.762 29.7639 328.784C31.1795 328.821 32.302 329.417 33.1317 330.572C33.9515 331.726 34.338 333.207 34.291 335.013C34.258 336.282 34.0042 337.399 33.5298 338.363C33.0553 339.328 32.4106 340.078 31.5956 340.613C30.7711 341.139 29.8903 341.39 28.9531 341.365L29.0236 338.656C29.9327 338.631 30.6645 338.289 31.219 337.629C31.7639 336.959 32.0509 336.068 32.0798 334.955C32.1065 333.93 31.9228 333.105 31.5288 332.479C31.1253 331.843 30.5769 331.516 29.8838 331.498Z" fill="#DDD9D9"/>
<path d="M384.728 1046.31V1050.15H387.687V1052.25H384.728V1062.07C384.728 1062.71 384.859 1063.19 385.123 1063.51C385.387 1063.82 385.836 1063.98 386.471 1063.98C386.783 1063.98 387.213 1063.92 387.76 1063.8V1066C387.047 1066.2 386.354 1066.29 385.68 1066.29C384.469 1066.29 383.556 1065.93 382.94 1065.19C382.325 1064.46 382.018 1063.42 382.018 1062.07V1052.25H379.132V1050.15H382.018V1046.31H384.728ZM397.442 1066.29C395.294 1066.29 393.546 1065.59 392.198 1064.18C390.851 1062.77 390.177 1060.88 390.177 1058.51V1058.02C390.177 1056.44 390.475 1055.04 391.07 1053.81C391.676 1052.57 392.516 1051.61 393.59 1050.91C394.674 1050.21 395.846 1049.86 397.105 1049.86C399.166 1049.86 400.768 1050.54 401.91 1051.89C403.053 1053.25 403.624 1055.19 403.624 1057.72V1058.85H392.887C392.926 1060.41 393.38 1061.68 394.249 1062.65C395.128 1063.6 396.241 1064.08 397.589 1064.08C398.546 1064.08 399.356 1063.89 400.021 1063.5C400.685 1063.1 401.266 1062.59 401.764 1061.94L403.419 1063.23C402.091 1065.27 400.099 1066.29 397.442 1066.29ZM397.105 1052.08C396.012 1052.08 395.094 1052.48 394.352 1053.29C393.609 1054.08 393.15 1055.19 392.975 1056.62H400.914V1056.42C400.836 1055.04 400.465 1053.98 399.801 1053.23C399.137 1052.46 398.238 1052.08 397.105 1052.08ZM412.091 1055.94L415.606 1050.15H418.771L413.585 1057.99L418.932 1066H415.797L412.135 1060.07L408.473 1066H405.323L410.67 1057.99L405.484 1050.15H408.619L412.091 1055.94ZM425.333 1046.31V1050.15H428.292V1052.25H425.333V1062.07C425.333 1062.71 425.465 1063.19 425.729 1063.51C425.992 1063.82 426.441 1063.98 427.076 1063.98C427.389 1063.98 427.818 1063.92 428.365 1063.8V1066C427.652 1066.2 426.959 1066.29 426.285 1066.29C425.074 1066.29 424.161 1065.93 423.546 1065.19C422.931 1064.46 422.623 1063.42 422.623 1062.07V1052.25H419.737V1050.15H422.623V1046.31H425.333ZM452.33 1058.25C452.33 1060.67 451.773 1062.62 450.66 1064.1C449.547 1065.56 448.053 1066.29 446.178 1066.29C444.176 1066.29 442.628 1065.58 441.534 1064.17L441.402 1066H438.912V1043.5H441.622V1051.89C442.716 1050.54 444.225 1049.86 446.148 1049.86C448.072 1049.86 449.581 1050.58 450.675 1052.04C451.778 1053.5 452.33 1055.49 452.33 1058.02V1058.25ZM449.62 1057.94C449.62 1056.1 449.264 1054.67 448.551 1053.67C447.838 1052.66 446.812 1052.16 445.475 1052.16C443.688 1052.16 442.403 1052.99 441.622 1054.65V1061.5C442.452 1063.16 443.746 1063.99 445.504 1063.99C446.803 1063.99 447.813 1063.49 448.536 1062.48C449.259 1061.48 449.62 1059.96 449.62 1057.94ZM465.543 1064.43C464.488 1065.67 462.94 1066.29 460.899 1066.29C459.21 1066.29 457.921 1065.8 457.032 1064.83C456.153 1063.84 455.709 1062.39 455.699 1060.46V1050.15H458.409V1060.39C458.409 1062.79 459.386 1063.99 461.339 1063.99C463.409 1063.99 464.786 1063.22 465.47 1061.68V1050.15H468.18V1066H465.602L465.543 1064.43ZM475.987 1046.31V1050.15H478.946V1052.25H475.987V1062.07C475.987 1062.71 476.119 1063.19 476.383 1063.51C476.646 1063.82 477.096 1063.98 477.73 1063.98C478.043 1063.98 478.473 1063.92 479.02 1063.8V1066C478.307 1066.2 477.613 1066.29 476.939 1066.29C475.729 1066.29 474.815 1065.93 474.2 1065.19C473.585 1064.46 473.277 1063.42 473.277 1062.07V1052.25H470.392V1050.15H473.277V1046.31H475.987ZM485.802 1046.31V1050.15H488.761V1052.25H485.802V1062.07C485.802 1062.71 485.934 1063.19 486.197 1063.51C486.461 1063.82 486.91 1063.98 487.545 1063.98C487.857 1063.98 488.287 1063.92 488.834 1063.8V1066C488.121 1066.2 487.428 1066.29 486.754 1066.29C485.543 1066.29 484.63 1065.93 484.015 1065.19C483.399 1064.46 483.092 1063.42 483.092 1062.07V1052.25H480.206V1050.15H483.092V1046.31H485.802ZM490.929 1057.93C490.929 1056.38 491.231 1054.98 491.837 1053.74C492.452 1052.5 493.302 1051.54 494.386 1050.87C495.479 1050.19 496.725 1049.86 498.121 1049.86C500.279 1049.86 502.022 1050.6 503.351 1052.1C504.688 1053.59 505.357 1055.58 505.357 1058.06V1058.25C505.357 1059.79 505.06 1061.18 504.464 1062.41C503.878 1063.63 503.033 1064.58 501.93 1065.27C500.836 1065.95 499.576 1066.29 498.15 1066.29C496.002 1066.29 494.259 1065.55 492.921 1064.05C491.593 1062.56 490.929 1060.58 490.929 1058.12V1057.93ZM493.653 1058.25C493.653 1060.01 494.059 1061.42 494.869 1062.48C495.689 1063.55 496.783 1064.08 498.15 1064.08C499.527 1064.08 500.621 1063.54 501.432 1062.47C502.242 1061.39 502.647 1059.87 502.647 1057.93C502.647 1056.19 502.232 1054.78 501.402 1053.71C500.582 1052.63 499.488 1052.08 498.121 1052.08C496.783 1052.08 495.704 1052.62 494.884 1053.68C494.063 1054.75 493.653 1056.27 493.653 1058.25ZM511.319 1050.15L511.407 1052.14C512.618 1050.62 514.2 1049.86 516.153 1049.86C519.503 1049.86 521.192 1051.75 521.222 1055.53V1066H518.512V1055.51C518.502 1054.37 518.238 1053.52 517.721 1052.98C517.213 1052.43 516.417 1052.16 515.333 1052.16C514.454 1052.16 513.683 1052.39 513.019 1052.86C512.354 1053.33 511.837 1053.94 511.466 1054.71V1066H508.756V1050.15H511.319Z" fill="#DDD9D9"/>
<path d="M643.279 1061.8C643.279 1061.06 643.001 1060.5 642.444 1060.1C641.897 1059.69 640.936 1059.33 639.559 1059.04C638.191 1058.75 637.103 1058.4 636.292 1057.99C635.491 1057.58 634.896 1057.09 634.505 1056.52C634.124 1055.96 633.934 1055.28 633.934 1054.5C633.934 1053.2 634.48 1052.1 635.574 1051.21C636.678 1050.31 638.084 1049.86 639.793 1049.86C641.59 1049.86 643.045 1050.32 644.158 1051.25C645.281 1052.18 645.843 1053.36 645.843 1054.81H643.118C643.118 1054.07 642.801 1053.43 642.166 1052.89C641.541 1052.35 640.75 1052.08 639.793 1052.08C638.807 1052.08 638.035 1052.3 637.479 1052.73C636.922 1053.16 636.644 1053.72 636.644 1054.41C636.644 1055.07 636.902 1055.56 637.42 1055.89C637.938 1056.22 638.87 1056.54 640.218 1056.84C641.575 1057.15 642.674 1057.51 643.514 1057.93C644.354 1058.35 644.974 1058.86 645.374 1059.45C645.784 1060.04 645.989 1060.76 645.989 1061.61C645.989 1063.02 645.423 1064.16 644.29 1065.02C643.157 1065.87 641.688 1066.29 639.881 1066.29C638.611 1066.29 637.488 1066.07 636.512 1065.62C635.535 1065.17 634.769 1064.54 634.212 1063.74C633.665 1062.93 633.392 1062.06 633.392 1061.12H636.102C636.15 1062.03 636.512 1062.75 637.186 1063.29C637.869 1063.82 638.768 1064.08 639.881 1064.08C640.906 1064.08 641.727 1063.88 642.342 1063.47C642.967 1063.05 643.279 1062.49 643.279 1061.8ZM656.097 1066.29C653.948 1066.29 652.2 1065.59 650.853 1064.18C649.505 1062.77 648.831 1060.88 648.831 1058.51V1058.02C648.831 1056.44 649.129 1055.04 649.725 1053.81C650.33 1052.57 651.17 1051.61 652.244 1050.91C653.328 1050.21 654.5 1049.86 655.76 1049.86C657.82 1049.86 659.422 1050.54 660.564 1051.89C661.707 1053.25 662.278 1055.19 662.278 1057.72V1058.85H651.541C651.58 1060.41 652.034 1061.68 652.903 1062.65C653.782 1063.6 654.896 1064.08 656.243 1064.08C657.2 1064.08 658.011 1063.89 658.675 1063.5C659.339 1063.1 659.92 1062.59 660.418 1061.94L662.073 1063.23C660.745 1065.27 658.753 1066.29 656.097 1066.29ZM655.76 1052.08C654.666 1052.08 653.748 1052.48 653.006 1053.29C652.264 1054.08 651.805 1055.19 651.629 1056.62H659.568V1056.42C659.49 1055.04 659.119 1053.98 658.455 1053.23C657.791 1052.46 656.893 1052.08 655.76 1052.08ZM672.005 1066.29C669.856 1066.29 668.108 1065.59 666.761 1064.18C665.413 1062.77 664.739 1060.88 664.739 1058.51V1058.02C664.739 1056.44 665.037 1055.04 665.633 1053.81C666.238 1052.57 667.078 1051.61 668.152 1050.91C669.236 1050.21 670.408 1049.86 671.668 1049.86C673.729 1049.86 675.33 1050.54 676.473 1051.89C677.615 1053.25 678.187 1055.19 678.187 1057.72V1058.85H667.449C667.488 1060.41 667.942 1061.68 668.812 1062.65C669.69 1063.6 670.804 1064.08 672.151 1064.08C673.108 1064.08 673.919 1063.89 674.583 1063.5C675.247 1063.1 675.828 1062.59 676.326 1061.94L677.981 1063.23C676.653 1065.27 674.661 1066.29 672.005 1066.29ZM671.668 1052.08C670.574 1052.08 669.656 1052.48 668.914 1053.29C668.172 1054.08 667.713 1055.19 667.537 1056.62H675.477V1056.42C675.398 1055.04 675.027 1053.98 674.363 1053.23C673.699 1052.46 672.801 1052.08 671.668 1052.08ZM688.118 1057.94C688.118 1055.51 688.694 1053.56 689.847 1052.08C690.999 1050.6 692.508 1049.86 694.373 1049.86C696.229 1049.86 697.698 1050.49 698.782 1051.76V1043.5H701.492V1066H699.002L698.87 1064.3C697.786 1065.63 696.277 1066.29 694.344 1066.29C692.508 1066.29 691.009 1065.54 689.847 1064.04C688.694 1062.53 688.118 1060.57 688.118 1058.15V1057.94ZM690.828 1058.25C690.828 1060.05 691.199 1061.45 691.941 1062.47C692.684 1063.49 693.709 1063.99 695.018 1063.99C696.736 1063.99 697.991 1063.22 698.782 1061.68V1054.4C697.972 1052.9 696.727 1052.16 695.047 1052.16C693.719 1052.16 692.684 1052.67 691.941 1053.7C691.199 1054.72 690.828 1056.24 690.828 1058.25ZM712.288 1066.29C710.14 1066.29 708.392 1065.59 707.044 1064.18C705.696 1062.77 705.022 1060.88 705.022 1058.51V1058.02C705.022 1056.44 705.32 1055.04 705.916 1053.81C706.521 1052.57 707.361 1051.61 708.436 1050.91C709.52 1050.21 710.691 1049.86 711.951 1049.86C714.012 1049.86 715.613 1050.54 716.756 1051.89C717.898 1053.25 718.47 1055.19 718.47 1057.72V1058.85H707.732C707.771 1060.41 708.226 1061.68 709.095 1062.65C709.974 1063.6 711.087 1064.08 712.435 1064.08C713.392 1064.08 714.202 1063.89 714.866 1063.5C715.53 1063.1 716.111 1062.59 716.609 1061.94L718.265 1063.23C716.937 1065.27 714.944 1066.29 712.288 1066.29ZM711.951 1052.08C710.857 1052.08 709.939 1052.48 709.197 1053.29C708.455 1054.08 707.996 1055.19 707.82 1056.62H715.76V1056.42C715.682 1055.04 715.311 1053.98 714.646 1053.23C713.982 1052.46 713.084 1052.08 711.951 1052.08ZM725.296 1046.31V1050.15H728.255V1052.25H725.296V1062.07C725.296 1062.71 725.428 1063.19 725.691 1063.51C725.955 1063.82 726.404 1063.98 727.039 1063.98C727.352 1063.98 727.781 1063.92 728.328 1063.8V1066C727.615 1066.2 726.922 1066.29 726.248 1066.29C725.037 1066.29 724.124 1065.93 723.509 1065.19C722.894 1064.46 722.586 1063.42 722.586 1062.07V1052.25H719.7V1050.15H722.586V1046.31H725.296ZM741.219 1066C741.062 1065.69 740.936 1065.13 740.838 1064.33C739.578 1065.64 738.074 1066.29 736.326 1066.29C734.764 1066.29 733.479 1065.85 732.474 1064.97C731.478 1064.09 730.979 1062.96 730.979 1061.61C730.979 1059.96 731.604 1058.68 732.854 1057.77C734.114 1056.85 735.882 1056.39 738.157 1056.39H740.794V1055.15C740.794 1054.2 740.511 1053.45 739.944 1052.89C739.378 1052.32 738.543 1052.04 737.439 1052.04C736.473 1052.04 735.662 1052.28 735.008 1052.77C734.354 1053.26 734.026 1053.85 734.026 1054.54H731.302C731.302 1053.75 731.58 1052.99 732.137 1052.26C732.703 1051.52 733.465 1050.93 734.422 1050.5C735.389 1050.07 736.448 1049.86 737.601 1049.86C739.427 1049.86 740.857 1050.32 741.893 1051.23C742.928 1052.14 743.465 1053.4 743.504 1055V1062.29C743.504 1063.75 743.689 1064.91 744.061 1065.77V1066H741.219ZM736.722 1063.93C737.571 1063.93 738.377 1063.71 739.139 1063.28C739.9 1062.84 740.452 1062.26 740.794 1061.56V1058.31H738.67C735.35 1058.31 733.689 1059.28 733.689 1061.22C733.689 1062.07 733.973 1062.74 734.539 1063.22C735.105 1063.7 735.833 1063.93 736.722 1063.93ZM750.696 1066H747.986V1050.15H750.696V1066ZM747.767 1045.95C747.767 1045.51 747.898 1045.14 748.162 1044.83C748.436 1044.53 748.836 1044.38 749.363 1044.38C749.891 1044.38 750.291 1044.53 750.564 1044.83C750.838 1045.14 750.975 1045.51 750.975 1045.95C750.975 1046.39 750.838 1046.75 750.564 1047.04C750.291 1047.34 749.891 1047.48 749.363 1047.48C748.836 1047.48 748.436 1047.34 748.162 1047.04C747.898 1046.75 747.767 1046.39 747.767 1045.95ZM757.991 1066H755.281V1043.5H757.991V1066ZM771.57 1061.8C771.57 1061.06 771.292 1060.5 770.735 1060.1C770.188 1059.69 769.227 1059.33 767.85 1059.04C766.482 1058.75 765.394 1058.4 764.583 1057.99C763.782 1057.58 763.187 1057.09 762.796 1056.52C762.415 1055.96 762.225 1055.28 762.225 1054.5C762.225 1053.2 762.771 1052.1 763.865 1051.21C764.969 1050.31 766.375 1049.86 768.084 1049.86C769.881 1049.86 771.336 1050.32 772.449 1051.25C773.572 1052.18 774.134 1053.36 774.134 1054.81H771.409C771.409 1054.07 771.092 1053.43 770.457 1052.89C769.832 1052.35 769.041 1052.08 768.084 1052.08C767.098 1052.08 766.326 1052.3 765.77 1052.73C765.213 1053.16 764.935 1053.72 764.935 1054.41C764.935 1055.07 765.193 1055.56 765.711 1055.89C766.229 1056.22 767.161 1056.54 768.509 1056.84C769.866 1057.15 770.965 1057.51 771.805 1057.93C772.645 1058.35 773.265 1058.86 773.665 1059.45C774.075 1060.04 774.28 1060.76 774.28 1061.61C774.28 1063.02 773.714 1064.16 772.581 1065.02C771.448 1065.87 769.979 1066.29 768.172 1066.29C766.902 1066.29 765.779 1066.07 764.803 1065.62C763.826 1065.17 763.06 1064.54 762.503 1063.74C761.956 1062.93 761.683 1062.06 761.683 1061.12H764.393C764.441 1062.03 764.803 1062.75 765.477 1063.29C766.16 1063.82 767.059 1064.08 768.172 1064.08C769.197 1064.08 770.018 1063.88 770.633 1063.47C771.258 1063.05 771.57 1062.49 771.57 1061.8ZM798.67 1058.25C798.67 1060.67 798.113 1062.62 797 1064.1C795.887 1065.56 794.393 1066.29 792.518 1066.29C790.516 1066.29 788.968 1065.58 787.874 1064.17L787.742 1066H785.252V1043.5H787.962V1051.89C789.056 1050.54 790.564 1049.86 792.488 1049.86C794.412 1049.86 795.921 1050.58 797.015 1052.04C798.118 1053.5 798.67 1055.49 798.67 1058.02V1058.25ZM795.96 1057.94C795.96 1056.1 795.604 1054.67 794.891 1053.67C794.178 1052.66 793.152 1052.16 791.814 1052.16C790.027 1052.16 788.743 1052.99 787.962 1054.65V1061.5C788.792 1063.16 790.086 1063.99 791.844 1063.99C793.143 1063.99 794.153 1063.49 794.876 1062.48C795.599 1061.48 795.96 1059.96 795.96 1057.94ZM811.883 1064.43C810.828 1065.67 809.28 1066.29 807.239 1066.29C805.55 1066.29 804.261 1065.8 803.372 1064.83C802.493 1063.84 802.049 1062.39 802.039 1060.46V1050.15H804.749V1060.39C804.749 1062.79 805.726 1063.99 807.679 1063.99C809.749 1063.99 811.126 1063.22 811.81 1061.68V1050.15H814.52V1066H811.941L811.883 1064.43ZM822.327 1046.31V1050.15H825.286V1052.25H822.327V1062.07C822.327 1062.71 822.459 1063.19 822.723 1063.51C822.986 1063.82 823.436 1063.98 824.07 1063.98C824.383 1063.98 824.812 1063.92 825.359 1063.8V1066C824.646 1066.2 823.953 1066.29 823.279 1066.29C822.068 1066.29 821.155 1065.93 820.54 1065.19C819.925 1064.46 819.617 1063.42 819.617 1062.07V1052.25H816.731V1050.15H819.617V1046.31H822.327ZM832.142 1046.31V1050.15H835.101V1052.25H832.142V1062.07C832.142 1062.71 832.273 1063.19 832.537 1063.51C832.801 1063.82 833.25 1063.98 833.885 1063.98C834.197 1063.98 834.627 1063.92 835.174 1063.8V1066C834.461 1066.2 833.768 1066.29 833.094 1066.29C831.883 1066.29 830.97 1065.93 830.354 1065.19C829.739 1064.46 829.432 1063.42 829.432 1062.07V1052.25H826.546V1050.15H829.432V1046.31H832.142ZM837.269 1057.93C837.269 1056.38 837.571 1054.98 838.177 1053.74C838.792 1052.5 839.642 1051.54 840.726 1050.87C841.819 1050.19 843.064 1049.86 844.461 1049.86C846.619 1049.86 848.362 1050.6 849.69 1052.1C851.028 1053.59 851.697 1055.58 851.697 1058.06V1058.25C851.697 1059.79 851.399 1061.18 850.804 1062.41C850.218 1063.63 849.373 1064.58 848.27 1065.27C847.176 1065.95 845.916 1066.29 844.49 1066.29C842.342 1066.29 840.599 1065.55 839.261 1064.05C837.933 1062.56 837.269 1060.58 837.269 1058.12V1057.93ZM839.993 1058.25C839.993 1060.01 840.398 1061.42 841.209 1062.48C842.029 1063.55 843.123 1064.08 844.49 1064.08C845.867 1064.08 846.961 1063.54 847.771 1062.47C848.582 1061.39 848.987 1059.87 848.987 1057.93C848.987 1056.19 848.572 1054.78 847.742 1053.71C846.922 1052.63 845.828 1052.08 844.461 1052.08C843.123 1052.08 842.044 1052.62 841.224 1053.68C840.403 1054.75 839.993 1056.27 839.993 1058.25ZM857.659 1050.15L857.747 1052.14C858.958 1050.62 860.54 1049.86 862.493 1049.86C865.843 1049.86 867.532 1051.75 867.562 1055.53V1066H864.852V1055.51C864.842 1054.37 864.578 1053.52 864.061 1052.98C863.553 1052.43 862.757 1052.16 861.673 1052.16C860.794 1052.16 860.022 1052.39 859.358 1052.86C858.694 1053.33 858.177 1053.94 857.806 1054.71V1066H855.096V1050.15H857.659Z" fill="#DDD9D9"/>
<path d="M337.392 876.943C337.392 874.512 337.968 872.559 339.12 871.084C340.272 869.6 341.781 868.857 343.646 868.857C345.502 868.857 346.972 869.492 348.056 870.762V862.5H350.766V885H348.275L348.144 883.301C347.06 884.629 345.551 885.293 343.617 885.293C341.781 885.293 340.282 884.541 339.12 883.037C337.968 881.533 337.392 879.57 337.392 877.148V876.943ZM340.102 877.251C340.102 879.048 340.473 880.454 341.215 881.47C341.957 882.485 342.982 882.993 344.291 882.993C346.01 882.993 347.265 882.222 348.056 880.679V873.398C347.245 871.904 346 871.157 344.32 871.157C342.992 871.157 341.957 871.67 341.215 872.695C340.473 873.721 340.102 875.239 340.102 877.251ZM361.562 885.293C359.413 885.293 357.665 884.59 356.317 883.184C354.97 881.768 354.296 879.878 354.296 877.515V877.017C354.296 875.444 354.594 874.043 355.189 872.812C355.795 871.572 356.635 870.605 357.709 869.912C358.793 869.209 359.965 868.857 361.225 868.857C363.285 868.857 364.887 869.536 366.029 870.894C367.172 872.251 367.743 874.194 367.743 876.724V877.852H357.006C357.045 879.414 357.499 880.679 358.368 881.646C359.247 882.603 360.36 883.081 361.708 883.081C362.665 883.081 363.476 882.886 364.14 882.495C364.804 882.104 365.385 881.587 365.883 880.942L367.538 882.231C366.21 884.272 364.218 885.293 361.562 885.293ZM361.225 871.084C360.131 871.084 359.213 871.484 358.471 872.285C357.729 873.076 357.27 874.189 357.094 875.625H365.033V875.42C364.955 874.043 364.584 872.979 363.92 872.227C363.256 871.465 362.357 871.084 361.225 871.084ZM374.569 865.312V869.15H377.528V871.245H374.569V881.074C374.569 881.709 374.701 882.188 374.965 882.51C375.229 882.822 375.678 882.979 376.312 882.979C376.625 882.979 377.055 882.92 377.602 882.803V885C376.889 885.195 376.195 885.293 375.521 885.293C374.311 885.293 373.397 884.927 372.782 884.194C372.167 883.462 371.859 882.422 371.859 881.074V871.245H368.974V869.15H371.859V865.312H374.569ZM390.492 885C390.336 884.688 390.209 884.131 390.111 883.33C388.852 884.639 387.348 885.293 385.6 885.293C384.037 885.293 382.753 884.854 381.747 883.975C380.751 883.086 380.253 881.963 380.253 880.605C380.253 878.955 380.878 877.676 382.128 876.768C383.388 875.85 385.155 875.391 387.431 875.391H390.067V874.146C390.067 873.198 389.784 872.446 389.218 871.89C388.651 871.323 387.816 871.04 386.713 871.04C385.746 871.04 384.936 871.284 384.281 871.772C383.627 872.261 383.3 872.852 383.3 873.545H380.575C380.575 872.754 380.854 871.992 381.41 871.26C381.977 870.518 382.738 869.932 383.695 869.502C384.662 869.072 385.722 868.857 386.874 868.857C388.7 868.857 390.131 869.316 391.166 870.234C392.201 871.143 392.738 872.397 392.777 873.999V881.294C392.777 882.749 392.963 883.906 393.334 884.766V885H390.492ZM385.995 882.935C386.845 882.935 387.65 882.715 388.412 882.275C389.174 881.836 389.726 881.265 390.067 880.562V877.31H387.943C384.623 877.31 382.963 878.281 382.963 880.225C382.963 881.074 383.246 881.738 383.812 882.217C384.379 882.695 385.106 882.935 385.995 882.935ZM399.97 885H397.26V869.15H399.97V885ZM397.04 864.946C397.04 864.507 397.172 864.136 397.436 863.833C397.709 863.53 398.109 863.379 398.637 863.379C399.164 863.379 399.564 863.53 399.838 863.833C400.111 864.136 400.248 864.507 400.248 864.946C400.248 865.386 400.111 865.752 399.838 866.045C399.564 866.338 399.164 866.484 398.637 866.484C398.109 866.484 397.709 866.338 397.436 866.045C397.172 865.752 397.04 865.386 397.04 864.946ZM407.265 885H404.555V862.5H407.265V885ZM420.844 880.796C420.844 880.063 420.565 879.497 420.009 879.097C419.462 878.687 418.5 878.335 417.123 878.042C415.756 877.749 414.667 877.397 413.856 876.987C413.056 876.577 412.46 876.089 412.069 875.522C411.688 874.956 411.498 874.282 411.498 873.501C411.498 872.202 412.045 871.104 413.139 870.205C414.242 869.307 415.648 868.857 417.357 868.857C419.154 868.857 420.609 869.321 421.723 870.249C422.846 871.177 423.407 872.363 423.407 873.809H420.683C420.683 873.066 420.365 872.427 419.73 871.89C419.105 871.353 418.314 871.084 417.357 871.084C416.371 871.084 415.6 871.299 415.043 871.729C414.486 872.158 414.208 872.72 414.208 873.413C414.208 874.067 414.467 874.561 414.984 874.893C415.502 875.225 416.435 875.542 417.782 875.845C419.14 876.147 420.238 876.509 421.078 876.929C421.918 877.349 422.538 877.856 422.938 878.452C423.349 879.038 423.554 879.756 423.554 880.605C423.554 882.021 422.987 883.159 421.854 884.019C420.722 884.868 419.252 885.293 417.445 885.293C416.176 885.293 415.053 885.068 414.076 884.619C413.1 884.17 412.333 883.545 411.776 882.744C411.229 881.934 410.956 881.06 410.956 880.122H413.666C413.715 881.03 414.076 881.753 414.75 882.29C415.434 882.817 416.332 883.081 417.445 883.081C418.471 883.081 419.291 882.876 419.906 882.466C420.531 882.046 420.844 881.489 420.844 880.796ZM437.47 885H434.76V869.15H437.47V885ZM434.54 864.946C434.54 864.507 434.672 864.136 434.936 863.833C435.209 863.53 435.609 863.379 436.137 863.379C436.664 863.379 437.064 863.53 437.338 863.833C437.611 864.136 437.748 864.507 437.748 864.946C437.748 865.386 437.611 865.752 437.338 866.045C437.064 866.338 436.664 866.484 436.137 866.484C435.609 866.484 435.209 866.338 434.936 866.045C434.672 865.752 434.54 865.386 434.54 864.946ZM448.178 883.081C449.145 883.081 449.989 882.788 450.712 882.202C451.435 881.616 451.835 880.884 451.913 880.005H454.477C454.428 880.913 454.115 881.777 453.539 882.598C452.963 883.418 452.191 884.072 451.225 884.561C450.268 885.049 449.252 885.293 448.178 885.293C446.02 885.293 444.301 884.575 443.021 883.14C441.752 881.694 441.117 879.722 441.117 877.222V876.768C441.117 875.225 441.4 873.853 441.967 872.651C442.533 871.45 443.344 870.518 444.398 869.854C445.463 869.189 446.718 868.857 448.163 868.857C449.94 868.857 451.415 869.39 452.587 870.454C453.769 871.519 454.398 872.9 454.477 874.6H451.913C451.835 873.574 451.444 872.734 450.741 872.08C450.048 871.416 449.188 871.084 448.163 871.084C446.786 871.084 445.717 871.582 444.955 872.578C444.203 873.564 443.827 874.995 443.827 876.87V877.383C443.827 879.209 444.203 880.615 444.955 881.602C445.707 882.588 446.781 883.081 448.178 883.081ZM456.806 876.929C456.806 875.376 457.108 873.979 457.714 872.739C458.329 871.499 459.179 870.542 460.263 869.868C461.356 869.194 462.602 868.857 463.998 868.857C466.156 868.857 467.899 869.604 469.228 871.099C470.565 872.593 471.234 874.58 471.234 877.061V877.251C471.234 878.794 470.937 880.181 470.341 881.411C469.755 882.632 468.91 883.584 467.807 884.268C466.713 884.951 465.453 885.293 464.027 885.293C461.879 885.293 460.136 884.546 458.798 883.052C457.47 881.558 456.806 879.58 456.806 877.119V876.929ZM459.53 877.251C459.53 879.009 459.936 880.42 460.746 881.484C461.566 882.549 462.66 883.081 464.027 883.081C465.404 883.081 466.498 882.544 467.309 881.47C468.119 880.386 468.524 878.872 468.524 876.929C468.524 875.19 468.109 873.784 467.279 872.71C466.459 871.626 465.365 871.084 463.998 871.084C462.66 871.084 461.581 871.616 460.761 872.681C459.94 873.745 459.53 875.269 459.53 877.251ZM477.196 869.15L477.284 871.143C478.495 869.619 480.077 868.857 482.03 868.857C485.38 868.857 487.069 870.747 487.099 874.526V885H484.389V874.512C484.379 873.369 484.115 872.524 483.598 871.978C483.09 871.431 482.294 871.157 481.21 871.157C480.331 871.157 479.56 871.392 478.896 871.86C478.231 872.329 477.714 872.944 477.343 873.706V885H474.633V869.15H477.196ZM500.414 880.796C500.414 880.063 500.136 879.497 499.579 879.097C499.032 878.687 498.07 878.335 496.693 878.042C495.326 877.749 494.237 877.397 493.427 876.987C492.626 876.577 492.03 876.089 491.64 875.522C491.259 874.956 491.068 874.282 491.068 873.501C491.068 872.202 491.615 871.104 492.709 870.205C493.812 869.307 495.219 868.857 496.928 868.857C498.725 868.857 500.18 869.321 501.293 870.249C502.416 871.177 502.978 872.363 502.978 873.809H500.253C500.253 873.066 499.936 872.427 499.301 871.89C498.676 871.353 497.885 871.084 496.928 871.084C495.941 871.084 495.17 871.299 494.613 871.729C494.057 872.158 493.778 872.72 493.778 873.413C493.778 874.067 494.037 874.561 494.555 874.893C495.072 875.225 496.005 875.542 497.353 875.845C498.71 876.147 499.809 876.509 500.648 876.929C501.488 877.349 502.108 877.856 502.509 878.452C502.919 879.038 503.124 879.756 503.124 880.605C503.124 882.021 502.558 883.159 501.425 884.019C500.292 884.868 498.822 885.293 497.016 885.293C495.746 885.293 494.623 885.068 493.646 884.619C492.67 884.17 491.903 883.545 491.347 882.744C490.8 881.934 490.526 881.06 490.526 880.122H493.236C493.285 881.03 493.646 881.753 494.32 882.29C495.004 882.817 495.902 883.081 497.016 883.081C498.041 883.081 498.861 882.876 499.477 882.466C500.102 882.046 500.414 881.489 500.414 880.796Z" fill="#DDD9D9"/>
<path d="M477.5 928.5C477.5 945.138 464.672 958.5 449 958.5C433.328 958.5 420.5 945.138 420.5 928.5C420.5 911.862 433.328 898.5 449 898.5C464.672 898.5 477.5 911.862 477.5 928.5Z" stroke="#C6C6C6" stroke-width="3"/>
<path d="M552.5 928.5C552.5 945.138 539.672 958.5 524 958.5C508.328 958.5 495.5 945.138 495.5 928.5C495.5 911.862 508.328 898.5 524 898.5C539.672 898.5 552.5 911.862 552.5 928.5Z" stroke="#C6C6C6" stroke-width="3"/>
<path d="M770.5 927.5C770.5 944.138 757.672 957.5 742 957.5C726.328 957.5 713.5 944.138 713.5 927.5C713.5 910.862 726.328 897.5 742 897.5C757.672 897.5 770.5 910.862 770.5 927.5Z" stroke="#C6C6C6" stroke-width="3"/>
<path d="M652.5 928.5C652.5 945.138 639.672 958.5 624 958.5C608.328 958.5 595.5 945.138 595.5 928.5C595.5 911.862 608.328 898.5 624 898.5C639.672 898.5 652.5 911.862 652.5 928.5Z" stroke="#C6C6C6" stroke-width="3"/>
<path d="M836.5 733.5C836.5 750.138 823.672 763.5 808 763.5C792.328 763.5 779.5 750.138 779.5 733.5C779.5 716.862 792.328 703.5 808 703.5C823.672 703.5 836.5 716.862 836.5 733.5Z" stroke="#C6C6C6" stroke-width="3"/>
<path d="M766.836 692C766.68 691.688 766.553 691.131 766.455 690.33C765.195 691.639 763.691 692.293 761.943 692.293C760.381 692.293 759.097 691.854 758.091 690.975C757.095 690.086 756.597 688.963 756.597 687.605C756.597 685.955 757.222 684.676 758.472 683.768C759.731 682.85 761.499 682.391 763.774 682.391H766.411V681.146C766.411 680.198 766.128 679.446 765.562 678.89C764.995 678.323 764.16 678.04 763.057 678.04C762.09 678.04 761.279 678.284 760.625 678.772C759.971 679.261 759.644 679.852 759.644 680.545H756.919C756.919 679.754 757.197 678.992 757.754 678.26C758.32 677.518 759.082 676.932 760.039 676.502C761.006 676.072 762.065 675.857 763.218 675.857C765.044 675.857 766.475 676.316 767.51 677.234C768.545 678.143 769.082 679.397 769.121 680.999V688.294C769.121 689.749 769.307 690.906 769.678 691.766V692H766.836ZM762.339 689.935C763.188 689.935 763.994 689.715 764.756 689.275C765.518 688.836 766.069 688.265 766.411 687.562V684.31H764.287C760.967 684.31 759.307 685.281 759.307 687.225C759.307 688.074 759.59 688.738 760.156 689.217C760.723 689.695 761.45 689.935 762.339 689.935ZM772.71 683.943C772.71 681.512 773.286 679.559 774.438 678.084C775.591 676.6 777.1 675.857 778.965 675.857C780.82 675.857 782.29 676.492 783.374 677.762V669.5H786.084V692H783.594L783.462 690.301C782.378 691.629 780.869 692.293 778.936 692.293C777.1 692.293 775.601 691.541 774.438 690.037C773.286 688.533 772.71 686.57 772.71 684.148V683.943ZM775.42 684.251C775.42 686.048 775.791 687.454 776.533 688.47C777.275 689.485 778.301 689.993 779.609 689.993C781.328 689.993 782.583 689.222 783.374 687.679V680.398C782.563 678.904 781.318 678.157 779.639 678.157C778.311 678.157 777.275 678.67 776.533 679.695C775.791 680.721 775.42 682.239 775.42 684.251ZM789.644 683.943C789.644 681.512 790.22 679.559 791.372 678.084C792.524 676.6 794.033 675.857 795.898 675.857C797.754 675.857 799.224 676.492 800.308 677.762V669.5H803.018V692H800.527L800.396 690.301C799.312 691.629 797.803 692.293 795.869 692.293C794.033 692.293 792.534 691.541 791.372 690.037C790.22 688.533 789.644 686.57 789.644 684.148V683.943ZM792.354 684.251C792.354 686.048 792.725 687.454 793.467 688.47C794.209 689.485 795.234 689.993 796.543 689.993C798.262 689.993 799.517 689.222 800.308 687.679V680.398C799.497 678.904 798.252 678.157 796.572 678.157C795.244 678.157 794.209 678.67 793.467 679.695C792.725 680.721 792.354 682.239 792.354 684.251ZM818.354 672.312V676.15H821.313V678.245H818.354V688.074C818.354 688.709 818.486 689.188 818.75 689.51C819.014 689.822 819.463 689.979 820.098 689.979C820.41 689.979 820.84 689.92 821.387 689.803V692C820.674 692.195 819.98 692.293 819.307 692.293C818.096 692.293 817.183 691.927 816.567 691.194C815.952 690.462 815.645 689.422 815.645 688.074V678.245H812.759V676.15H815.645V672.312H818.354ZM823.481 683.929C823.481 682.376 823.784 680.979 824.39 679.739C825.005 678.499 825.854 677.542 826.938 676.868C828.032 676.194 829.277 675.857 830.674 675.857C832.832 675.857 834.575 676.604 835.903 678.099C837.241 679.593 837.91 681.58 837.91 684.061V684.251C837.91 685.794 837.612 687.181 837.017 688.411C836.431 689.632 835.586 690.584 834.482 691.268C833.389 691.951 832.129 692.293 830.703 692.293C828.555 692.293 826.812 691.546 825.474 690.052C824.146 688.558 823.481 686.58 823.481 684.119V683.929ZM826.206 684.251C826.206 686.009 826.611 687.42 827.422 688.484C828.242 689.549 829.336 690.081 830.703 690.081C832.08 690.081 833.174 689.544 833.984 688.47C834.795 687.386 835.2 685.872 835.2 683.929C835.2 682.19 834.785 680.784 833.955 679.71C833.135 678.626 832.041 678.084 830.674 678.084C829.336 678.084 828.257 678.616 827.437 679.681C826.616 680.745 826.206 682.269 826.206 684.251ZM850.083 692V678.245H847.578V676.15H850.083V674.524C850.083 672.825 850.537 671.512 851.445 670.584C852.354 669.656 853.638 669.192 855.298 669.192C855.923 669.192 856.543 669.275 857.158 669.441L857.012 671.639C856.553 671.551 856.064 671.507 855.547 671.507C854.668 671.507 853.989 671.766 853.511 672.283C853.032 672.791 852.793 673.523 852.793 674.48V676.15H856.177V678.245H852.793V692H850.083ZM868.965 692C868.809 691.688 868.682 691.131 868.584 690.33C867.324 691.639 865.82 692.293 864.072 692.293C862.51 692.293 861.226 691.854 860.22 690.975C859.224 690.086 858.726 688.963 858.726 687.605C858.726 685.955 859.351 684.676 860.601 683.768C861.86 682.85 863.628 682.391 865.903 682.391H868.54V681.146C868.54 680.198 868.257 679.446 867.69 678.89C867.124 678.323 866.289 678.04 865.186 678.04C864.219 678.04 863.408 678.284 862.754 678.772C862.1 679.261 861.772 679.852 861.772 680.545H859.048C859.048 679.754 859.326 678.992 859.883 678.26C860.449 677.518 861.211 676.932 862.168 676.502C863.135 676.072 864.194 675.857 865.347 675.857C867.173 675.857 868.604 676.316 869.639 677.234C870.674 678.143 871.211 679.397 871.25 680.999V688.294C871.25 689.749 871.436 690.906 871.807 691.766V692H868.965ZM864.468 689.935C865.317 689.935 866.123 689.715 866.885 689.275C867.646 688.836 868.198 688.265 868.54 687.562V684.31H866.416C863.096 684.31 861.436 685.281 861.436 687.225C861.436 688.074 861.719 688.738 862.285 689.217C862.852 689.695 863.579 689.935 864.468 689.935ZM880.493 688.323L884.419 676.15H887.188L881.504 692H879.438L873.696 676.15H876.465L880.493 688.323Z" fill="#DDD9D9"/>
<path d="M347.836 702C347.68 701.688 347.553 701.131 347.455 700.33C346.195 701.639 344.691 702.293 342.943 702.293C341.381 702.293 340.097 701.854 339.091 700.975C338.095 700.086 337.597 698.963 337.597 697.605C337.597 695.955 338.222 694.676 339.472 693.768C340.731 692.85 342.499 692.391 344.774 692.391H347.411V691.146C347.411 690.198 347.128 689.446 346.562 688.89C345.995 688.323 345.16 688.04 344.057 688.04C343.09 688.04 342.279 688.284 341.625 688.772C340.971 689.261 340.644 689.852 340.644 690.545H337.919C337.919 689.754 338.197 688.992 338.754 688.26C339.32 687.518 340.082 686.932 341.039 686.502C342.006 686.072 343.065 685.857 344.218 685.857C346.044 685.857 347.475 686.316 348.51 687.234C349.545 688.143 350.082 689.397 350.121 690.999V698.294C350.121 699.749 350.307 700.906 350.678 701.766V702H347.836ZM343.339 699.935C344.188 699.935 344.994 699.715 345.756 699.275C346.518 698.836 347.069 698.265 347.411 697.562V694.31H345.287C341.967 694.31 340.307 695.281 340.307 697.225C340.307 698.074 340.59 698.738 341.156 699.217C341.723 699.695 342.45 699.935 343.339 699.935ZM353.71 693.943C353.71 691.512 354.286 689.559 355.438 688.084C356.591 686.6 358.1 685.857 359.965 685.857C361.82 685.857 363.29 686.492 364.374 687.762V679.5H367.084V702H364.594L364.462 700.301C363.378 701.629 361.869 702.293 359.936 702.293C358.1 702.293 356.601 701.541 355.438 700.037C354.286 698.533 353.71 696.57 353.71 694.148V693.943ZM356.42 694.251C356.42 696.048 356.791 697.454 357.533 698.47C358.275 699.485 359.301 699.993 360.609 699.993C362.328 699.993 363.583 699.222 364.374 697.679V690.398C363.563 688.904 362.318 688.157 360.639 688.157C359.311 688.157 358.275 688.67 357.533 689.695C356.791 690.721 356.42 692.239 356.42 694.251ZM370.644 693.943C370.644 691.512 371.22 689.559 372.372 688.084C373.524 686.6 375.033 685.857 376.898 685.857C378.754 685.857 380.224 686.492 381.308 687.762V679.5H384.018V702H381.527L381.396 700.301C380.312 701.629 378.803 702.293 376.869 702.293C375.033 702.293 373.534 701.541 372.372 700.037C371.22 698.533 370.644 696.57 370.644 694.148V693.943ZM373.354 694.251C373.354 696.048 373.725 697.454 374.467 698.47C375.209 699.485 376.234 699.993 377.543 699.993C379.262 699.993 380.517 699.222 381.308 697.679V690.398C380.497 688.904 379.252 688.157 377.572 688.157C376.244 688.157 375.209 688.67 374.467 689.695C373.725 690.721 373.354 692.239 373.354 694.251ZM395.897 688.582C395.487 688.514 395.043 688.479 394.564 688.479C392.787 688.479 391.581 689.236 390.946 690.75V702H388.236V686.15H390.873L390.917 687.981C391.806 686.565 393.065 685.857 394.696 685.857C395.224 685.857 395.624 685.926 395.897 686.062V688.582ZM404.687 702.293C402.538 702.293 400.79 701.59 399.442 700.184C398.095 698.768 397.421 696.878 397.421 694.515V694.017C397.421 692.444 397.719 691.043 398.314 689.812C398.92 688.572 399.76 687.605 400.834 686.912C401.918 686.209 403.09 685.857 404.35 685.857C406.41 685.857 408.012 686.536 409.154 687.894C410.297 689.251 410.868 691.194 410.868 693.724V694.852H400.131C400.17 696.414 400.624 697.679 401.493 698.646C402.372 699.603 403.485 700.081 404.833 700.081C405.79 700.081 406.601 699.886 407.265 699.495C407.929 699.104 408.51 698.587 409.008 697.942L410.663 699.231C409.335 701.272 407.343 702.293 404.687 702.293ZM404.35 688.084C403.256 688.084 402.338 688.484 401.596 689.285C400.854 690.076 400.395 691.189 400.219 692.625H408.158V692.42C408.08 691.043 407.709 689.979 407.045 689.227C406.381 688.465 405.482 688.084 404.35 688.084ZM423.246 697.796C423.246 697.063 422.968 696.497 422.411 696.097C421.864 695.687 420.902 695.335 419.525 695.042C418.158 694.749 417.069 694.397 416.259 693.987C415.458 693.577 414.862 693.089 414.472 692.522C414.091 691.956 413.9 691.282 413.9 690.501C413.9 689.202 414.447 688.104 415.541 687.205C416.645 686.307 418.051 685.857 419.76 685.857C421.557 685.857 423.012 686.321 424.125 687.249C425.248 688.177 425.81 689.363 425.81 690.809H423.085C423.085 690.066 422.768 689.427 422.133 688.89C421.508 688.353 420.717 688.084 419.76 688.084C418.773 688.084 418.002 688.299 417.445 688.729C416.889 689.158 416.61 689.72 416.61 690.413C416.61 691.067 416.869 691.561 417.387 691.893C417.904 692.225 418.837 692.542 420.185 692.845C421.542 693.147 422.641 693.509 423.48 693.929C424.32 694.349 424.94 694.856 425.341 695.452C425.751 696.038 425.956 696.756 425.956 697.605C425.956 699.021 425.39 700.159 424.257 701.019C423.124 701.868 421.654 702.293 419.848 702.293C418.578 702.293 417.455 702.068 416.479 701.619C415.502 701.17 414.735 700.545 414.179 699.744C413.632 698.934 413.358 698.06 413.358 697.122H416.068C416.117 698.03 416.479 698.753 417.152 699.29C417.836 699.817 418.734 700.081 419.848 700.081C420.873 700.081 421.693 699.876 422.309 699.466C422.934 699.046 423.246 698.489 423.246 697.796ZM438.715 697.796C438.715 697.063 438.437 696.497 437.88 696.097C437.333 695.687 436.371 695.335 434.994 695.042C433.627 694.749 432.538 694.397 431.728 693.987C430.927 693.577 430.331 693.089 429.94 692.522C429.56 691.956 429.369 691.282 429.369 690.501C429.369 689.202 429.916 688.104 431.01 687.205C432.113 686.307 433.52 685.857 435.229 685.857C437.025 685.857 438.48 686.321 439.594 687.249C440.717 688.177 441.278 689.363 441.278 690.809H438.554C438.554 690.066 438.236 689.427 437.602 688.89C436.977 688.353 436.186 688.084 435.229 688.084C434.242 688.084 433.471 688.299 432.914 688.729C432.357 689.158 432.079 689.72 432.079 690.413C432.079 691.067 432.338 691.561 432.855 691.893C433.373 692.225 434.306 692.542 435.653 692.845C437.011 693.147 438.109 693.509 438.949 693.929C439.789 694.349 440.409 694.856 440.81 695.452C441.22 696.038 441.425 696.756 441.425 697.605C441.425 699.021 440.858 700.159 439.726 701.019C438.593 701.868 437.123 702.293 435.316 702.293C434.047 702.293 432.924 702.068 431.947 701.619C430.971 701.17 430.204 700.545 429.647 699.744C429.101 698.934 428.827 698.06 428.827 697.122H431.537C431.586 698.03 431.947 698.753 432.621 699.29C433.305 699.817 434.203 700.081 435.316 700.081C436.342 700.081 437.162 699.876 437.777 699.466C438.402 699.046 438.715 698.489 438.715 697.796ZM462.182 702C462.025 701.688 461.898 701.131 461.801 700.33C460.541 701.639 459.037 702.293 457.289 702.293C455.727 702.293 454.442 701.854 453.437 700.975C452.44 700.086 451.942 698.963 451.942 697.605C451.942 695.955 452.567 694.676 453.817 693.768C455.077 692.85 456.845 692.391 459.12 692.391H461.757V691.146C461.757 690.198 461.474 689.446 460.907 688.89C460.341 688.323 459.506 688.04 458.402 688.04C457.436 688.04 456.625 688.284 455.971 688.772C455.316 689.261 454.989 689.852 454.989 690.545H452.265C452.265 689.754 452.543 688.992 453.1 688.26C453.666 687.518 454.428 686.932 455.385 686.502C456.352 686.072 457.411 685.857 458.563 685.857C460.39 685.857 461.82 686.316 462.855 687.234C463.891 688.143 464.428 689.397 464.467 690.999V698.294C464.467 699.749 464.652 700.906 465.023 701.766V702H462.182ZM457.685 699.935C458.534 699.935 459.34 699.715 460.102 699.275C460.863 698.836 461.415 698.265 461.757 697.562V694.31H459.633C456.312 694.31 454.652 695.281 454.652 697.225C454.652 698.074 454.936 698.738 455.502 699.217C456.068 699.695 456.796 699.935 457.685 699.935ZM471.278 686.15L471.366 688.143C472.577 686.619 474.159 685.857 476.112 685.857C479.462 685.857 481.151 687.747 481.181 691.526V702H478.471V691.512C478.461 690.369 478.197 689.524 477.68 688.978C477.172 688.431 476.376 688.157 475.292 688.157C474.413 688.157 473.642 688.392 472.978 688.86C472.313 689.329 471.796 689.944 471.425 690.706V702H468.715V686.15H471.278ZM484.608 693.943C484.608 691.512 485.185 689.559 486.337 688.084C487.489 686.6 488.998 685.857 490.863 685.857C492.719 685.857 494.188 686.492 495.272 687.762V679.5H497.982V702H495.492L495.36 700.301C494.276 701.629 492.768 702.293 490.834 702.293C488.998 702.293 487.499 701.541 486.337 700.037C485.185 698.533 484.608 696.57 484.608 694.148V693.943ZM487.318 694.251C487.318 696.048 487.689 697.454 488.432 698.47C489.174 699.485 490.199 699.993 491.508 699.993C493.227 699.993 494.481 699.222 495.272 697.679V690.398C494.462 688.904 493.217 688.157 491.537 688.157C490.209 688.157 489.174 688.67 488.432 689.695C487.689 690.721 487.318 692.239 487.318 694.251ZM517.304 688.582C516.894 688.514 516.449 688.479 515.971 688.479C514.193 688.479 512.987 689.236 512.353 690.75V702H509.643V686.15H512.279L512.323 687.981C513.212 686.565 514.472 685.857 516.103 685.857C516.63 685.857 517.03 685.926 517.304 686.062V688.582ZM526.093 702.293C523.944 702.293 522.196 701.59 520.849 700.184C519.501 698.768 518.827 696.878 518.827 694.515V694.017C518.827 692.444 519.125 691.043 519.721 689.812C520.326 688.572 521.166 687.605 522.24 686.912C523.324 686.209 524.496 685.857 525.756 685.857C527.816 685.857 529.418 686.536 530.561 687.894C531.703 689.251 532.274 691.194 532.274 693.724V694.852H521.537C521.576 696.414 522.03 697.679 522.899 698.646C523.778 699.603 524.892 700.081 526.239 700.081C527.196 700.081 528.007 699.886 528.671 699.495C529.335 699.104 529.916 698.587 530.414 697.942L532.069 699.231C530.741 701.272 528.749 702.293 526.093 702.293ZM525.756 688.084C524.662 688.084 523.744 688.484 523.002 689.285C522.26 690.076 521.801 691.189 521.625 692.625H529.564V692.42C529.486 691.043 529.115 689.979 528.451 689.227C527.787 688.465 526.889 688.084 525.756 688.084ZM540.448 698.323L544.374 686.15H547.143L541.459 702H539.394L533.651 686.15H536.42L540.448 698.323Z" fill="#DDD9D9"/>
<line x1="115" y1="42" x2="196" y2="42" stroke="#C6C6C6" stroke-width="4"/>
<line x1="115" y1="62" x2="196" y2="62" stroke="#C6C6C6" stroke-width="4"/>
<line x1="115" y1="85" x2="196" y2="85" stroke="#C6C6C6" stroke-width="4"/>
</svg>
